<?xml version="1.0" encoding="UTF-8" standalone="no"?>
<!-- Created with Inkscape (http://www.inkscape.org/) -->

<svg
   width="720.72498mm"
   height="495.82916mm"
   viewBox="0 0 720.72498 495.82916"
   version="1.1"
   id="svg5"
   inkscape:version="1.1.2 (b8e25be833, 2022-02-05)"
   sodipodi:docname="updi.svg"
   xmlns:inkscape="http://www.inkscape.org/namespaces/inkscape"
   xmlns:sodipodi="http://sodipodi.sourceforge.net/DTD/sodipodi-0.dtd"
   xmlns="http://www.w3.org/2000/svg"
   xmlns:svg="http://www.w3.org/2000/svg">
  <sodipodi:namedview
     id="namedview7"
     pagecolor="#ffffff"
     bordercolor="#666666"
     borderopacity="1.0"
     inkscape:pageshadow="2"
     inkscape:pageopacity="0.0"
     inkscape:pagecheckerboard="0"
     inkscape:document-units="mm"
     showgrid="false"
     inkscape:zoom="0.25"
     inkscape:cx="1352"
     inkscape:cy="734"
     inkscape:window-width="1920"
     inkscape:window-height="991"
     inkscape:window-x="-9"
     inkscape:window-y="-9"
     inkscape:window-maximized="1"
     inkscape:current-layer="layer1" />
  <defs
     id="defs2" />
  <g
     inkscape:label="Layer 1"
     inkscape:groupmode="layer"
     id="layer1"
     transform="translate(257.36473,-28.811104)">
    <g
       id="g1717"
       transform="translate(-114.3,86.783333)">
      <path
         style="fill:#000000;stroke-width:0.264583"
         d="M -143.06473,189.94235 V -57.972229 H -22.943905 97.176925 V 189.94235 437.85693 H -22.943905 -143.06473 Z M 86.858175,342.26086 v -85.2773 l -6.74687,-9.50211 -6.74688,-9.50209 V 166.21392 94.44848 l -12.15695,-12.37963 -12.15695,-12.37963 -0.0139,-55.404679 -0.0139,-55.40469 -2.97656,-3.06245 c -1.63711,-1.68435 -3.09563,-3.15253 -3.24115,-3.26262 -0.14552,-0.11008 -25.87887,-0.20198 -57.18523,-0.20421 l -56.920637,-0.004 -2.7429,2.93329 c -1.50858,1.61332 -2.8223,3.07337 -2.91936,3.24456 -0.19234,0.33923 -0.75049,71.741768 -0.75108,96.083599 l -2.6e-4,15.08125 -2.04958,3.36602 -2.04958,3.36602 -12.30313,0.0181 -12.303118,0.0181 -12.85764,14.05399 -12.85764,14.05399 -0.17331,88.92438 c -0.0954,48.90842 -0.25124,121.57729 -0.34637,161.48638 l -0.17297,72.56198 H -22.984785 86.858185 Z M 100.35193,189.94235 V -57.972229 h 120.51771 120.5177 V 189.94235 437.85693 H 220.86964 100.35193 Z m 167.43746,222.9776 5.06386,-5.09323 0.003,-32.16518 0.003,-32.16519 -4.36105,-4.34731 -4.36102,-4.34732 -0.005,-9.45885 -0.004,-9.45886 h -5.29166 -5.29167 v 16.40417 16.40417 h 5.29167 5.29166 v -4.02939 -4.02937 l 2.38125,2.37022 2.38125,2.37021 v 30.37319 30.37319 l -3.88683,3.89585 -3.88684,3.89589 H 239.0839 217.04987 l -4.46402,-4.51731 c -4.68733,-4.74327 -4.80049,-4.91554 -4.81012,-7.3228 -0.003,-0.71942 0.0164,-0.7276 1.71688,-0.7276 h 1.71979 V 384.94026 368.5361 h -5.28595 -5.28596 l -0.0719,5.09323 -0.0719,5.09323 -18.60727,0.0679 c -11.13843,0.0407 -18.78404,-0.031 -19.04764,-0.17851 -0.24223,-0.13555 -8.15073,-7.95798 -17.5745,-17.38318 l -17.1341,-17.13668 V 239.98085 135.86961 l 2.22999,-2.20009 c 1.2265,-1.21005 2.29806,-2.20009 2.38125,-2.20009 0.0832,0 0.15126,0.23813 0.15126,0.52917 0,0.51107 0.1764,0.52917 5.15938,0.52917 h 5.15937 v -9.39271 -9.39271 h -1.5875 -1.5875 v -5.04264 -5.04263 l 5.16493,-5.14383 5.16491,-5.14382 h 14.34348 14.34349 l 8.40515,-8.40513 8.40512,-8.40514 V 66.97263 57.3861 h 1.08479 c 1.48305,0 2.7645,-1.24815 3.00443,-2.92637 0.0923,-0.64607 0.13279,-20.819984 0.0899,-44.8309189 -0.0634,-35.4594801 -0.14333,-43.7706801 -0.42566,-44.2657201 -0.77666,-1.36169 -1.73258,-1.63743 -5.68016,-1.6385 -2.55495,-6.9e-4 -3.91594,0.11158 -4.54649,0.37504 -1.86436,0.77898 -1.72887,-2.86182 -1.72887,46.45522 0,39.152449 0.0478,44.568779 0.39963,45.249049 0.48045,0.92913 1.22563,1.37111 2.64308,1.56771 l 1.05833,0.14678 0.0465,8.59896 0.0465,8.59896 -7.31626,7.34218 -7.31626,7.34219 h -14.29545 -14.29547 l -6.28218,6.26743 -6.28219,6.26743 v 5.90341 5.9034 h -1.5875 -1.5875 v 5.7877 5.7877 l -4.36562,4.37261 c -2.4011,2.40493 -4.3665,4.5332 -4.36759,4.72949 0,0.19628 -0.003,47.86203 0,105.9239 v 105.56701 l 18.45501,18.45643 18.45498,18.45641 h 19.77831 19.77832 v 9.26041 9.26042 h 1.5875 1.5875 v 2.48552 2.48553 l 5.88698,5.84649 5.88698,5.8465 23.57376,0.003 23.5738,0.003 5.06386,-5.09323 z m -18.97343,-7.5094 4.13382,-4.12557 5.58961,0.0434 5.58962,0.0434 v -16.41782 -16.41782 h -5.29167 -5.29166 v 13.19024 13.19022 l -5.31808,5.33062 -5.31809,5.33058 h -8.80092 -8.80091 l -1.22685,-1.31159 -1.22682,-1.31156 v -22.70162 -22.7016 l -5.82083,-5.81633 -5.82083,-5.81634 v -8.06606 -8.06609 l 3.83566,-3.84244 c 2.1096,-2.11333 3.90234,-3.91866 3.98383,-4.01185 0.0815,-0.0932 0.17116,-6.64159 0.19923,-14.55208 l 0.0511,-14.38264 4.16718,-0.0729 4.16719,-0.0729 v -3.30057 -3.30057 h 6.61458 6.61459 v 3.30729 3.3073 h 10.31875 10.31875 v -8.73125 -8.73125 h -10.31875 -10.31875 v 3.30729 3.30729 h -6.61459 -6.61458 v -3.30729 -3.30729 h -10.31878 -10.31875 v 8.73125 8.73125 h 4.10104 4.10104 v 13.65765 13.65766 l -1.89825,1.9507 c -1.04402,1.07288 -1.94609,1.90285 -2.00453,1.84438 -0.0585,-0.0585 -0.127,-1.87325 -0.1523,-4.03283 l -0.046,-3.92652 -5.22552,-0.0717 -5.22552,-0.0718 v 16.40978 16.40975 h 3.76796 3.76793 l 5.36019,5.3554 5.36017,5.35538 v 22.72083 22.72083 l 2.05052,2.11965 c 1.12779,1.16584 2.36075,2.25349 2.73989,2.41703 0.48051,0.20724 3.7673,0.27572 10.84792,0.22598 l 10.15854,-0.0713 z M 237.67068,384.94026 V 368.5361 h -1.5875 -1.5875 v -9.92188 -9.92187 h 1.5875 1.5875 v -16.40417 -16.40417 h -1.5875 c -0.87313,0 -1.5875,-0.0554 -1.5875,-0.12324 0,-0.0678 1.8157,-1.94302 4.03489,-4.16719 l 4.0349,-4.04394 12.02176,-0.0534 12.02177,-0.0534 3.06345,-3.05549 3.06345,-3.05546 h 18.67964 c 18.49702,0 18.68641,-0.005 19.37673,-0.54837 l 0.69715,-0.54838 V 284.1785 268.12184 l -5.4226,-5.41776 -5.42264,-5.4178 -0.0675,-76.66595 -0.0675,-76.66596 -15.80079,-15.80968 -15.80078,-15.80967 -0.0198,-7.14375 c -0.0111,-3.92906 -0.0145,-7.29258 -0.008,-7.47448 0.007,-0.19409 0.36714,-0.33114 0.87178,-0.33172 1.10204,-10e-4 2.51944,-0.86446 2.85086,-1.73615 0.16388,-0.43103 0.25799,-16.891633 0.25799,-45.124469 0,-49.28337 0.13547,-45.64589 -1.72886,-46.42486 -0.62789,-0.26235 -1.98631,-0.37603 -4.49345,-0.37603 -3.93864,0 -4.69511,0.20447 -5.57847,1.50783 -0.4875,0.71927 -0.50464,2.0212 -0.58145,44.1328001 -0.0435,23.8654109 -0.004,44.0256989 0.0877,44.8006389 0.22984,1.94159 1.14795,2.95816 2.8443,3.14936 l 1.2482,0.14069 v 7.43625 7.43625 l -3.23718,3.24496 -3.23718,3.24497 h -6.3052 c -3.46787,0 -6.50891,0.109 -6.75783,0.24222 -0.95047,0.50867 -5.85568,5.67227 -5.89944,6.21019 -0.0249,0.30747 -0.027,11.19088 -0.004,24.18535 l 0.0412,23.6263 2.16175,2.10443 2.16175,2.10442 h 2.46846 c 2.29205,0 2.46845,0.0378 2.46845,0.52917 0,0.52024 0.1764,0.52917 10.45943,0.52917 h 10.45946 l -0.0746,-3.10886 -0.0745,-3.10885 -10.38489,-0.0692 c -10.25142,-0.0683 -10.3849,-0.0624 -10.3849,0.46302 0,0.45268 -0.18785,0.53851 -1.25677,0.57416 -2.00514,0.0669 -2.21115,0.002 -3.14722,-0.99048 l -0.88819,-0.94116 V 108.84647 86.52575 l 1.71203,-1.73753 1.71207,-1.73752 h 6.53423 6.53426 l 3.53356,-3.49895 3.53356,-3.49894 14.81077,14.809 14.81076,14.80899 v 76.5837 76.5837 l 5.55625,5.57821 5.55625,5.57821 v 13.53524 13.53524 l -0.85989,0.0829 c -0.47294,0.0456 -8.03341,0.0513 -16.80104,0.0127 l -15.94115,-0.0702 v -26.25982 -26.25982 l -3.30729,-3.29935 c -1.81901,-1.81465 -3.30729,-3.39042 -3.30729,-3.50176 0,-0.11131 1.78594,-0.20241 3.96875,-0.20241 h 3.96875 v -5.15937 -5.15938 l -16.33802,2.1e-4 -16.33802,2.2e-4 v 5.15929 5.1593 l 1.32148,-1.3e-4 1.32152,-1.4e-4 -9.25759,9.26042 -9.25758,9.26042 h -8.0691 -8.06908 l -6.02139,6.0171 -6.02139,6.01712 v 16.55628 16.55628 l -5.05422,5.07558 -5.05426,5.07555 h -14.62413 c -8.04328,0 -14.99605,-0.0744 -15.45063,-0.16528 -0.6404,-0.12809 -3.20921,-2.54858 -11.41016,-10.75132 l -10.58368,-10.586 v -45.64451 -45.64449 l 2.82903,-2.87088 2.82903,-2.87087 h 8.15118 8.15118 v -10.31875 -10.31875 h -4.63021 -4.63021 v -7.40834 -7.40833 h 1.45521 1.45521 v -9.26042 -9.26041 h -5.16464 -5.16464 l 0.0175,9.26041 0.0175,9.26042 h 1.57538 1.57541 v 7.40833 7.40834 l -2.05052,-1.9e-4 -2.05052,-1.9e-4 0.0774,7.96709 0.0774,7.96708 -4.24458,4.29544 -4.2446,4.29544 v 47.47631 47.47633 l 11.83947,11.83114 11.83944,11.83113 h 17.09481 17.0948 l 6.0569,-6.0906 c 3.33126,-3.34984 6.09354,-6.13489 6.13836,-6.18898 0.0448,-0.0541 0.0713,-7.51247 0.0588,-16.57416 l -0.0228,-16.47579 4.95916,-4.98419 4.95919,-4.98419 h 8.08601 8.08604 l 11.23373,-11.2448 11.23371,-11.24479 h 5.02822 5.02825 l 4.4346,4.42886 4.4346,4.42884 v 25.92736 25.92735 l -2.57471,2.58442 -2.57474,2.58442 H 252.8488 240.89688 l -5.31712,5.33157 c -4.79346,4.80647 -5.31712,5.41882 -5.31712,6.21771 v 0.88614 h -1.5875 -1.5875 v 16.40416 16.40417 h 1.5875 1.5875 v 9.92188 9.92187 h -1.5875 -1.5875 v 16.40417 16.40416 h 5.29167 5.29166 v -16.40416 z m 81.30201,7.76915 c 1.622,-0.81965 2.33479,-1.529 3.23424,-3.21866 0.58277,-1.09471 0.65958,-1.56323 0.65958,-4.0233 0,-2.38964 -0.0844,-2.93812 -0.59532,-3.86916 -0.92683,-1.689 -1.8615,-2.63875 -3.32832,-3.38204 l -1.35043,-0.68432 h -9.02203 c -5.85346,0 -9.2062,0.0986 -9.54646,0.28067 -1.14054,0.61039 -1.11456,2.81091 0.0405,3.42908 0.28647,0.1533 3.90459,0.259 8.86643,0.259 h 8.38245 l 1.30527,0.95814 1.30527,0.95816 -0.0535,1.83152 c -0.0497,1.70284 -0.12224,1.909 -1.03225,2.93444 l -0.97877,1.10295 -8.43963,0.0872 c -4.64182,0.048 -8.7154,0.14603 -9.0524,0.21786 -1.33435,0.28451 -1.61703,2.81056 -0.3941,3.522 0.30769,0.17899 3.70586,0.28075 9.54845,0.28594 l 9.07079,0.008 1.38025,-0.69752 z m 3.33713,-21.63464 c 0.7565,-0.68492 0.75679,-2.27531 0,-2.96068 -0.49022,-0.44426 -1.07053,-0.51398 -4.89479,-0.58799 l -4.33864,-0.084 v -3.16598 c 0,-2.8226 -0.0693,-3.30274 -0.63875,-4.42653 -1.97173,-3.89101 -6.39062,-5.41877 -10.15056,-3.50938 -1.80483,0.91654 -2.67483,1.79914 -3.60203,3.65424 -0.6567,1.31382 -0.68972,1.58128 -0.68602,5.55625 0.003,2.81744 0.11195,4.38946 0.33595,4.83222 0.6654,1.31506 0.85682,1.33435 12.53109,1.26267 10.28223,-0.0631 10.91742,-0.0948 11.44322,-0.57087 z m -20.08081,-6.2277 c 0,-2.19666 0.0916,-2.78601 0.55531,-3.57188 l 0.5553,-0.94118 h 2.33352 2.33355 l 0.52115,0.8599 c 0.45754,0.75499 0.50429,1.19078 0.38306,3.57188 l -0.13806,2.71197 h -3.27192 -3.27191 z m 19.68444,-14.33846 c 0.36267,-0.16524 0.72239,-0.46469 0.79944,-0.66546 0.077,-0.20076 0.15055,-1.82176 0.16335,-3.60219 0.019,-2.64557 -0.0779,-3.52714 -0.53067,-4.82397 -1.37631,-3.94255 -6.04856,-6.49004 -11.88183,-6.47845 -4.10215,0.008 -7.3596,1.18509 -9.7654,3.5283 -1.19473,1.16363 -1.49511,1.6682 -2.06272,3.46482 -1.05698,3.3455 -0.7975,7.84387 0.50004,8.66884 0.53305,0.3389 22.02256,0.2522 22.77779,-0.0919 z m -19.68444,-5.16859 c 0,-0.8192 0.27278,-1.82753 0.80938,-2.99169 0.80283,-1.7417 0.82434,-1.76181 2.64073,-2.46849 2.70203,-1.05124 5.78094,-1.01245 9.32294,0.11748 l 2.60173,0.83 0.77927,1.54371 c 0.55468,1.09879 0.77928,1.9272 0.77928,2.87419 v 1.33046 h -8.46667 -8.46666 z m 20.10833,-15.96226 c 0.32758,-0.32758 0.52917,-0.88193 0.52917,-1.4552 0,-0.57328 -0.20159,-1.12763 -0.52917,-1.45521 -0.51239,-0.51239 -0.88194,-0.52917 -11.65905,-0.52917 -6.75396,0 -11.32017,0.10184 -11.61386,0.259 -0.78869,0.42209 -1.12945,1.76657 -0.67196,2.65126 0.2122,0.41037 0.53716,0.80698 0.72213,0.88141 0.18494,0.0744 5.36667,0.1447 11.51493,0.15621 10.84043,0.0201 11.19465,0.005 11.70781,-0.5083 z m -131.71312,-26.11075 3.65479,-3.64778 v -16.57765 -16.57766 l 8.3633,-8.35154 8.36332,-8.35158 7.57957,-0.0774 7.57957,-0.0775 2.84488,-2.86602 c 1.56466,-1.57631 2.96285,-3.08652 3.1071,-3.35605 0.16074,-0.30033 0.26226,-4.58544 0.26226,-11.07038 v -10.58041 l 0.83508,-0.83508 c 1.70873,-1.70873 -0.22979,-1.58927 25.51715,-1.57247 12.94326,0.008 23.7281,-0.0594 23.96628,-0.15081 0.23818,-0.0914 0.56454,-0.48506 0.72528,-0.87479 0.21018,-0.50956 0.2727,-12.82098 0.22267,-43.83567 l -0.0696,-43.12708 -5.56863,-5.50741 c -3.06274,-3.02907 -5.74164,-5.61686 -5.95312,-5.75063 -0.21149,-0.13378 -0.89051,-0.24506 -1.50898,-0.24728 -0.94673,-0.003 -1.12447,-0.0877 -1.12447,-0.53322 0,-0.52024 -0.1764,-0.52917 -10.45105,-0.52917 h -10.45104 v 3.175 3.175 h 10.45104 c 10.27465,0 10.45105,-0.009 10.45105,-0.52916 0,-0.37163 0.17639,-0.52917 0.59248,-0.52917 0.41336,0 1.9331,1.33889 5.02708,4.42885 l 4.4346,4.42885 v 41.21178 41.21177 h -23.1716 -23.17157 l -2.18734,2.05052 c -1.203,1.12778 -2.32486,2.32402 -2.49298,2.65829 -0.21579,0.42903 -0.30702,3.73566 -0.31028,11.2448 l -0.004,10.63701 -1.81848,1.7993 -1.81848,1.7993 -7.39007,0.008 c -4.06456,0.004 -7.55185,0.10792 -7.74957,0.23011 -0.67567,0.41759 -19.0496,18.90704 -19.05738,19.17718 -0.004,0.14822 0,7.58624 0.008,16.52895 l 0.0153,16.25949 -2.58236,2.59207 -2.58236,2.5921 h -9.81525 -9.81522 l -6.59389,-6.54844 c -3.62665,-3.60164 -6.8021,-6.8461 -7.05657,-7.2099 -0.43323,-0.61933 -0.46239,-2.37529 -0.45813,-27.58281 l 0.005,-26.92135 h 3.43472 3.43469 v -4.23334 -4.23333 h 2.18694 2.18696 l 3.11251,-3.12063 3.1125,-3.12066 -0.007,-42.983 c -0.004,-23.64065 -0.007,-43.10693 -0.008,-43.25839 0,-0.15146 -1.78543,-2.05646 -3.967,-4.23333 l -3.96677,-3.95792 -0.003,-5.88698 -0.003,-5.88698 h -5.15937 -5.15938 v 9.39271 9.39271 h 5.15938 c 4.98297,0 5.15937,-0.0181 5.15937,-0.52917 0,-0.29104 0.062,-0.52917 0.13785,-0.52917 0.0758,0 0.9688,0.85264 1.98438,1.89476 l 1.84652,1.89476 v 41.42484 41.42493 l -2.0443,2.05637 c -1.98107,1.99273 -2.08341,2.05636 -3.30729,2.05636 h -1.26299 v -4.2369 -4.23691 l -8.73779,0.0697 -8.73775,0.0697 v 10.31875 10.31875 l 3.31411,0.0741 3.31412,0.074 v 27.9817 27.9817 l 8.07336,8.05987 c 4.44035,4.43294 8.31715,8.1194 8.61513,8.19216 0.29797,0.0728 5.55733,0.10853 11.68746,0.0795 l 11.14571,-0.0528 3.65479,-3.64782 z m -4.81187,-19.13299 v -8.73125 h -4.23334 -4.23333 v -53.66391 -53.6639 l 5.29659,-5.23753 5.29658,-5.23754 -0.007,-26.33224 -0.007,-26.33225 3.69118,-3.66632 c 3.12939,-3.10815 3.81452,-3.66631 4.50048,-3.66631 0.63275,0 0.80915,0.11535 0.80915,0.52916 0,0.52024 0.1764,0.52917 10.45104,0.52917 h 10.45104 v -3.175 -3.175 h -10.45105 c -10.27465,0 -10.45104,0.009 -10.45104,0.52917 0,0.5311 -0.50279,0.66421 -2.04214,0.54061 -0.32282,-0.0259 -0.79838,0.0712 -1.05677,0.21582 -0.25842,0.14461 -2.58392,2.37658 -5.16776,4.95994 l -4.69792,4.697 v 26.24111 26.24111 l -5.29166,5.29502 c -3.11103,3.11299 -5.29231,5.49994 -5.29323,5.7923 0,0.27351 -0.0306,24.78604 -0.0662,54.47229 l -0.0646,53.975 -4.0349,0.073 -4.03489,0.073 v 8.72434 8.72438 h 10.31875 10.31875 z m 117.3427,0.005 v -8.72604 l -5.42396,-0.0714 -5.42396,-0.0714 -0.13229,-83.40931 -0.13229,-83.40932 -7.47432,-7.47506 -7.47432,-7.47506 -3.83662,-0.0857 c -3.58161,-0.08 -3.83661,-0.11954 -3.83661,-0.59531 0,-0.49454 -0.30981,-0.50965 -10.45105,-0.50965 h -10.45104 v 3.175 3.175 h 10.45104 c 10.27465,0 10.45105,-0.009 10.45105,-0.52916 0,-0.49814 0.17454,-0.52885 2.97656,-0.52362 l 2.97656,0.006 6.41657,6.42677 6.41657,6.42677 -0.0666,82.40153 -0.0666,82.40154 -2.84427,0.0751 -2.84427,0.0751 v 8.72228 8.72231 l 10.38489,5e-5 10.3849,6e-5 v -8.72607 z m -42.43102,-25.28065 c 4.21407,-1.43587 5.43216,-7.02114 2.22967,-10.22363 -1.16853,-1.16853 -2.48176,-1.6624 -4.39809,-1.65402 -1.3494,0.006 -1.96003,0.1455 -2.73698,0.62566 -2.1142,1.30667 -3.02585,2.6882 -3.25797,4.93721 -0.26922,2.60831 1.08508,4.97424 3.48774,6.09306 1.54942,0.72152 3.00611,0.79058 4.67563,0.22172 z m -38.1346,-26.45069 v -5.15937 h -16.27188 -16.27187 v 1.45521 c 0,0.80036 -0.0921,1.45521 -0.20466,1.45521 -0.11255,0 -1.12567,-0.92647 -2.25136,-2.05881 l -2.04671,-2.0588 0.007,-27.11151 0.007,-27.11151 4.0274,-4.0349 4.02739,-4.03489 h 1.65684 c 1.48045,0 1.65685,0.0563 1.65685,0.52916 0,0.52025 0.1764,0.52917 10.45943,0.52917 h 10.45945 l -0.0746,-3.10885 -0.0745,-3.10886 -10.36608,-0.0692 -10.36611,-0.0692 -0.0849,0.59837 c -0.0812,0.5719 -0.19325,0.59852 -2.53341,0.60198 l -2.44848,0.004 -5.15829,5.15322 -5.15832,5.15321 v 28.97839 28.97839 l 3.24115,3.22148 c 2.75015,2.73344 3.38142,3.23387 4.16718,3.3033 0.91671,0.081 0.92652,0.0952 0.97296,1.40478 0.0257,0.7276 0.0555,1.41221 0.0662,1.52135 0.0106,0.10914 7.34157,0.19844 16.29111,0.19844 h 16.27187 v -5.15937 z m 0,-26.45833 v -5.15909 h -6.61459 -6.61458 V 189.41318 178.0361 h 4.24172 4.24175 l -0.0746,-3.10886 -0.0745,-3.10885 -10.3849,-0.0692 -10.38489,-0.0692 v 3.17807 3.17807 h 4.23333 4.23333 v 11.37708 11.37709 h -7.67291 -7.67292 v 5.15937 5.15938 h 16.27188 16.27187 z m 52.65208,0 v -5.15938 h -7.14375 -7.14375 V 189.41318 178.0361 h 4.24172 4.24175 l -0.0746,-3.10886 -0.0745,-3.10885 -10.38489,-0.0692 -10.3849,-0.0692 v 3.17807 3.17807 h 4.23334 4.23333 v 11.37708 11.37709 h -7.12814 c -3.92046,0 -7.17068,0.0893 -7.22268,0.19843 -0.052,0.10915 -0.0477,2.43086 0.01,5.15938 l 0.10417,4.96094 h 16.24666 16.24663 v -5.15938 z m -5.87859,-44.25156 -0.0745,-3.10886 -10.38489,-0.0692 -10.3849,-0.0692 v 0.66453 0.66453 h -6.00302 -6.00303 l -4.84489,-4.81926 -4.84489,-4.81926 -0.005,-36.52189 -0.005,-36.52188 -2.50785,-2.51354 -2.50783,-2.51354 v -7.34219 -7.34219 h 0.90882 c 1.36104,0 2.20633,-0.41821 2.79424,-1.38247 0.52175,-0.85574 0.52829,-1.35368 0.52829,-40.157112 0,-38.439007 -0.0111,-39.308897 -0.51401,-40.133637 -0.2827,-0.46365 -0.74234,-0.96519 -1.02137,-1.11453 -0.27905,-0.14934 -2.30068,-0.28671 -4.49251,-0.30528 -4.52202,-0.0383 -5.21605,0.14877 -5.9421,1.60167 -0.4341,0.86869 -0.46265,3.31458 -0.46302,39.68894 -2.6e-4,23.132244 0.0989,39.109489 0.24585,39.621959 0.40617,1.41614 1.47305,2.18046 3.04364,2.18046 h 0.94342 v 8.27693 8.27692 l 2.64851,2.67268 2.64853,2.67269 -0.008,36.47618 -0.008,36.47619 5.77234,5.75546 5.77233,5.75545 h 6.93317 c 6.75675,0 6.93314,0.0135 6.93314,0.52917 0,0.52024 0.1764,0.52916 10.45943,0.52916 h 10.45946 l -0.0746,-3.10885 z m -51.53599,-13.29503 v -3.175 h -10.45104 -10.45104 v 3.175 3.175 h 10.45104 10.45104 z m 51.53599,0.0662 -0.0745,-3.10885 -10.38489,-0.0692 c -10.14402,-0.0676 -10.3849,-0.0572 -10.3849,0.44681 0,0.66698 -1.44079,0.90215 -4.74157,0.77395 l -2.40001,-0.0932 -3.17423,-3.175 -3.17421,-3.175 -0.006,-30.14709 -0.006,-30.1471 3.84083,-3.87171 3.84082,-3.87172 v -7.32233 -7.32234 h 0.94343 c 1.46894,0 2.53693,-0.69981 3.02429,-1.98167 0.17338,-0.45604 0.26561,-14.200355 0.26561,-39.583622 0,-41.925257 0.0604,-40.091817 -1.35384,-41.082407 -0.50792,-0.35594 -1.36877,-0.43146 -4.91832,-0.43146 h -4.30257 l -0.86408,0.77202 -0.86407,0.77203 -0.0666,39.64307 c -0.066,39.252739 -0.0614,39.651619 0.46315,40.509579 0.58962,0.96441 1.43505,1.38246 2.79569,1.38246 h 0.90882 v 6.4197 6.41968 l -3.70417,3.69708 -3.70416,3.69708 v 32.29348 32.29347 l 4.18586,4.15642 4.18584,4.15643 h 4.41312 c 4.23669,0 4.41309,0.0211 4.41309,0.52916 0,0.52025 0.1764,0.52917 10.45943,0.52917 h 10.45946 z m -51.59375,-13.22917 -0.0745,-3.10885 -10.3849,-0.0692 -10.38489,-0.0692 v 3.17807 3.17807 h 10.45942 10.45946 z m 0,-13.22916 -0.0745,-3.10886 -10.3849,-0.0692 -10.38489,-0.0692 v 3.17807 3.17807 h 10.45943 10.45945 z m 0,-13.22917 -0.0745,-3.10885 -10.3849,-0.0692 -10.38489,-0.0692 v 3.17807 3.17807 h 10.45943 10.45945 z m 51.59375,0 -0.0745,-3.10885 -10.38489,-0.0692 -10.3849,-0.0692 v 3.17807 3.17807 h 10.45943 10.45946 z m 75.99317,81.16094 V -57.972229 H 461.50817 577.66025 V 189.94235 437.85693 H 461.50817 345.35609 Z m 72.69247,226.81406 c 1.04688,-2.72852 3.33592,-8.6468 5.08672,-13.15172 1.75083,-4.50493 3.18331,-8.22563 3.18331,-8.26823 0,-0.0426 -0.92274,-0.0768 -2.05052,-0.0761 l -2.05052,0.003 -1.3597,3.50435 c -0.74784,1.92741 -3.0398,7.82757 -5.09323,13.11148 -2.05345,5.28389 -3.73353,9.65944 -3.73353,9.72344 0,0.064 0.92564,0.11634 2.057,0.11634 h 2.05703 l 1.90344,-4.96094 z m 10.76462,3.83646 c 0.80413,-1.9734 5.17343,-13.18414 6.36765,-16.33802 0.63365,-1.67349 1.68646,-4.38682 2.33953,-6.02959 l 1.18742,-2.98691 -2.12378,0.0765 -2.12379,0.0765 -0.35628,0.92604 c -1.52752,3.97015 -8.48562,21.95502 -9.08476,23.48177 l -0.75277,1.91823 h 2.0443 2.04428 z m -58.81896,-2.98781 c 1.43351,-0.50578 2.79138,-1.76533 3.43355,-3.185 0.43725,-0.9666 0.49083,-1.89418 0.51197,-8.86354 l 0.0236,-7.78396 -2.25375,-0.0763 -2.25375,-0.0763 -0.0775,7.83902 -0.0775,7.83905 -0.62463,0.50546 c -0.83233,0.67357 -2.46565,0.65098 -3.87641,-0.0536 l -1.11943,-0.55907 -1.5554,0.98796 c -0.85545,0.54337 -1.60547,1.03354 -1.66667,1.08926 -0.19399,0.17664 1.13784,1.45592 1.96165,1.88428 1.29707,0.67445 2.00848,0.81415 4.26794,0.83805 1.31699,0.014 2.59758,-0.13531 3.30629,-0.38537 z m 24.57437,-1.43859 v -1.84671 l -5.49011,-0.0715 -5.4901,-0.0715 -0.0768,-2.18281 -0.0769,-2.18281 h 4.64093 c 3.52237,0 4.64719,-0.0797 4.66706,-0.33073 0.0257,-0.32356 0.0161,-3.03649 -0.0119,-3.45054 -0.008,-0.11515 -2.06807,-0.19338 -4.5783,-0.17386 l -4.56406,0.0355 -0.0764,-2.27354 -0.0765,-2.27354 h 5.56657 5.56654 v -1.85208 -1.85209 h -7.67291 -7.67292 v 10.18646 10.18646 h 7.67292 7.67291 v -1.84671 z m 11.45069,1.31678 c 1.51553,-0.56703 2.47817,-1.4237 3.26961,-2.90965 0.44419,-0.83394 0.50123,-1.72215 0.5737,-8.92969 l 0.0804,-8.00365 h -2.24835 -2.24837 l -0.0811,7.6962 -0.081,7.69618 -0.74236,0.6382 c -0.95565,0.82156 -2.51685,0.84775 -3.90854,0.0656 l -1.0188,-0.57259 -1.66307,1.01219 c -0.91469,0.55674 -1.72259,1.06442 -1.79535,1.12821 -0.26353,0.23101 1.93918,1.90069 3.0068,2.2792 1.66521,0.5904 5.1466,0.53952 6.85639,-0.10019 z m 105.9607,-4.56579 5.09069,-5.09571 v -32.14738 -32.1474 l -4.36563,-4.35962 -4.36562,-4.35962 v -9.46184 -9.46188 h -5.29167 -5.29166 v 16.40417 16.40417 h 5.29166 5.29167 v -4.02939 -4.02937 l 2.38125,2.37022 2.38125,2.37021 v 30.43592 30.4359 l -3.90261,3.86479 -3.9026,3.8648 -21.92708,0.057 -21.9271,0.057 -4.10028,-4.05736 c -3.97896,-3.93734 -4.108,-4.0378 -4.36099,-3.39592 -0.14341,0.3638 -0.50909,1.23243 -0.81259,1.93032 l -0.55184,1.26883 4.08257,4.08898 4.08258,4.08895 h 23.55365 23.55366 z m -18.88141,-7.52361 4.26064,-4.15263 5.4901,0.0695 5.49011,0.0695 v -16.42203 -16.42202 h -5.29167 -5.29166 v 13.16066 13.16064 l -5.35541,5.3602 -5.35538,5.36016 h -8.72458 -8.72458 l -1.26587,-1.24682 -1.26585,-1.24682 v -22.76636 -22.76637 l -5.82083,-5.81633 -5.82084,-5.81634 v -8.07535 -8.07534 l 3.96875,-3.96214 3.96875,-3.96214 0.0262,-12.96789 c 0.0271,-13.42424 0.13422,-15.85465 0.70143,-15.91138 0.1819,-0.0183 1.99761,-0.0479 4.0349,-0.0661 l 3.70417,-0.0331 v -3.3073 -3.30729 h 6.61458 6.61458 v 3.30729 3.3073 h 10.31875 10.31875 v -8.73125 -8.73125 h -10.31875 -10.31875 v 3.30729 3.30729 h -6.61458 -6.61458 v -3.30729 -3.30729 H 461.5082 451.18945 v 8.73125 8.73125 h 4.10104 4.10104 v 13.6988 13.69883 l -1.98438,1.97111 -1.98437,1.97112 v -4.16054 -4.16058 h -5.29167 -5.29166 v 16.40417 16.40417 h 3.76795 3.76794 l 5.36019,5.3554 5.36017,5.35538 v 22.78502 22.78501 l 2.37207,2.28667 2.37206,2.28668 h 10.49907 10.49906 l 4.26064,-4.15266 z m -41.73759,0.97766 c 0.41664,-1.10349 0.45122,-3.6387 0.072,-5.28431 -0.48819,-2.11862 -1.74742,-4.40364 -2.75405,-4.99755 -1.07667,-0.63527 -3.45954,-1.387 -3.68425,-1.16232 -0.0854,0.0854 -0.15528,1.56419 -0.15528,3.28621 v 3.13089 h 1.5875 1.5875 v 2.47983 2.47986 l 1.2341,1.13755 1.23409,1.13755 0.26435,-0.64084 c 0.14539,-0.35246 0.42169,-1.05754 0.61402,-1.56687 z m 4.06177,-21.43125 v -16.40416 h -5.29166 -5.29167 v 5.15937 5.15938 H 425.9886 407.13778 L 389.74068,361.45928 372.34359,344.0637 V 239.93013 135.79663 l 2.30928,-2.22975 c 2.03655,-1.96641 2.31997,-2.15943 2.39967,-1.63443 0.0901,0.59384 0.10311,0.59532 5.23134,0.59532 h 5.14096 v -9.39271 -9.39271 h -1.5875 -1.5875 v -5.09075 -5.09075 l 5.09069,-5.09571 5.09069,-5.09571 h 14.42079 14.42083 l 8.40203,-8.39897 8.40205,-8.39897 V 66.9788 57.3861 h 0.66995 c 1.06474,0 2.35289,-0.65656 2.91399,-1.48526 0.508,-0.75025 0.5171,-1.54627 0.5171,-45.213699 0,-41.39759 -0.031,-44.50659 -0.45135,-45.27421 -0.74245,-1.35572 -1.82674,-1.68933 -5.49074,-1.68933 -1.76895,0 -3.74444,0.13299 -4.38991,0.29553 -1.0591,0.26668 -1.20611,0.40224 -1.50622,1.38906 -0.50425,1.65788 -0.48538,89.725479 0.0193,90.611249 0.38714,0.67931 1.78602,1.36666 2.78141,1.36666 0.914,0 0.9676,0.52577 0.9676,9.49019 v 7.83654 l -7.34041,7.34392 -7.34041,7.34393 h -14.29134 -14.29134 l -6.28179,6.28588 -6.28179,6.28588 v 5.88496 5.88495 h -1.5875 -1.5875 v 5.87082 5.87083 l -4.36562,4.41358 -4.36563,4.41359 v 105.80081 105.80084 l 18.45398,18.45538 18.45397,18.4554 h 19.7726 19.7726 l 0.0719,5.09323 0.0719,5.09323 1.4552,0.45815 c 3.93923,1.24023 5.21661,2.57482 6.33564,6.61945 0.3471,1.25452 0.34978,1.25677 1.50397,1.25677 h 1.15623 v -16.40417 z m 26.45834,0 v -16.40416 h -1.5875 -1.5875 v -9.92188 -9.92187 h 1.5875 1.5875 v -16.40422 -16.40417 h -1.45521 c -0.93821,0 -1.45521,-0.11043 -1.45521,-0.31088 0,-0.17097 1.75101,-2.07597 3.89117,-4.23333 l 3.89115,-3.92245 h 12.05431 12.05429 l 3.02577,-3.03438 3.02575,-3.03437 18.83656,-0.0745 c 18.09543,-0.0715 18.85847,-0.0943 19.39337,-0.57851 0.55433,-0.50181 0.55679,-0.57486 0.55679,-16.53887 v -16.03486 l -5.42395,-5.41911 -5.42396,-5.41912 v -76.6001 -76.60011 L 528.84463,88.07777 512.83734,72.07211 V 67.151 c 0,-2.70661 0.0774,-6.01096 0.17189,-7.34301 0.16518,-2.32697 0.19664,-2.42189 0.80227,-2.42189 0.98952,0 2.38874,-0.68914 2.77485,-1.36666 0.28911,-0.50733 0.35203,-8.53724 0.35203,-44.935419 0,-29.88381 -0.0898,-44.6624 -0.2757,-45.37604 -0.40074,-1.53818 -1.15244,-1.82052 -5.1589,-1.93766 -4.18467,-0.12234 -5.29293,0.14554 -6.12259,1.4799 l -0.61365,0.98692 v 44.46143 c 0,42.619319 0.0201,44.492009 0.48361,45.199699 0.52554,0.80231 1.88359,1.48783 2.94748,1.48783 h 0.66996 v 7.47845 7.47845 l -3.24115,3.22419 -3.24115,3.22419 -6.55801,0.0791 -6.55802,0.0791 -2.90084,2.93366 -2.90083,2.93366 v 24.02002 24.02002 l 2.1636,2.21663 2.1636,2.21663 h 2.2755 c 1.9481,0 2.34072,0.0761 2.72862,0.52917 0.43852,0.51217 0.7805,0.52917 10.65051,0.52917 h 10.19747 l -0.0746,-3.10886 -0.0745,-3.10885 -10.38489,-0.0692 c -9.01219,-0.0601 -10.3849,-0.0176 -10.3849,0.32142 0,0.84517 -2.0692,1.25254 -3.25853,0.64151 -0.31787,-0.1633 -0.90535,-0.6023 -1.30553,-0.97554 l -0.7276,-0.67863 V 108.87128 86.37217 l 1.646,-1.66076 1.64599,-1.66077 h 6.61869 6.61868 l 3.51068,-3.50344 3.51068,-3.50345 14.81526,14.8135 14.81526,14.81349 v 76.60013 76.60013 l 5.55625,5.55152 5.55625,5.55151 v 13.56228 13.56225 H 534.93004 518.129 v -26.25635 -26.25635 l -3.50205,-3.50928 -3.50205,-3.50927 h 4.16351 4.16351 v -5.15938 -5.15937 h -16.27188 -16.27187 v 5.15937 5.15938 h 1.25534 1.25537 l -9.25759,9.26042 -9.25758,9.26041 h -8.0691 -8.06908 l -6.02139,6.0171 -6.02139,6.01713 v 16.66835 16.66838 l -4.95831,4.96348 -4.95835,4.96348 h -15.47953 -15.47952 l -10.65067,-10.64826 -10.6507,-10.64824 v -45.76978 -45.76983 l 2.83975,-2.84859 2.83977,-2.8486 h 8.14044 8.14046 v -10.31875 -10.31875 h -4.63021 -4.63021 v -7.40833 -7.40833 h 1.45521 1.45521 v -9.26042 -9.26042 h -5.15938 -5.15937 v 9.26042 9.26042 h 1.5875 1.5875 v 7.40833 7.40833 h -1.98438 -1.98437 v 8.00675 8.00675 l -4.23333,4.22713 -4.23334,4.22713 v 47.4969 47.49692 l 11.84119,11.83902 11.84119,11.83899 h 17.07634 17.07634 l 6.1382,-6.15156 6.13818,-6.15157 0.003,-16.53391 0.003,-16.53392 4.95831,-4.96348 4.95835,-4.96348 h 8.07355 8.07357 l 11.24247,-11.24479 11.24246,-11.24479 h 5.02542 5.02541 l 4.4346,4.42886 4.4346,4.42883 v 25.92737 25.92734 l -2.57471,2.58442 -2.57474,2.58443 h -11.91381 -11.91382 l -4.92212,4.96094 c -5.25085,5.29224 -5.78829,5.93031 -5.78829,6.87189 0,0.56009 -0.11192,0.60258 -1.5875,0.60258 h -1.5875 v 16.40417 16.40417 h 1.5875 1.5875 v 9.92187 9.92188 h -1.5875 -1.5875 v 16.40416 16.40417 h 5.29166 5.29167 v -16.40417 z m 81.6362,7.53497 c 1.5081,-0.93284 2.89454,-2.63729 3.28298,-4.03593 0.15052,-0.54203 0.27368,-1.87846 0.27368,-2.96987 0,-1.09141 -0.12316,-2.42784 -0.27368,-2.96987 -0.38849,-1.39888 -1.77501,-3.10319 -3.28332,-4.03593 l -1.29273,-0.79941 h -9.50105 c -9.19271,0 -9.51389,0.0172 -9.89693,0.52917 -0.44074,0.58915 -0.33811,2.37199 0.16558,2.87631 0.20595,0.20622 2.96238,0.3234 8.90283,0.37851 l 8.60451,0.0798 1.30451,0.93721 1.3045,0.93718 v 1.65693 c 0,1.47918 -0.0972,1.78419 -0.90583,2.84324 l -0.90583,1.18633 -4.42809,0.17463 c -2.43546,0.0961 -6.30634,0.17465 -8.60195,0.17465 -2.29563,0 -4.47286,0.11369 -4.8383,0.25262 -0.47001,0.1787 -0.71469,0.52041 -0.83611,1.16764 -0.24678,1.3154 0.0503,1.97509 1.01989,2.26491 0.47688,0.14253 4.70252,0.23011 9.72804,0.20164 l 8.88492,-0.0504 z m 3.07404,-21.546 c 0.62195,-0.76806 0.62026,-1.9036 -0.004,-2.67452 -0.46641,-0.57597 -0.69795,-0.61026 -4.89479,-0.72511 l -4.40524,-0.12055 v -3.11044 c 0,-2.88896 -0.0525,-3.21088 -0.7372,-4.5216 -0.85564,-1.63785 -2.99554,-3.51247 -4.48025,-3.92477 -3.42916,-0.95229 -7.1656,0.59417 -8.91069,3.68802 -0.79512,1.40968 -0.82367,1.5739 -0.91225,5.24772 -0.13002,5.39428 0.0989,6.23155 1.82417,6.67227 0.5022,0.12829 5.66544,0.19624 11.47386,0.15097 l 10.56077,-0.0823 z m -20.1023,-6.16344 c 0.0762,-1.88476 0.24881,-2.97427 0.56597,-3.57188 l 0.45635,-0.8599 h 2.36765 c 2.35426,0 2.36995,0.005 2.77133,0.7806 0.28699,0.55502 0.40367,1.58737 0.40367,3.57188 v 2.79127 h -3.33729 -3.3373 z m 20.11058,-14.74864 c 0.49003,-0.60542 0.52501,-0.95264 0.42622,-4.23334 -0.0877,-2.91179 -0.21106,-3.80296 -0.66615,-4.81092 -1.24735,-2.76278 -4.18033,-4.86164 -7.88172,-5.64017 -6.82855,-1.43632 -13.61332,1.22706 -15.49747,6.08354 -0.52189,1.34524 -0.61788,2.08555 -0.62899,4.85124 l -0.0132,3.26374 0.75496,0.64971 0.75496,0.64971 11.10875,-0.077 11.10874,-0.077 0.53382,-0.65952 z m -20.10738,-4.8685 c 0.0701,-0.84584 0.43368,-2.05803 0.89265,-2.97656 0.71228,-1.42541 0.90154,-1.60239 2.36183,-2.2085 1.34919,-0.56002 2.00456,-0.65874 4.36562,-0.6576 2.32918,0 3.17987,0.12676 5.26421,0.77761 l 2.48607,0.77626 0.67258,1.46884 c 0.36988,0.80782 0.7244,2.09388 0.78782,2.85787 l 0.11528,1.38906 h -8.53221 -8.5322 z m 19.08434,-15.41499 c 1.17023,-0.19336 1.637,-0.99973 1.37798,-2.38048 -0.11946,-0.63683 -0.35674,-0.9089 -0.98309,-1.12723 -1.27098,-0.44308 -22.19449,-0.39519 -22.80631,0.0522 -0.52494,0.38383 -0.84228,2.25144 -0.47496,2.79527 0.13269,0.19642 0.64357,0.45212 1.13533,0.56822 1.06553,0.25154 20.29322,0.3329 21.75105,0.092 z m -130.72858,-26.48 3.64143,-3.63448 v -16.67388 -16.67386 l 8.26979,-8.26667 8.26976,-8.26664 h 7.54322 7.54322 l 3.17085,-3.17889 3.17087,-3.17886 0.0932,-10.9102 0.0931,-10.91017 1.30572,-1.12448 1.30569,-1.12448 h 23.75659 23.7566 l 0.58502,-0.62273 0.58502,-0.62275 -0.0759,-43.31309 -0.0759,-43.31311 -5.88859,-5.83938 -5.88859,-5.83939 -1.06178,0.16978 c -0.96329,0.15404 -1.08524,0.10807 -1.31474,-0.49561 l -0.25299,-0.66539 h -10.32529 -10.32531 v 3.175 3.175 h 10.17614 c 10.06163,0 10.18212,-0.006 10.70438,-0.56697 0.51774,-0.55573 0.54287,-0.55738 1.26709,-0.0833 0.40637,0.26604 2.55455,2.26642 4.77375,4.44528 l 4.03489,3.96157 v 41.23315 41.23315 h -23.21221 -23.21221 l -2.45237,2.44215 -2.45237,2.44219 v 10.85977 10.85977 l -1.93223,1.91931 -1.93222,1.91934 -7.50936,-0.0235 -7.50937,-0.0236 -9.47611,9.47338 -9.47613,9.47338 v 16.5331 16.53309 l -2.57471,2.58443 -2.57474,2.58442 h -9.79273 -9.79276 l -7.07941,-7.07578 -7.0794,-7.07575 v -27.0555 -27.05547 h 3.43958 3.43959 v -4.23333 -4.23334 h 2.18694 2.18696 l 3.1047,-3.11282 3.10473,-3.11282 v -43.25871 -43.25871 l -3.96873,-3.96213 -3.96875,-3.96214 v -5.89029 -5.89028 h -5.15937 -5.15938 v 9.39271 9.3927 h 5.14096 c 5.12898,0 5.1412,-0.001 5.22883,-0.59531 0.0786,-0.53244 0.29012,-0.4021 2.00279,1.23403 l 1.91492,1.82935 v 41.56942 41.5694 l -1.78594,1.74914 c -2.06261,2.02009 -2.5905,2.33772 -3.88522,2.33772 h -0.94342 v -4.23333 -4.23333 h -8.73125 -8.73125 v 10.45104 10.45104 h 3.30729 3.30729 v 28.00541 28.00543 l 8.19129,8.11019 8.19129,8.11022 h 11.58287 11.58291 l 3.64146,-3.63447 z m -4.82524,-19.11969 v -8.73125 h -4.23333 -4.23333 v -53.64676 -53.64675 l 5.29166,-5.2867 5.29167,-5.28671 v -26.36039 -26.36039 l 3.70726,-3.60615 c 3.87911,-3.77333 4.47186,-4.11364 5.35948,-3.07699 0.43852,0.51216 0.7805,0.52917 10.64213,0.52917 h 10.18905 v -3.175 -3.175 h -10.18905 c -9.86163,0 -10.20361,0.017 -10.64213,0.52917 -0.33978,0.39683 -0.78052,0.52916 -1.76231,0.52916 h -1.30924 l -4.9445,4.82865 -4.94451,4.82864 -0.0375,26.45597 -0.0375,26.45597 -5.29042,5.29515 -5.29043,5.29515 -0.004,54.3046 c -0.003,35.65576 -0.0937,54.31597 -0.26583,54.3377 -0.14414,0.0183 -0.38113,0.0628 -0.52665,0.0992 -0.14552,0.0364 -1.87193,0.0811 -3.83646,0.0992 l -3.57187,0.0331 v 8.73125 8.73125 h 10.31875 10.31875 v -8.73125 z m 117.21042,0 v -8.73125 h -5.42396 -5.42396 v -83.41599 -83.41599 l -7.6173,-7.60068 -7.6173,-7.60068 h -3.45472 c -3.07493,0 -3.52179,-0.0582 -4.06484,-0.52916 -0.5873,-0.50936 -0.98992,-0.52917 -10.75611,-0.52917 H 492.729 v 3.175 3.175 h 10.18905 c 9.86163,0 10.20361,-0.017 10.64213,-0.52917 0.39978,-0.46692 0.78052,-0.52916 3.23657,-0.52916 h 2.78349 l 6.41813,6.41412 6.41813,6.41412 v 82.48588 82.48588 h -2.91042 -2.91041 v 8.73125 8.73125 h 10.31875 10.31875 z m -42.5232,-25.2511 c 2.69079,-0.95996 4.15862,-2.995 4.15862,-5.76561 0,-1.75511 -0.38944,-2.86245 -1.44841,-4.11832 -1.98231,-2.35101 -5.49847,-2.71312 -8.21254,-0.84579 -2.1759,1.49706 -3.11102,4.9386 -1.97792,7.27934 1.4881,3.07399 4.56155,4.49165 7.48025,3.45038 z m -37.91013,-26.47495 v -5.15937 h -16.27188 -16.27187 v 1.32292 c 0,0.8958 -0.10893,1.32291 -0.33735,1.32291 -0.18555,0 -1.19758,-0.866 -2.24895,-1.92444 l -1.91162,-1.92445 V 198.93506 171.8246 l 4.0317,-4.038 4.03169,-4.038 h 1.51141 c 1.1644,0 1.57085,0.1063 1.77035,0.46302 0.2386,0.42661 1.07257,0.46892 10.60497,0.53808 l 10.34601,0.0751 -0.0746,-3.11777 -0.0746,-3.11777 -10.38489,-0.0737 -10.3849,-0.0737 v 0.69051 0.69051 l -2.52518,-0.0735 -2.52516,-0.0735 -5.14776,5.14267 -5.14773,5.14267 v 28.98849 28.9885 l 3.11235,3.07401 c 2.06594,2.04049 3.37804,3.1329 3.9026,3.24916 0.43463,0.0963 0.93909,0.22101 1.12099,0.27705 0.21243,0.0654 0.33073,0.62534 0.33073,1.5654 v 1.46352 h 16.27187 16.27188 z m 0,-26.45833 v -5.15938 h -6.61459 -6.61458 V 189.41318 178.0361 h 4.24172 4.24175 l -0.0746,-3.10886 -0.0745,-3.10885 -10.38489,-0.0692 -10.3849,-0.0692 v 3.17807 3.17807 h 4.23334 4.23333 v 11.37708 11.37709 h -7.67292 -7.67291 v 5.15937 5.15938 h 16.27187 16.27188 z m 52.65208,0 v -5.15938 h -7.14375 -7.14375 V 189.41318 178.0361 h 4.24172 4.24175 l -0.0746,-3.10886 -0.0745,-3.10885 -10.38489,-0.0692 -10.3849,-0.0692 v 3.17807 3.17807 h 4.23334 4.23333 v 11.37708 11.37709 h -7.14375 -7.14375 v 5.15937 5.15938 h 16.27187 16.27188 z m -5.87859,-44.25156 -0.0745,-3.10886 -10.38489,-0.0692 -10.3849,-0.0692 v 0.66453 0.66453 h -6.01665 -6.01668 l -4.83124,-4.82596 -4.83126,-4.82597 v -36.5204 -36.52041 l -2.51354,-2.50309 -2.51354,-2.50309 v -7.34742 -7.34741 l 0.85989,-5.3e-4 c 1.28074,-5.3e-4 2.64044,-0.79265 2.95161,-1.71938 0.3079,-0.9169 0.56836,-72.001199 0.28147,-76.812119 -0.15492,-2.59733 -0.25937,-3.08742 -0.7896,-3.70417 -0.60407,-0.70263 -0.65598,-0.71185 -4.52398,-0.80288 -4.40682,-0.10371 -5.68155,0.13892 -6.38722,1.21576 -0.43344,0.6614 -0.46665,3.13523 -0.53793,40.08493 l -0.076,39.380029 0.55986,0.78624 c 0.68329,0.9596 1.80769,1.572 2.88624,1.572 h 0.8069 v 8.27319 8.2732 l 2.64583,2.6359 2.64583,2.63591 v 36.51972 36.51972 l 5.75469,5.74295 5.75469,5.74296 6.82299,0.0756 c 4.59362,0.0509 6.88457,0.17072 7.01146,0.36668 0.10367,0.16008 0.36706,0.35904 0.58534,0.44213 0.21828,0.0831 4.89527,0.16047 10.39328,0.17196 l 9.99644,0.0209 -0.0746,-3.10885 z m -51.59375,-13.22917 -0.0745,-3.10885 -10.38489,-0.0692 -10.3849,-0.0692 v 3.17807 3.17807 h 10.45943 10.45946 z m 51.59375,0 -0.0745,-3.10885 -10.35325,-0.0692 c -9.89705,-0.0661 -10.35888,-0.0475 -10.48173,0.4222 -0.15357,0.58718 -1.58763,0.83761 -4.79671,0.83761 h -2.1422 l -3.37712,-3.36962 -3.37711,-3.36962 V 109.90639 80.00135 l 3.96875,-3.96214 3.96875,-3.96213 v -7.3455 -7.34549 h 0.88691 c 1.14348,0 2.5735,-0.97156 2.92076,-1.98438 0.34557,-1.0079 0.54428,-71.985439 0.21442,-76.585429 -0.32615,-4.54808 -0.0915,-4.37706 -6.00647,-4.37706 -5.91992,0 -5.67994,-0.17614 -6.00882,4.41008 -0.32488,4.53031 -0.12565,75.796379 0.21474,76.816999 0.30911,0.92677 1.66785,1.71876 2.94981,1.71938 l 0.8599,5.3e-4 v 6.41969 6.41969 l -3.70417,3.69708 -3.70416,3.69707 v 32.2797 32.27971 l 4.16409,4.17019 4.16409,4.1702 h 4.24376 c 3.91636,0 4.27873,0.0408 4.69688,0.52917 0.43852,0.51217 0.7805,0.52916 10.65051,0.52916 h 10.19747 l -0.0746,-3.10885 z M 462.03734,135.1736 v -3.175 H 451.5863 441.13525 v 3.175 3.175 h 10.45105 10.45104 z m 0,-13.22917 v -3.175 H 451.5863 441.13525 v 3.175 3.175 h 10.45105 10.45104 z m 0,-13.22916 v -3.175 H 451.5863 441.13525 v 3.175 3.175 h 10.45105 10.45104 z m 51.59375,0 v -3.175 H 503.18004 492.729 v 3.175 3.175 h 10.45104 10.45105 z"
         id="path195" />
      <rect
         style="fill:#ffffff;fill-opacity:1;fill-rule:evenodd;stroke-width:0.265967"
         id="rect317"
         width="10.500584"
         height="11.760423"
         x="444.92209"
         y="389.58401" />
      <rect
         style="fill:#ffffff;fill-opacity:1;stroke-width:0.264583"
         id="rect1524"
         width="4.2958426"
         height="4.766571"
         x="448.01437"
         y="401.34448" />
      <path
         style="fill:#ffffff;fill-opacity:1;stroke:none;stroke-width:0.265666px;stroke-linecap:butt;stroke-linejoin:miter;stroke-opacity:1"
         d="m 448.0144,406.30416 5.43926,5.2909 2.68789,-2.89986 -5.75303,-5.00462 -2.37412,2.61358 v 0"
         id="path1559" />
    </g>
  </g>
</svg>
