0
SECTION
2
HEADER
9
$INSUNITS
70
4
9
$ACADVER
1
AC1014
9
$HANDSEED
5
FFFF
0
ENDSEC
0
SECTION
2
TABLES
0
TABLE
2
VPORT
5
8
100
AcDbSymbolTable
0
ENDTAB
0
TABLE
2
LTYPE
5
5
100
AcDbSymbolTable
0
LTYPE
5
14
100
AcDbSymbolTableRecord
100
AcDbLinetypeTableRecord
2
BYBLOCK
70
0
0
LTYPE
5
15
100
AcDbSymbolTableRecord
100
AcDbLinetypeTableRecord
2
BYLAYER
70
0
0
ENDTAB
0
TABLE
2
LAYER
5
2
100
AcDbSymbolTable
70
2
0
LAYER
5
50
100
AcDbSymbolTableRecord
100
AcDbLayerTableRecord
2
0
70
0
6
CONTINUOUS
0
ENDTAB
0
TABLE
2
STYLE
5
3
100
AcDbSymbolTable
70
1
0
STYLE
5
11
100
AcDbSymbolTableRecord
100
AcDbTextStyleTableRecord
2
STANDARD
70
0
0
ENDTAB
0
TABLE
2
VIEW
5
6
100
AcDbSymbolTable
70
0
0
ENDTAB
0
TABLE
2
UCS
5
7
100
AcDbSymbolTable
70
0
0
ENDTAB
0
TABLE
2
APPID
5
9
100
AcDbSymbolTable
70
2
0
APPID
5
12
100
AcDbSymbolTableRecord
100
AcDbRegAppTableRecord
2
ACAD
70
0
0
ENDTAB
0
TABLE
2
DIMSTYLE
5
A
100
AcDbSymbolTable
70
1
0
ENDTAB
0
TABLE
2
BLOCK_RECORD
5
1
100
AcDbSymbolTable
70
1
0
BLOCK_RECORD
5
1F
100
AcDbSymbolTableRecord
100
AcDbBlockTableRecord
2
*MODEL_SPACE
0
BLOCK_RECORD
5
1B
100
AcDbSymbolTableRecord
100
AcDbBlockTableRecord
2
*PAPER_SPACE
0
ENDTAB
0
ENDSEC
0
SECTION
2
BLOCKS
0
BLOCK
5
20
100
AcDbEntity
100
AcDbBlockBegin
2
*MODEL_SPACE
0
ENDBLK
5
21
100
AcDbEntity
100
AcDbBlockEnd
0
BLOCK
5
1C
100
AcDbEntity
100
AcDbBlockBegin
2
*PAPER_SPACE
0
ENDBLK
5
1D
100
AcDbEntity
100
AcDbBlockEnd
0
ENDSEC
0
SECTION
2
ENTITIES
0
LWPOLYLINE
5
100
100
AcDbEntity
8
0
100
AcDbPolyline
90
40
70
1
43
0.0
10
-40.33266282648998
20
-75.267827638013912
42
-0.52425553522269019
10
-39.912157364451652
20
-74.659814257741502
10
-31.808909313256418
20
-74.659814257741502
10
-30.688824691902219
20
-75.032715470657934
42
0.41124009452638449
10
-28.372457301130606
20
-73.434860101624153
10
-26.187074359262642
20
-61.861083916957597
42
0.14233049418450652
10
-26.325065674285028
20
-60.430149140667581
10
-27.102959734628342
20
-58.476311720822281
10
-10.407034256499902
20
-58.476311720822281
10
-9.0785602365389391
20
-59.078054606821269
10
-8.8792598658652757
20
-62.541838271633914
42
-0.1416663661508358
10
-9.779744489531236
20
-66.494673656943974
42
0.053554116929525053
10
-12.130921513380919
20
-72.080028248981876
10
-13.595784198907001
20
-76.963333129358688
42
0.50238931279019705
10
-9.0154994513474591
20
-83.119220725646386
10
-3.7715265847958102
20
-83.119220725646272
42
-0.70082694629216469
10
-3.6441378012324344
20
-83.470125579707428
42
-0.14803493148545327
10
-8.9814086558557715
20
-85.742650217235365
42
0.30970777078108236
10
-10.603437060694908
20
-87.134793604722987
10
-11.722914348484641
20
-91.328817413663074
10
-13.702835505848341
20
-93.321125640248383
10
-15.24783956529734
20
-93.321125640248383
10
-13.129020726614176
20
-85.534457329907084
10
-66.117608991091032
20
-85.534457329907084
10
-66.117608991091032
20
-87.504012454827276
10
-35.72559022058114
20
-87.504012454827276
10
-35.72559022058114
20
-88.780870330798194
10
-66.117608991091032
20
-88.780870330798194
10
-66.117608991091032
20
-90.750425455718386
10
-35.028392982418843
20
-90.750425455718386
42
-0.41421356237309503
10
-33.643553833407744
20
-92.135264604729485
10
-33.643553833407744
20
-95.624662578787877
10
-42.719886964218716
20
-95.624662578787849
42
0.16443721836542319
10
-43.662798937456529
20
-95.305944937558394
10
-68.206710379310138
20
-95.305944937558365
42
0.25070597930015143
10
-68.802398457047232
20
-95.624662578787877
10
-73.360919587831845
20
-95.624662578787877
10
-73.360919587831845
20
-88.487577261606688
10
-71.533156103878937
20
-84.134645655031079
10
-46.465003870341839
20
-84.134645655031164
42
0.52425553522269197
0
LWPOLYLINE
5
101
100
AcDbEntity
8
0
100
AcDbPolyline
90
9
70
1
43
0.0
10
-32.651644795825831
20
-82.96522826758347
42
-0.079270463831426788
10
-31.541873300895649
20
-82.365335359170643
42
0.55239650941412199
10
-30.242471174906328
20
-76.663906502929663
42
0.19868608573611587
10
-32.420737457710146
20
-75.760230813021678
10
-37.697731150185845
20
-75.76023081302165
42
0.41421356237309503
10
-38.974635991273743
20
-77.037135654109477
10
-38.974635991273715
20
-79.26557492691839
42
0.41421356237309503
10
-35.120990192545747
20
-83.119220725646386
10
-33.105832979739638
20
-83.119220725646386
42
0.16491441935869353
0
LWPOLYLINE
5
102
100
AcDbEntity
8
0
100
AcDbPolyline
90
40
70
1
43
0.0
10
-40.332662826489987
20
-75.267827638013912
42
-0.52425553522269652
10
-39.912157364451652
20
-74.659814257741502
10
-31.808909313256418
20
-74.659814257741488
10
-30.688824691902219
20
-75.032715470657934
42
0.41124009452638577
10
-28.372457301130606
20
-73.434860101624139
10
-26.187074359262642
20
-61.861083916957597
42
0.14233049418450652
10
-26.325065674285028
20
-60.430149140667581
10
-27.102959734628342
20
-58.476311720822281
10
-10.407034256499902
20
-58.476311720822281
10
-9.0785602365389391
20
-59.078054606821269
10
-8.8792598658652704
20
-62.541838271633914
42
-0.14166636615083558
10
-9.779744489531236
20
-66.494673656943974
42
0.053554116929525053
10
-12.130921513380919
20
-72.08002824898189
10
-13.595784198907001
20
-76.963333129358688
42
0.50238931279019705
10
-9.0154994513474591
20
-83.119220725646386
10
-3.7715265847958102
20
-83.119220725646244
42
-0.70082694629221642
10
-3.6441378012324419
20
-83.470125579707428
42
-0.1480349314854553
10
-8.9814086558557715
20
-85.742650217235351
42
0.30970777078108264
10
-10.603437060694908
20
-87.134793604722987
10
-11.722914348484641
20
-91.328817413663074
10
-13.702835505848341
20
-93.321125640248383
10
-15.24783956529734
20
-93.321125640248383
10
-13.129020726614176
20
-85.534457329907084
10
-66.117608991091032
20
-85.534457329907084
10
-66.117608991091032
20
-87.504012454827276
10
-35.72559022058114
20
-87.504012454827276
10
-35.72559022058114
20
-88.780870330798194
10
-66.117608991091032
20
-88.780870330798194
10
-66.117608991091032
20
-90.750425455718386
10
-35.028392982418843
20
-90.7504254557184
42
-0.41421356237309598
10
-33.643553833407744
20
-92.135264604729485
10
-33.643553833407736
20
-95.624662578787877
10
-42.719886964218709
20
-95.624662578787834
42
0.16443721836542258
10
-43.662798937456529
20
-95.305944937558394
10
-68.206710379310138
20
-95.305944937558365
42
0.25070597930015143
10
-68.802398457047232
20
-95.624662578787877
10
-73.360919587831845
20
-95.624662578787891
10
-73.360919587831845
20
-88.487577261606688
10
-71.533156103878937
20
-84.134645655031079
10
-46.465003870341839
20
-84.134645655031164
42
0.52425553522269208
0
LWPOLYLINE
5
103
100
AcDbEntity
8
0
100
AcDbPolyline
90
9
70
1
43
0.0
10
-32.651644795825824
20
-82.965228267583484
42
-0.079270463831426455
10
-31.541873300895649
20
-82.365335359170672
42
0.55239650941412188
10
-30.242471174906328
20
-76.663906502929663
42
0.19868608573611943
10
-32.420737457710146
20
-75.760230813021678
10
-37.697731150185845
20
-75.76023081302165
42
0.41421356237309709
10
-38.974635991273743
20
-77.037135654109491
10
-38.974635991273715
20
-79.26557492691839
42
0.41421356237309204
10
-35.120990192545747
20
-83.119220725646386
10
-33.105832979739638
20
-83.119220725646386
42
0.16491441935867612
0
LWPOLYLINE
5
104
100
AcDbEntity
8
0
100
AcDbPolyline
90
78
70
1
43
0.0
10
-40.332662826489987
20
-37.375836976392819
42
-0.52425553522269097
10
-39.912157364451652
20
-36.767823596120401
10
-31.808909313256418
20
-36.767823596120401
10
-30.688824691902219
20
-37.14072480903684
42
0.41124009452638499
10
-28.372457301130606
20
-35.542869440003045
10
-26.187074359262642
20
-23.969093255336492
42
0.14233049418450652
10
-26.325065674285028
20
-22.538158479046476
10
-27.102959734628342
20
-20.58432105920118
10
-10.407034256499902
20
-20.58432105920118
10
-9.0785602365389391
20
-21.186063945200168
10
-8.8792598658652828
20
-24.649847610012813
42
-0.14166636615083558
10
-9.7797444895312413
20
-28.602682995322848
42
0.053554116929525053
10
-12.130921513380919
20
-34.188037587360782
10
-13.595784198907001
20
-39.071342467737594
42
0.50238931279019705
10
-9.0154994513474591
20
-45.227230064025285
10
-3.7715265847958102
20
-45.227230064025157
42
-0.70082694629218611
10
-3.644137801232441
20
-45.57813491808632
42
-0.14803493148545507
10
-8.9814086558557715
20
-47.850659555614257
42
0.30970777078108086
10
-10.603437060694894
20
-49.242802943101879
42
0.31362105261941331
10
-8.8804268026608426
20
-54.007770111228446
42
-0.75016599874976919
10
-9.3651469005264403
20
-55.411760919456285
10
-9.9759520655552496
20
-55.381899100005185
10
-10.11274061188197
20
-55.067353765752074
10
-10.289359958760391
20
-55.327605287434878
10
-10.426148505087109
20
-55.013059953181781
10
-10.602767851965531
20
-55.273311474864677
10
-10.710624430284209
20
-54.963778225126276
10
-10.887243777162631
20
-55.224029746809087
10
-11.037494554267848
20
-54.907152257398081
10
-11.214113901146279
20
-55.167403779080885
10
-11.35090244747299
20
-54.852858444827881
10
-11.527521794351419
20
-55.113109966510677
10
-11.66431034067813
20
-54.798564632257587
10
-11.840929687556558
20
-55.058816153940377
10
-11.97771823388327
20
-54.744270819687387
10
-12.154337580761705
20
-55.004522341370162
42
-0.28120895236148208
10
-13.115405588153271
20
-54.838029896885274
10
-13.702835505848441
20
-55.429134978627275
10
-15.24783956529744
20
-55.429134978627275
10
-13.129020726614179
20
-47.642466668285977
10
-23.457638014221484
20
-35.115922884595328
42
0.60986503058352803
10
-25.752532463046244
20
-35.614696751693486
10
-26.427631408822538
20
-38.13721361352188
10
-30.242496761019236
20
-38.137213613521872
42
0.15587300327432238
10
-32.147228439542545
20
-37.505753661894175
10
-34.554906412493544
20
-37.47960088377058
10
-34.554906412493544
20
-37.868240151400578
10
-37.697731150185845
20
-37.868240151400549
42
0.41421356237309503
10
-38.974635991273743
20
-39.145144992488383
10
-38.974635991273715
20
-41.373584265297282
42
0.41421356237309503
10
-35.120990192545747
20
-45.227230064025278
10
-34.554906412493544
20
-45.227230064025278
10
-34.554906412493544
20
-46.434848366155578
10
-27.500748954464342
20
-46.434848366155578
10
-28.054930218421738
20
-47.642466668285977
10
-66.117608991091032
20
-47.642466668285977
10
-66.117608991091032
20
-49.612021793206182
10
-35.72559022058114
20
-49.612021793206182
10
-35.72559022058114
20
-50.888879669177086
10
-66.117608991091032
20
-50.888879669177086
10
-66.117608991091032
20
-52.858434794097278
10
-35.028392982418843
20
-52.858434794097278
42
-0.41421356237309415
10
-33.643553833407744
20
-54.243273943108377
10
-33.643553833407736
20
-57.732671917166776
10
-42.719886964218709
20
-57.732671917166741
42
0.16443721836542347
10
-43.662798937456529
20
-57.413954275937286
10
-68.206710379310138
20
-57.413954275937265
42
0.2507059793001542
10
-68.802398457047232
20
-57.732671917166776
10
-69.026931213289146
20
-57.732671917166776
10
-69.026931213289146
20
-58.214534225814688
10
-70.998932449527643
20
-59.426700827243181
10
-71.440652898667338
20
-59.426700827243089
42
-0.41421356237308421
10
-72.162897338616446
20
-58.704456387293988
10
-72.162897338616446
20
-57.732671917166776
10
-73.360919587831845
20
-57.732671917166776
10
-73.360919587831845
20
-50.59558659998558
10
-71.533156103878937
20
-46.242654993409985
10
-46.465003870341839
20
-46.242654993410056
42
0.52425553522269142
0
LWPOLYLINE
5
105
100
AcDbEntity
8
0
100
AcDbPolyline
90
9
70
1
43
0.0
10
-35.948017111091545
20
-62.625779018043929
42
-0.7981465273483429
10
-35.510927684728209
20
-62.967657253381752
42
-0.21421999256856503
10
-38.383883237916898
20
-65.429751266325766
10
-39.864854341475578
20
-65.866016043916247
42
0.29836624871087197
10
-36.159106510915244
20
-65.094093895805514
42
0.091453928931828993
10
-35.524402988648099
20
-64.172521631942331
10
-35.524402988648127
20
-68.389997380204818
10
-42.614420733631952
20
-68.389997380204818
10
-42.614420733631952
20
-62.42784307602912
42
0.37248527014469984
0
LWPOLYLINE
5
106
100
AcDbEntity
8
0
100
AcDbPolyline
90
72
70
1
43
0.0
10
-79.063182148541657
20
-53.643818241586025
42
-0.5242555352226892
10
-78.642676686503336
20
-54.251831621858443
42
0.52425553522269153
10
-72.510335642651469
20
-63.11864963887561
10
-47.442183409114477
20
-63.11864963887561
10
-45.614419925161549
20
-67.471581245451148
10
-45.614419925161542
20
-74.608666562632365
10
-46.812442174376905
20
-74.608666562632365
10
-46.812442174376898
20
-75.580451032759612
42
-0.41421356237307344
10
-47.534686614326048
20
-76.302695472708763
10
-47.976407063465771
20
-76.302695472708763
10
-49.948408299704241
20
-75.090528871280256
10
-49.948408299704241
20
-74.608666562632365
10
-50.172941055946126
20
-74.608666562632365
42
0.25070597930013677
10
-50.768629133683177
20
-74.289948921402868
10
-75.312540575536772
20
-74.289948921402896
42
0.16443721836541558
10
-76.255452548774571
20
-74.608666562632365
10
-85.331785679585664
20
-74.608666562632365
10
-85.331785679585693
20
-71.119268588574002
42
-0.41421356237309692
10
-83.946946530574564
20
-69.734429439562859
10
-52.857730521902312
20
-69.734429439562874
10
-52.857730521902305
20
-67.76487431464264
10
-83.249749292412162
20
-67.76487431464264
10
-83.249749292412162
20
-64.518461313751601
10
-90.92040929457157
20
-64.518461313751601
10
-92.028771822486362
20
-62.103224709490803
10
-83.854349320447668
20
-62.103224709490789
42
0.4142135623730876
10
-80.000703521719672
20
-58.249578910762907
10
-80.000703521719629
20
-56.021139637954008
42
0.41421356237309503
10
-81.277608362807456
20
-54.744234796866209
10
-86.554602055283269
20
-54.744234796866124
42
0.10531871459278822
10
-87.811298967374668
20
-55.013208258987504
10
-92.547708104170781
20
-55.013208258987504
10
-93.222807049947093
20
-52.490691397159082
42
0.60986503058354025
10
-95.517701498771885
20
-51.991917530061002
10
-105.84631878637919
20
-64.518461313751601
10
-103.72749994769586
20
-72.305129624092871
10
-105.27250400714486
20
-72.305129624092871
10
-105.85993392484006
20
-71.714024542350913
42
-0.28120895236147775
10
-106.82100193223167
20
-71.880516986835772
10
-106.99762127911008
20
-71.62026546515294
10
-107.13440982543676
20
-71.934810799406037
10
-107.31102917231527
20
-71.674559277723205
10
-107.44781771864197
20
-71.989104611976288
10
-107.62443706552037
20
-71.728853090293455
10
-107.76122561184707
20
-72.043398424546524
10
-107.93784495872546
20
-71.783146902863692
10
-108.08809573583076
20
-72.10002439227469
10
-108.26471508270916
20
-71.839772870591844
10
-108.37257166102788
20
-72.149306120330237
10
-108.54919100790627
20
-71.889054598647405
10
-108.68597955423297
20
-72.203599932900488
10
-108.86259890111137
20
-71.943348411217656
10
-108.99938744743818
20
-72.257893745470739
10
-109.61019261246693
20
-72.287755564921966
42
-0.75016599874975032
10
-110.09491271033248
20
-70.883764756694049
42
0.31362105261941137
10
-108.37190245229849
20
-66.118797588567503
42
0.30970777078107248
10
-109.9939308571376
20
-64.726654201079896
42
-0.14803493148545394
10
-115.33120171176101
20
-62.454129563551945
42
-0.70082694629197251
10
-115.20381292819756
20
-62.103224709490803
10
-109.95984006164588
20
-62.103224709490789
42
0.50238931279019217
10
-105.37955531408636
20
-55.947337113203204
10
-106.84441799961157
20
-51.064032232826115
42
0.053554116929524269
10
-109.19559502346296
20
-45.478677640788987
42
-0.14166636615084113
10
-110.09607964712906
20
-41.525842255478409
10
-109.89677927645447
20
-38.062058590665806
10
-108.56830525649346
20
-37.460315704666804
10
-91.872379778364973
20
-37.460315704666804
10
-92.650273838708273
20
-39.414153124512026
42
0.14233049418450669
10
-92.788265153730663
20
-40.845087900802056
10
-90.602882211862749
20
-52.418864085468677
42
0.41124009452640231
10
-88.286514821090165
20
-54.016719454507445
10
-87.16643019973688
20
-53.643818241586025
0
LWPOLYLINE
5
107
100
AcDbEntity
8
0
100
AcDbPolyline
90
14
70
1
43
0.0
10
-127.33250379725777
20
-87.056392341904058
10
-125.80276427258713
20
-87.056392341904058
10
-126.17556925997829
20
-87.641047824472764
10
-123.71558731131296
20
-87.641047824472764
10
-124.07854120590318
20
-87.056392341904058
10
-122.21719275723551
20
-87.056392341904058
42
0.18843484216325673
10
-119.3553460378854
20
-85.93814260757199
10
-108.83496800797977
20
-85.93814260757199
10
-108.83496800797971
20
-89.694464963115962
42
0.41421356237309503
10
-107.45012885896857
20
-91.079304112127119
10
-76.360912850296444
20
-91.07930411212709
10
-76.360912850296458
20
-96.29527223793842
10
-132.30224976451137
20
-96.295272237938434
10
-130.75560749290295
20
-90.500912154182402
0
LWPOLYLINE
5
108
100
AcDbEntity
8
0
100
AcDbPolyline
90
14
70
1
43
0.0
10
-78.562172411238336
20
-86.961056083388911
10
-80.091911935908968
20
-86.961056083388911
10
-79.719106948517833
20
-86.376400600820205
10
-82.179088897183149
20
-86.376400600820205
10
-81.816135002592915
20
-86.961056083388911
10
-83.677483451260599
20
-86.961056083388911
42
0.18843484216325751
10
-86.539330170610711
20
-88.079305817720993
10
-97.05970820051634
20
-88.079305817720979
10
-97.059708200516397
20
-84.322983462177007
42
0.41421356237309503
10
-98.444547349527539
20
-82.938144313165878
10
-129.53376335819965
20
-82.938144313165893
10
-129.53376335819965
20
-77.722176187354563
10
-73.592426443984721
20
-77.722176187354549
10
-75.139068715593154
20
-83.516536271110567
0
LWPOLYLINE
5
109
100
AcDbEntity
8
0
100
AcDbPolyline
90
16
70
1
43
0.0
10
-115.81605273007197
20
-56.172624875238235
42
-0.18843484216325695
10
-118.6778994494221
20
-55.054375140906153
10
-129.10815281299696
20
-55.054375140906082
10
-129.10815281299691
20
-58.978848818418399
42
-0.24429750650866341
10
-130.6250337464906
20
-61.898140895465055
10
-128.21950171302728
20
-61.898140895465083
10
-127.04262982849579
20
-60.40664925550314
10
-123.51919574190497
20
-59.611071484616858
10
-123.51919574190498
20
-57.624836460931235
10
-110.90787015994287
20
-57.624836460931263
10
-111.37636611569528
20
-56.172624875238206
10
-111.58695958410227
20
-56.172624875238206
10
-111.58695958410227
20
-53.767692655460813
10
-112.75925662703948
20
-53.767692655460813
10
-114.55123928692687
20
-55.246878759510466
10
-114.55123928692687
20
-56.172624875238199
0
LWPOLYLINE
5
110
100
AcDbEntity
8
0
100
AcDbPolyline
90
4
70
1
43
0.0
10
-111.33373841487787
20
-49.403310038929639
10
-111.33373841487787
20
-51.353310038929642
10
-141.68373841487787
20
-51.353310038929642
10
-141.68373841487787
20
-49.403310038929639
0
LWPOLYLINE
5
111
100
AcDbEntity
8
0
100
AcDbPolyline
90
4
70
1
43
0.0
10
-141.40377375110646
20
-46.98892677926024
10
-141.40377375110646
20
-45.038926779260237
10
-111.05377375110614
20
-45.038926779260244
10
-111.05377375110614
20
-46.98892677926024
0
LWPOLYLINE
5
112
100
AcDbEntity
8
0
100
AcDbPolyline
90
40
70
1
43
0.0
10
-106.24995779423756
20
-23.356836668626716
42
-0.52425553522268387
10
-106.67046325627589
20
-23.96485004889913
10
-114.77371130747115
20
-23.96485004889913
10
-115.89379592882534
20
-23.591948835982691
42
0.41124009452638527
10
-118.21016331959696
20
-25.189804205016486
10
-120.3955462614649
20
-36.763580389683035
42
0.14233049418450738
10
-120.25755494644251
20
-38.194515165973058
10
-119.4796608860992
20
-40.148352585818344
10
-136.17558636422763
20
-40.148352585818344
10
-137.50406038418862
20
-39.546609699819363
10
-137.70336075486227
20
-36.082826035006711
42
-0.14166636615083783
10
-136.80287613119631
20
-32.129990649696666
42
0.053554116929524921
10
-134.45169910734663
20
-26.544636057658757
10
-132.98683642182053
20
-21.661331177281937
42
0.50238931279019705
10
-137.56712116938007
20
-15.505443580994251
10
-142.81109403593175
20
-15.505443580994356
42
-0.70082694629215747
10
-142.93848281949511
20
-15.154538726933209
42
-0.14803493148545518
10
-137.60121196487177
20
-12.882014089405269
42
0.30970777078108092
10
-135.97918356003265
20
-11.489870701917649
10
-134.85970627224293
20
-7.2958468929775488
10
-132.87978511487918
20
-5.3035386663922512
10
-131.33478105543023
20
-5.3035386663922512
10
-133.45359989411338
20
-13.090206976733551
10
-80.465011629636507
20
-13.090206976733558
10
-80.465011629636507
20
-11.12065185181336
10
-110.85703040014641
20
-11.120651851813355
10
-110.85703040014641
20
-9.8437939758424537
10
-80.465011629636507
20
-9.8437939758424555
10
-80.465011629636507
20
-7.8742388509222563
10
-111.5542276383087
20
-7.8742388509222625
42
-0.4142135623730962
10
-112.9390667873198
20
-6.4893997019111538
10
-112.9390667873198
20
-3.000001727852756
10
-103.86273365650882
20
-3.000001727852788
42
0.16443721836542347
10
-102.91982168327101
20
-3.3187193690822543
10
-78.375910241417401
20
-3.3187193690822743
42
0.25070597930015298
10
-77.780222163680307
20
-3.0000017278527609
10
-73.221701032895709
20
-3.0000017278527613
10
-73.221701032895709
20
-10.137087045033958
10
-75.049464516848602
20
-14.490018651609555
10
-100.11761675038571
20
-14.490018651609486
42
0.52425553522269142
0
LWPOLYLINE
5
113
100
AcDbEntity
8
0
100
AcDbPolyline
90
9
70
1
43
0.0
10
-113.93097582490171
20
-15.659436039057137
42
-0.079270463831427232
10
-115.04074731983189
20
-16.259328947469974
42
0.55239650941411789
10
-116.34014944582123
20
-21.960757803710976
42
0.19868608573611271
10
-114.16188316301741
20
-22.864433493618957
10
-108.88488947054171
20
-22.864433493618982
42
0.41421356237310114
10
-107.60798462945381
20
-21.587528652531152
10
-107.60798462945382
20
-19.359089379722256
42
0.41421356237309204
10
-111.46163042818181
20
-15.505443580994257
10
-113.47678764098791
20
-15.505443580994257
42
0.16491441935868656
0
LWPOLYLINE
5
114
100
AcDbEntity
8
0
100
AcDbPolyline
90
16
70
1
43
0.0
10
-97.911824167873476
20
-28.634654175204318
42
-0.18843484216325754
10
-100.77367088722357
20
-27.516404440872229
10
-111.20392425079845
20
-27.516404440872172
10
-111.20392425079839
20
-31.440878118384433
42
-0.24429750650866328
10
-112.72080518429206
20
-34.360170195431081
10
-110.31527315082874
20
-34.360170195431095
10
-109.13840126629724
20
-32.868678555469174
10
-105.61496717970644
20
-32.073100784582891
10
-105.61496717970644
20
-30.086865760897297
10
-93.003641597744348
20
-30.086865760897325
10
-93.472137553496779
20
-28.634654175204282
10
-93.682731021903749
20
-28.634654175204282
10
-93.682731021903749
20
-26.229721955426911
10
-94.855028064840951
20
-26.229721955426907
10
-96.647010724728361
20
-27.708908059476556
10
-96.647010724728361
20
-28.634654175204272
0
LWPOLYLINE
5
115
100
AcDbEntity
8
0
100
AcDbPolyline
90
16
70
1
43
0.0
10
-83.731490675763979
20
-28.209652220757526
42
-0.18843484216325868
10
-80.869643956413825
20
-29.327901955089615
10
-70.439390592838947
20
-29.327901955089644
10
-70.43939059283899
20
-25.403428277577369
42
-0.24429750650866341
10
-68.922509659345337
20
-22.484136200530717
10
-71.32804169280864
20
-22.484136200530706
10
-72.504913577340147
20
-23.975627840492638
10
-76.028347663930958
20
-24.771205611378928
10
-76.028347663930958
20
-26.757440635064533
10
-88.639673245893079
20
-26.757440635064548
10
-88.171177290140662
20
-28.20965222075759
10
-87.960583821733692
20
-28.20965222075759
10
-87.960583821733678
20
-30.614584440534962
10
-86.78828677879649
20
-30.614584440534962
10
-84.99630411890908
20
-29.135398336485309
10
-84.996304118909066
20
-28.209652220757583
0
LWPOLYLINE
5
116
100
AcDbEntity
8
0
100
AcDbPolyline
90
16
70
1
43
0.0
10
-74.720291299783511
20
-33.927333777940376
42
-0.18843484216325718
10
-77.582138019133652
20
-32.809084043608308
10
-88.0123913827085
20
-32.809084043608273
10
-88.012391382708387
20
-36.733557721120583
42
-0.24429750650866364
10
-89.529272316202082
20
-39.652849798167253
10
-87.12374028273878
20
-39.652849798167274
10
-85.946868398207272
20
-38.161358158205331
10
-82.423434311616489
20
-37.365780387319035
10
-82.423434311616489
20
-35.379545363633412
10
-69.812108729654426
20
-35.379545363633419
10
-70.280604685406814
20
-33.927333777940362
10
-70.491198153813812
20
-33.927333777940362
10
-70.491198153813826
20
-31.522401558162962
10
-71.663495196751029
20
-31.522401558162969
10
-73.455477856638424
20
-33.001587662212629
10
-73.45547785663841
20
-33.927333777940362
0
LWPOLYLINE
5
117
100
AcDbEntity
8
0
100
AcDbPolyline
90
17
70
1
43
0.0
10
-85.349842061467811
20
-50.643826770919219
10
-85.349842061467811
20
-49.05606095991304
10
-84.14222375933744
20
-47.918586949009566
10
-84.14222375933744
20
-43.035948765371302
10
-77.026629236817342
20
-43.03594876537111
10
-77.026629236817342
20
-46.853817925534202
42
-0.13393198299460399
10
-76.574031871428446
20
-48.513163084401462
10
-76.574031871428446
20
-48.555264895457825
10
-76.390119378619673
20
-48.555264895457825
10
-76.38430861071555
20
-49.090216013176509
10
-76.757944364237204
20
-49.090216013176622
10
-76.757944364237204
20
-48.555264895457825
42
0.20012992987750813
10
-77.661331464604004
20
-46.360492499183749
42
0.55239650941412999
10
-83.362760320844998
20
-47.659894625173081
42
-0.079270463831441207
10
-83.962653229257853
20
-48.769666120103288
42
0.16491441935867382
10
-84.116645687320698
20
-49.223854304017067
10
-84.142223759337412
20
-50.643826770919219
0
LWPOLYLINE
5
118
100
AcDbEntity
8
0
100
AcDbPolyline
90
78
70
1
43
0.0
10
-36.028255218553966
20
-25.050863615648208
42
-0.52425553522269208
10
-36.448760680592301
20
-25.658876995920622
10
-44.552008731787531
20
-25.658876995920625
10
-45.672093353141719
20
-25.285975783004183
42
0.41124009452638632
10
-47.988460743913343
20
-26.883831152037978
10
-50.173843685781293
20
-38.457607336704534
42
0.14233049418450669
10
-50.035852370758917
20
-39.88854211299455
10
-49.257958310415603
20
-41.842379532839843
10
-65.953883788544047
20
-41.842379532839836
10
-67.282357808505012
20
-41.240636646840855
10
-67.481658179178666
20
-37.77685298202821
42
-0.141666366150835
10
-66.581173555512706
20
-33.824017596718157
42
0.053554116929524921
10
-64.229996531663019
20
-28.238663004680244
10
-62.765133846136941
20
-23.355358124303429
42
0.50238931279019705
10
-67.345418593696479
20
-17.199470528015741
10
-72.589391460248137
20
-17.199470528015826
42
-0.70082694629218045
10
-72.716780243811485
20
-16.848565673954692
42
-0.14803493148545382
10
-67.379509389188172
20
-14.576041036426759
42
0.30970777078108153
10
-65.757480984349044
20
-13.183897648939134
42
0.3136210526194132
10
-67.48049124238311
20
-8.4189304808126
42
-0.75016599874976941
10
-66.995771144517505
20
-7.014939672584739
10
-66.384965979488697
20
-7.0448014920358393
10
-66.24817743316197
20
-7.3593468262889372
10
-66.071558086283545
20
-7.0990953046061378
10
-65.934769539956832
20
-7.4136406388592357
10
-65.758150193078407
20
-7.1533891171763386
10
-65.650293614759732
20
-7.4629223669147393
10
-65.473674267881307
20
-7.2026708452319355
10
-65.323423490776094
20
-7.5195483346429359
10
-65.146804143897668
20
-7.259296812960141
10
-65.010015597570955
20
-7.5738421472131368
10
-64.833396250692516
20
-7.3135906255303418
10
-64.696607704365817
20
-7.6281359597834353
10
-64.519988357487378
20
-7.3678844381006403
10
-64.383199811160679
20
-7.6824297723536361
10
-64.20658046428224
20
-7.4221782506708491
42
-0.28120895236147286
10
-63.245512456890665
20
-7.588670695155737
10
-62.658082539195505
20
-6.9975656134137409
10
-61.113078479746505
20
-6.9975656134137409
10
-63.231897318429759
20
-14.784233923755037
10
-52.903280030822458
20
-27.310777707445695
42
0.60986503058352803
10
-50.608385581997702
20
-26.812003840347536
10
-49.933286636221403
20
-24.289486978519143
10
-46.118421284024706
20
-24.289486978519154
42
0.15587300327432205
10
-44.213689605501401
20
-24.92094693014684
10
-41.806011632550401
20
-24.947099708270443
10
-41.806011632550401
20
-24.558460440640445
10
-38.6631868948581
20
-24.558460440640474
42
0.41421356237309503
10
-37.386282053770202
20
-23.28155559955264
10
-37.386282053770231
20
-21.053116326743748
42
0.41421356237309503
10
-41.239927852498198
20
-17.199470528015745
10
-41.806011632550401
20
-17.199470528015745
10
-41.806011632550401
20
-15.991852225885443
10
-48.860169090579603
20
-15.991852225885443
10
-48.305987826622207
20
-14.784233923755043
10
-10.243309053952903
20
-14.784233923755048
10
-10.243309053952903
20
-12.814678798834848
10
-40.635327824462806
20
-12.814678798834844
10
-40.635327824462806
20
-11.537820922863942
10
-10.243309053952903
20
-11.537820922863947
10
-10.243309053952899
20
-9.5682657979437451
10
-41.332525062625095
20
-9.5682657979437522
42
-0.41421356237309248
10
-42.717364211636202
20
-8.1834266489326435
10
-42.717364211636202
20
-4.6940286748742457
10
-33.641031080825222
20
-4.6940286748742777
42
0.16443721836542291
10
-32.698119107587402
20
-5.0127463161037431
10
-8.1542076657337947
20
-5.0127463161037635
42
0.25070597930015276
10
-7.5585195879966971
20
-4.694028674874251
10
-7.3339868317547907
20
-4.694028674874251
10
-7.3339868317547907
20
-4.2121663662263442
10
-5.3619855955162876
20
-2.9999997647978471
10
-4.9202651463765967
20
-2.9999997647979315
42
-0.41421356237309503
10
-4.1980207064274833
20
-3.722244204747045
10
-4.1980207064274833
20
-4.694028674874251
10
-2.9999984572120999
20
-4.694028674874251
10
-2.9999984572121003
20
-11.83111399205545
10
-4.8277619411650008
20
-16.184045598631045
10
-29.895914174702103
20
-16.184045598630977
42
0.52425553522269119
0
LWPOLYLINE
5
119
100
AcDbEntity
8
0
100
AcDbPolyline
90
16
70
1
43
0.0
10
-93.679720387267906
20
-22.212640217002448
42
-0.1884348421632597
10
-90.81787366791778
20
-23.33088995133453
10
-80.387620304342903
20
-23.330889951334566
10
-80.38762030434296
20
-19.40641627382233
42
-0.24429750650866094
10
-78.870739370849321
20
-16.48712419677571
10
-81.276271404312638
20
-16.487124196775696
10
-82.453143288844132
20
-17.978615836737614
10
-85.976577375434914
20
-18.774193607623893
10
-85.976577375434914
20
-20.760428631309477
10
-98.587902957397006
20
-20.760428631309477
10
-98.119407001644589
20
-22.212640217002505
10
-97.908813533237605
20
-22.212640217002502
10
-97.908813533237577
20
-24.617572436779849
10
-96.736516490300374
20
-24.617572436779849
10
-94.944533830412979
20
-23.138386332730214
10
-94.944533830413008
20
-22.212640217002502
0
LWPOLYLINE
5
120
100
AcDbEntity
8
0
100
AcDbPolyline
90
17
70
1
43
0.0
10
-49.161136637262651
20
-4.1763636587682811
10
-49.161136637262651
20
-5.7641294697744607
10
-50.368754939393042
20
-6.9016034806779398
10
-50.368754939393028
20
-11.784241664316202
10
-57.484349461913126
20
-11.784241664316406
10
-57.484349461913133
20
-7.9663725041533118
42
-0.13393198299461312
10
-57.936946827302037
20
-6.3070273452860537
10
-57.936946827302023
20
-6.2649255342296826
10
-58.120859320110803
20
-6.2649255342296843
10
-58.126670088014912
20
-5.7299744165110038
10
-57.753034334493265
20
-5.7299744165108821
10
-57.75303433449325
20
-6.2649255342296826
42
0.20012992987750775
10
-56.849647234126472
20
-8.4596979305037667
42
0.55239650941412954
10
-51.14821837788547
20
-7.1602958045144307
42
-0.079270463831427121
10
-50.548325469472616
20
-6.0505243095842207
42
0.16491441935867499
10
-50.394333011409778
20
-5.5963361256704411
10
-50.368754939393042
20
-4.1763636587682811
0
ENDSEC
0
SECTION
2
OBJECTS
0
DICTIONARY
5
C
100
AcDbDictionary
3
ACAD_GROUP
350
D
3
ACAD_MLINESTYLE
350
17
0
DICTIONARY
5
D
100
AcDbDictionary
0
DICTIONARY
5
1A
330
C
100
AcDbDictionary
0
DICTIONARY
5
17
100
AcDbDictionary
0
ENDSEC
0
EOF
