0
SECTION
2
HEADER
9
$INSUNITS
70
1
9
$ACADVER
1
AC1014
9
$HANDSEED
5
FFFF
0
ENDSEC
0
SECTION
2
TABLES
0
TABLE
2
VPORT
5
8
100
AcDbSymbolTable
0
ENDTAB
0
TABLE
2
LTYPE
5
5
100
AcDbSymbolTable
0
LTYPE
5
14
100
AcDbSymbolTableRecord
100
AcDbLinetypeTableRecord
2
BYBLOCK
70
0
0
LTYPE
5
15
100
AcDbSymbolTableRecord
100
AcDbLinetypeTableRecord
2
BYLAYER
70
0
0
ENDTAB
0
TABLE
2
LAYER
5
2
100
AcDbSymbolTable
70
2
0
LAYER
5
50
100
AcDbSymbolTableRecord
100
AcDbLayerTableRecord
2
0
70
0
6
CONTINUOUS
0
ENDTAB
0
TABLE
2
STYLE
5
3
100
AcDbSymbolTable
70
1
0
STYLE
5
11
100
AcDbSymbolTableRecord
100
AcDbTextStyleTableRecord
2
STANDARD
70
0
0
ENDTAB
0
TABLE
2
VIEW
5
6
100
AcDbSymbolTable
70
0
0
ENDTAB
0
TABLE
2
UCS
5
7
100
AcDbSymbolTable
70
0
0
ENDTAB
0
TABLE
2
APPID
5
9
100
AcDbSymbolTable
70
2
0
APPID
5
12
100
AcDbSymbolTableRecord
100
AcDbRegAppTableRecord
2
ACAD
70
0
0
ENDTAB
0
TABLE
2
DIMSTYLE
5
A
100
AcDbSymbolTable
70
1
0
ENDTAB
0
TABLE
2
BLOCK_RECORD
5
1
100
AcDbSymbolTable
70
1
0
BLOCK_RECORD
5
1F
100
AcDbSymbolTableRecord
100
AcDbBlockTableRecord
2
*MODEL_SPACE
0
BLOCK_RECORD
5
1B
100
AcDbSymbolTableRecord
100
AcDbBlockTableRecord
2
*PAPER_SPACE
0
ENDTAB
0
ENDSEC
0
SECTION
2
BLOCKS
0
BLOCK
5
20
100
AcDbEntity
100
AcDbBlockBegin
2
*MODEL_SPACE
0
ENDBLK
5
21
100
AcDbEntity
100
AcDbBlockEnd
0
BLOCK
5
1C
100
AcDbEntity
100
AcDbBlockBegin
2
*PAPER_SPACE
0
ENDBLK
5
1D
100
AcDbEntity
100
AcDbBlockEnd
0
ENDSEC
0
SECTION
2
ENTITIES
0
LWPOLYLINE
5
100
100
AcDbEntity
8
0
100
AcDbPolyline
90
14
70
1
43
0.0
10
-2.3929627615146041
20
-8.1384823829813584
10
-2.3929627615146041
20
-8.0782564174431446
10
-2.3699448291300089
20
-8.0929337791514566
10
-2.3699448291300089
20
-7.9960840961331368
10
-2.3929627615146041
20
-8.010373619542202
10
-2.3929627615146041
20
-7.9370921845552846
42
0.18843484216325707
10
-2.4369883416064182
20
-7.8244210538722099
10
-2.4369883416064178
20
-7.4102329424586015
10
-2.2891016346952378
20
-7.4102329424585998
42
0.41421356237309503
10
-2.2345804083562162
20
-7.3557117161195791
10
-2.2345804083562166
20
-6.1317268338883926
10
-2.0292273325368733
20
-6.1317268338883926
10
-2.0292273325368733
20
-8.3341416730307127
10
-2.2573517452831728
20
-8.2732502450146317
0
LWPOLYLINE
5
101
100
AcDbEntity
8
0
100
AcDbPolyline
90
17
70
1
43
0.0
10
-2.6812898342949802
20
-8.1581543745748899
10
-2.7438002992952235
20
-8.1581543745748899
10
-2.7885827406693759
20
-8.1106103469319617
10
-2.980812590418914
20
-8.1106103469319599
10
-2.980812590418922
20
-7.8304688302973107
10
-2.8305027809636822
20
-7.8304688302973107
42
-0.1339319829945842
10
-2.7651742314019789
20
-7.8126500363843627
10
-2.7635166797855866
20
-7.8126500363843627
10
-2.7635166797855866
20
-7.8054093870611823
10
-2.7424556121588668
20
-7.8051806166712554
10
-2.7424556121588624
20
-7.8198906857075414
10
-2.7635166797855866
20
-7.8198906857075414
42
0.20012992987750813
10
-2.8499250418436208
20
-7.8554571069818246
42
0.55239650941412977
10
-2.7987674778282932
20
-8.0799228099834401
42
-0.079270463831410704
10
-2.7550756866893082
20
-8.1035406410233168
42
0.16491441935867016
10
-2.7371942621257741
20
-8.109603336222639
10
-2.6812898342949802
20
-8.1106103469319617
0
LWPOLYLINE
5
102
100
AcDbEntity
8
0
100
AcDbPolyline
90
16
70
1
43
0.0
10
-2.9124024568090552
20
-6.9715325213303316
42
-0.18843484216325915
10
-2.9564280369008697
20
-7.0842036520134082
10
-2.9564280369008711
20
-7.4948435482171423
10
-2.8019211992035378
20
-7.4948435482171396
42
-0.24429750650866294
10
-2.6869884402646935
20
-7.554563270008229
10
-2.6869884402646931
20
-7.459857284438808
10
-2.7457085835702806
20
-7.4135237456777254
10
-2.7770305430539932
20
-7.2748058682528898
10
-2.855228772332953
20
-7.2748058682528898
10
-2.8552287723329535
20
-6.7782969870732801
10
-2.912402456809057
20
-6.7967417097406972
10
-2.9124024568090574
20
-6.8050327911740442
10
-3.0070848276664344
20
-6.8050327911740442
10
-3.0070848276664339
20
-6.8511862180613354
10
-2.9488491542786526
20
-6.9217367164820995
10
-2.9124024568090574
20
-6.9217367164820987
0
LWPOLYLINE
5
103
100
AcDbEntity
8
0
100
AcDbPolyline
90
14
70
1
43
0.0
10
-2.3929627615146041
20
-8.1384823829813584
10
-2.3929627615146041
20
-8.0782564174431446
10
-2.3699448291300089
20
-8.0929337791514566
10
-2.3699448291300094
20
-7.9960840961331368
10
-2.3929627615146041
20
-8.010373619542202
10
-2.3929627615146041
20
-7.9370921845552846
42
0.18843484216325673
10
-2.4369883416064178
20
-7.8244210538722099
10
-2.4369883416064178
20
-7.4102329424586015
10
-2.2891016346952378
20
-7.4102329424585998
42
0.41421356237309503
10
-2.2345804083562162
20
-7.3557117161195791
10
-2.2345804083562166
20
-6.1317268338883926
10
-2.0292273325368733
20
-6.1317268338883917
10
-2.0292273325368728
20
-8.3341416730307127
10
-2.2573517452831733
20
-8.2732502450146335
0
LWPOLYLINE
5
104
100
AcDbEntity
8
0
100
AcDbPolyline
90
16
70
1
43
0.0
10
-2.7099943195251299
20
-5.8750371407785345
42
-0.18843484216325834
10
-2.754019899616944
20
-5.987708271461611
10
-2.7540198996169454
20
-6.3983481676653469
10
-2.5995130619196121
20
-6.3983481676653433
42
-0.24429750650866364
10
-2.4845803029807674
20
-6.4580678894564336
10
-2.4845803029807674
20
-6.3633619038870117
10
-2.5433004462863549
20
-6.3170283651259291
10
-2.5746224057700675
20
-6.1783104877010944
10
-2.6528206350490273
20
-6.1783104877010944
10
-2.6528206350490278
20
-5.6818016065214838
10
-2.7099943195251317
20
-5.7002463291889018
10
-2.7099943195251317
20
-5.708537410622248
10
-2.8046766903825087
20
-5.708537410622248
10
-2.8046766903825087
20
-5.7546908375095391
10
-2.7464410169947273
20
-5.8252413359303032
10
-2.7099943195251317
20
-5.8252413359303032
0
LWPOLYLINE
5
105
100
AcDbEntity
8
0
100
AcDbPolyline
90
16
70
1
43
0.0
10
-3.2294338365688371
20
-5.9676171400864826
42
-0.18843484216325834
10
-3.2734594166606512
20
-6.0802882707695591
10
-3.2734594166606521
20
-6.4909281669732941
10
-3.1189525789633188
20
-6.4909281669732914
42
-0.24429750650866364
10
-3.0040198200244745
20
-6.5506478887643809
10
-3.0040198200244741
20
-6.4559419031949599
10
-3.0627399633300616
20
-6.4096083644338773
10
-3.0940619228137742
20
-6.2708904870090416
10
-3.172260152092734
20
-6.2708904870090416
10
-3.172260152092734
20
-5.7743816058294319
10
-3.2294338365688384
20
-5.79282632849685
10
-3.2294338365688384
20
-5.8011174099301961
10
-3.3241162074262149
20
-5.8011174099301961
10
-3.3241162074262149
20
-5.8472708368174873
10
-3.2658805340384336
20
-5.9178213352382514
10
-3.2294338365688384
20
-5.9178213352382514
0
LWPOLYLINE
5
106
100
AcDbEntity
8
0
100
AcDbPolyline
90
14
70
1
43
0.0
10
-3.1495584031238559
20
-5.2557135567595017
10
-3.1495584031238559
20
-5.195487591221287
10
-3.1265404707392608
20
-5.2101649529296008
10
-3.1265404707392612
20
-5.11331526991128
10
-3.1495584031238559
20
-5.1276047933203444
10
-3.1495584031238559
20
-5.0543233583334288
42
0.18843484216325598
10
-3.1935839832156696
20
-4.9416522276503541
10
-3.1935839832156696
20
-4.5274641162367457
10
-3.0456972763044901
20
-4.5274641162367439
42
0.41421356237309503
10
-2.991176049965468
20
-4.4729428898977224
10
-2.9911760499654685
20
-3.2489580076665368
10
-2.7858229741461256
20
-3.2489580076665368
10
-2.7858229741461247
20
-5.4513728468088569
10
-3.0139473868924251
20
-5.3904814187927768
0
LWPOLYLINE
5
107
100
AcDbEntity
8
0
100
AcDbPolyline
90
72
70
1
43
0.0
10
-1.6218428574476762
20
-6.3865448739526727
10
-1.6218428574476762
20
-6.3257179424783025
10
-1.5985710038357874
20
-6.3025907803643175
42
-0.28120895236148663
10
-1.6051258244847986
20
-6.2647534572386654
10
-1.5948797015838996
20
-6.2577999396450279
10
-1.6072633761607928
20
-6.2524145638053934
10
-1.5970172532598936
20
-6.2454610462117524
10
-1.6094009278367869
20
-6.2400756703721179
10
-1.5991548049358875
20
-6.2331221527784813
10
-1.6115384795127805
20
-6.2277367769388468
10
-1.6012923566118817
20
-6.2207832593452084
10
-1.6137678483209759
20
-6.2148678744198032
10
-1.6035217254200766
20
-6.2079143568261657
10
-1.6157080738349741
20
-6.2036680348451139
10
-1.6054619509340751
20
-6.1967145172514764
10
-1.6178456255109683
20
-6.1913291414118419
10
-1.6075995026100693
20
-6.1843756238182044
10
-1.6199831771869626
20
-6.1789902479785672
10
-1.62115883937008
20
-6.1549428005364879
42
-0.75016599874975132
10
-1.5658836106996912
20
-6.1358593321165866
42
0.31362105261941176
10
-1.3782864780962838
20
-6.2036943816454828
42
0.30970777078106981
10
-1.323477683313308
20
-6.1398349956281963
42
-0.14803493148545485
10
-1.2340082093948832
20
-5.9297062218241248
42
-0.70082694629201658
10
-1.2201930576601934
20
-5.9347215282636299
10
-1.2201930576601925
20
-6.1411771529310197
42
0.50238931279019239
10
-0.9778352782787918
20
-6.3215033240947793
10
-0.78557918062615018
20
-6.2638315648221345
42
0.053554116929524526
10
-0.5656833305459491
20
-6.1712655402610554
42
-0.14166636615084055
10
-0.41005989017939032
20
-6.1358133897230198
10
-0.27369045455684682
20
-6.1436598610094215
10
-0.24999978975373666
20
-6.1959619877795387
10
-0.2499997897537368
20
-6.8532818884932585
10
-0.34898544524961034
20
-6.8138720825967551
42
0.14030897014662724
10
-0.40453075931919347
20
-6.8082932955875783
10
-0.84127949300057581
20
-6.8907610413985099
42
0.41430425874854171
10
-0.9141780400132723
20
-6.9976330382052394
10
-0.89986752821591787
20
-7.040617570387961
10
-0.89986752821591731
20
-7.3531348733193544
42
-0.50877484573255072
10
-0.92298867604402035
20
-7.3699755212299412
42
0.50877484573258946
10
-1.260170417084792
20
-7.6155670906867048
10
-1.2601704170847923
20
-8.6025022179913098
10
-1.4315456771861914
20
-8.6744614102729223
10
-1.7125332880988375
20
-8.6744614102729223
10
-1.712533288098838
20
-8.6272951799888524
10
-1.7507925192062099
20
-8.6272951799888506
42
-0.41421356237312384
10
-1.7792273396766489
20
-8.5988603595184152
10
-1.7792273396766487
20
-8.581469790654646
10
-1.7315042451322193
20
-8.5038319467082495
10
-1.7125332880988375
20
-8.5038319467082495
10
-1.7125332880988375
20
-8.4949920744152596
42
0.25070597930013494
10
-1.699985349467755
20
-8.4715397878901797
10
-1.6999853494677559
20
-7.5052440618329523
42
0.1644372183654168
10
-1.7125332880988373
20
-7.4681215432015424
10
-1.7125332880988373
20
-7.1107855931696093
10
-1.5751554151044136
20
-7.1107855931696067
42
-0.41421356237310636
10
-1.5206341887653925
20
-7.1653068195086291
10
-1.5206341887653931
20
-8.3892917017398201
10
-1.4430926484142033
20
-8.3892917017398201
10
-1.443092648414203
20
-7.1927555296725032
10
-1.3152811129460515
20
-7.1927555296725032
10
-1.3152811129460515
20
-6.8907610413985108
10
-1.2201930576601934
20
-6.8471247214018653
10
-1.2201930576601927
20
-7.1689523789624454
42
0.4142135623730876
10
-1.0684747191275989
20
-7.3206707174950436
10
-0.98074088948945348
20
-7.3206707174950445
42
0.41421356237310325
10
-0.93046904535213837
20
-7.2703988733577276
10
-0.93046904535213504
20
-7.0626432161736412
42
0.10531871459278554
10
-0.94105855173486663
20
-7.0131669597920911
10
-0.94105855173486663
20
-6.8266941591308266
10
-0.84174686426130707
20
-6.8001154604782155
42
0.60986503058353925
10
-0.82211009784012257
20
-6.7097652853276326
10
-1.3152811129460515
20
-6.3031268094375825
0
LWPOLYLINE
5
108
100
AcDbEntity
8
0
100
AcDbPolyline
90
17
70
1
43
0.0
10
-0.95137878854043434
20
-7.7520942691951031
10
-0.88886832354019107
20
-7.7520942691951031
10
-0.8440858821660383
20
-7.7996382968380313
10
-0.65185603241650059
20
-7.7996382968380322
10
-0.65185603241649259
20
-8.0797798134726815
10
-0.80216584187173223
20
-8.0797798134726815
42
-0.13393198299462353
10
-0.86749439143343554
20
-8.0975986073856294
10
-0.86915194304982812
20
-8.0975986073856294
10
-0.86915194304982812
20
-8.104839256708809
10
-0.89021301067654779
20
-8.105068027098735
10
-0.89021301067655256
20
-8.0903579580624498
10
-0.86915194304982812
20
-8.0903579580624498
42
0.20012992987750827
10
-0.78274358099179342
20
-8.0547915367881675
42
0.55239650941413132
10
-0.83390114500712176
20
-7.8303258337865502
42
-0.079270463831406568
10
-0.87759293614610612
20
-7.8067080027466762
42
0.16491441935866982
10
-0.89547436070964059
20
-7.8006453075473532
10
-0.95137878854043434
20
-7.7996382968380313
0
LWPOLYLINE
5
109
100
AcDbEntity
8
0
100
AcDbPolyline
90
16
70
1
43
0.0
10
-0.34468233712280011
20
-7.8411057689547929
42
-0.18843484216325904
10
-0.30065675703098538
20
-7.7284346382717164
10
-0.30065675703098416
20
-7.3177947420679823
10
-0.45516359472831763
20
-7.317794742067985
42
-0.24429750650866353
10
-0.57009635366716194
20
-7.2580750202768956
10
-0.5700963536671626
20
-7.3527810058463174
10
-0.51137621036157466
20
-7.3991145446074
10
-0.48005425087786247
20
-7.5378324220322348
10
-0.40185602159890188
20
-7.5378324220322348
10
-0.40185602159890182
20
-8.0343413032118445
10
-0.34468233712279783
20
-8.0158965805444282
10
-0.34468233712279783
20
-8.0076054991110812
10
-0.24999996626542098
20
-8.0076054991110812
10
-0.24999996626542106
20
-7.9614520722237891
10
-0.30823563965320255
20
-7.8909015738030268
10
-0.34468233712279783
20
-7.8909015738030268
0
LWPOLYLINE
5
110
100
AcDbEntity
8
0
100
AcDbPolyline
90
78
70
1
43
0.0
10
-2.3784386882387398
20
-5.4815118728329617
10
-2.3784386882387398
20
-5.4206849413585916
10
-2.0718769437371138
20
-5.5041030058736808
10
-1.5787059286311829
20
-5.097464529983629
42
0.60986503058352648
10
-1.5983426950523698
20
-5.0071143548330479
10
-1.6976543825259287
20
-4.9805356561804377
10
-1.697654382525928
20
-4.8303441068813555
42
0.15587300327432183
10
-1.6727937545090903
20
-4.7553546707190204
10
-1.6717641175750904
20
-4.6605641993429971
10
-1.6870648761432003
20
-4.6605641993429971
10
-1.6870648761431994
20
-4.5368309419535366
42
0.41421356237309503
10
-1.7373367202805154
20
-4.486559097816218
10
-1.8250705499186608
20
-4.486559097816218
42
0.41421356237309503
10
-1.9767888884512592
20
-4.6382774363488162
10
-1.9767888884512592
20
-4.6605641993429971
10
-2.0243329160941848
20
-4.6605641993429971
10
-2.0243329160941848
20
-4.9382869339110753
10
-2.0718769437371138
20
-4.9164687739127517
10
-2.0718769437371134
20
-3.4179381135714415
10
-2.1494184840883022
20
-3.4179381135714419
10
-2.1494184840883026
20
-4.6144742856387611
10
-2.1996884792052676
20
-4.6144742856387602
10
-2.1996884792052671
20
-3.4179381135714415
10
-2.2772300195564559
20
-3.4179381135714419
10
-2.2772300195564568
20
-4.6419229958026307
42
-0.41421356237309132
10
-2.3317512458954761
20
-4.6964442221416505
10
-2.4691291188899012
20
-4.6964442221416505
10
-2.4691291188898994
20
-4.3391082721097227
42
0.16443721836542347
10
-2.4565811802588189
20
-4.3019857534783119
10
-2.4565811802588176
20
-3.3356900274210832
42
0.25070597930014771
10
-2.4691291188899007
20
-3.3122377408960011
10
-2.4691291188899012
20
-3.303397868603013
10
-2.488100075923283
20
-3.303397868603013
10
-2.5358231704677121
20
-3.2257600246566147
10
-2.5358231704677077
20
-3.2083694557928482
42
-0.4142135623731058
10
-2.5073883499972709
20
-3.1799346353224101
10
-2.4691291188899007
20
-3.1799346353224101
10
-2.4691291188899012
20
-3.1327684050383393
10
-2.1881415079772553
20
-3.1327684050383398
10
-2.0167662478758537
20
-3.2047275973199492
10
-2.0167662478758568
20
-4.1916627246245595
42
0.50877484573258946
10
-1.679584506835083
20
-4.4372542940813204
42
-0.50877484573258347
10
-1.6564633590069797
20
-4.4540949419919071
10
-1.6564633590069802
20
-4.7666122449233006
10
-1.6707738708043334
20
-4.8095967771060204
42
0.41430425874854704
10
-1.5978753237916374
20
-4.9164687739127526
10
-1.1611265901102581
20
-4.9989365197236859
42
0.14030897014663429
10
-1.1055812760406725
20
-4.9933577327145091
10
-1.006595620544799
20
-4.9539479268180058
10
-1.006595620544799
20
-5.6112678275317229
10
-1.0302862853479087
20
-5.6635699543018392
10
-1.166655720970454
20
-5.6714164255882045
42
-0.14166636615083875
10
-1.3222791613369911
20
-5.6359642750501733
42
0.053554116929525053
10
-1.5421750114172244
20
-5.5433982504891635
10
-1.7344311090698545
20
-5.4857264912164823
42
0.50238931279019816
10
-1.9767888884512594
20
-5.6660526623802445
10
-1.9767888884512559
20
-5.8725082870476317
42
-0.70082694629213604
10
-1.9906040401859457
20
-5.877523593487135
42
-0.14803493148545077
10
-2.0800735141043689
20
-5.6673948196830661
42
0.30970777078108147
10
-2.1348823088873465
20
-5.6035354336657788
42
0.31362105261941359
10
-2.3224794414907546
20
-5.6713704831946785
42
-0.75016599874976075
10
-2.3777546701611416
20
-5.6522870147747719
10
-2.3765790079780271
20
-5.6282395673326935
10
-2.3641953334011343
20
-5.6228541914930581
10
-2.3744414563020317
20
-5.6159006738994206
10
-2.362057781725138
20
-5.6105152980597852
10
-2.3723039046260395
20
-5.6035617804661468
10
-2.3601175562111418
20
-5.5993154584850968
10
-2.3703636791120393
20
-5.5923619408914584
10
-2.3578881874029451
20
-5.586446555966055
10
-2.3681343103038421
20
-5.5794930383724166
10
-2.3557506357269529
20
-5.574107662532783
10
-2.3659967586278503
20
-5.5671541449391437
10
-2.3536130840509566
20
-5.5617687690995083
10
-2.3638592069518545
20
-5.55481525150587
10
-2.3514755323749643
20
-5.5494298756662355
10
-2.3617216552758618
20
-5.5424763580725962
42
-0.28120895236147236
10
-2.3551668346268504
20
-5.5046390349469441
0
LWPOLYLINE
5
111
100
AcDbEntity
8
0
100
AcDbPolyline
90
40
70
1
43
0.0
10
-0.34069043860288734
20
-3.4489052856392903
10
-0.34069043860288734
20
-3.5097322171136605
10
-0.64725218310451349
20
-3.4263141525985756
10
-0.64725218310451282
20
-5.5124790449008145
10
-0.56971064275332384
20
-5.5124790449008145
10
-0.56971064275332406
20
-4.315942872833495
10
-0.51944064763635955
20
-4.315942872833495
10
-0.51944064763635922
20
-5.5124790449008145
10
-0.44189910728517023
20
-5.5124790449008145
10
-0.44189910728516996
20
-4.2884941626696254
42
-0.41421356237309154
10
-0.38737788094615083
20
-4.2339729363306056
10
-0.25000000795172589
20
-4.2339729363306056
10
-0.25000000795172705
20
-4.5913088863625342
42
0.16443721836542344
10
-0.26254794658280833
20
-4.6284314049939441
10
-0.26254794658280883
20
-5.5947271310511733
42
0.25070597930014882
10
-0.25000000795172567
20
-5.6181794175762549
10
-0.25000000795172556
20
-5.7976487534339167
10
-0.53098761886437129
20
-5.7976487534339167
10
-0.70236287896577276
20
-5.725689561152306
10
-0.70236287896577043
20
-4.7387544338476957
42
0.50877484573258946
10
-1.0395446200065437
20
-4.4931628643909356
42
-0.50877484573255183
10
-1.0626657678346472
20
-4.4763222164803498
10
-1.0626657678346472
20
-4.1638049135489563
10
-1.048355256037294
20
-4.1208203813662347
42
0.41430425874854526
10
-1.1212538030499899
20
-4.0139483845595025
10
-1.5580025367313695
20
-3.9314806387485701
42
0.14030897014663424
10
-1.6135478508009549
20
-3.9370594257577474
10
-1.7125335062968285
20
-3.976469231654252
10
-1.7125335062968285
20
-3.3191493309405335
10
-1.6888428414937189
20
-3.2668472041704164
10
-1.5524734058711733
20
-3.2590007328840525
42
-0.14166636615083059
10
-1.3968499655046365
20
-3.2944528834220819
42
0.053554116929525053
10
-1.1769541154244034
20
-3.3870189079830926
10
-0.9846980177717729
20
-3.4446906672557729
42
0.50238931279019705
10
-0.74234023839036789
20
-3.2643644960920115
10
-0.74234023839037211
20
-3.0579088714246239
42
-0.70082694629218356
10
-0.72852508665568061
20
-3.052893564985121
42
-0.14803493148545474
10
-0.63905561273725831
20
-3.2630223387891895
42
0.30970777078108092
10
-0.58424681795428102
20
-3.3268817248064777
10
-0.41912777035821397
20
-3.3709556337745776
0
LWPOLYLINE
5
112
100
AcDbEntity
8
0
100
AcDbPolyline
90
9
70
1
43
0.0
10
-0.74840293358969379
20
-4.1949213994179324
42
-0.079270463831427232
10
-0.77202076462956937
20
-4.1512296082789488
42
0.55239650941412077
10
-0.99648646763118354
20
-4.1000720442636203
42
0.19868608573611457
10
-1.0320642506984268
20
-4.1858305593346374
10
-1.0320642506984279
20
-4.3935862165187194
42
0.41421356237309098
10
-0.98179240656111166
20
-4.4438580606560389
10
-0.89405857692296609
20
-4.4438580606560381
42
0.41421356237309404
10
-0.74234023839036778
20
-4.2921397221234399
10
-0.74234023839036778
20
-4.2128028239814679
42
0.16491441935868656
0
LWPOLYLINE
5
113
100
AcDbEntity
8
0
100
AcDbPolyline
90
78
70
1
43
0.0
10
-3.2436860692538265
20
-2.5987433469809682
10
-3.2436860692538265
20
-2.5379164155065981
10
-2.9371243247522005
20
-2.6213344800216869
10
-2.4439533096462691
20
-2.2146960041316359
42
0.60986503058352803
10
-2.4635900760674567
20
-2.1243458289810553
10
-2.562901763541015
20
-2.0977671303284451
10
-2.562901763541015
20
-1.9475755810293622
42
0.15587300327432224
10
-2.538041135524177
20
-1.8725861448670276
10
-2.5370114985901768
20
-1.7777956734910039
10
-2.5523122571582868
20
-1.7777956734910041
10
-2.5523122571582859
20
-1.6540624161015434
42
0.41421356237309503
10
-2.6025841012956019
20
-1.6037905719642245
10
-2.6903179309337473
20
-1.6037905719642256
42
0.41421356237309503
10
-2.8420362694663459
20
-1.7555089104968227
10
-2.8420362694663455
20
-1.7777956734910039
10
-2.8895802971092714
20
-1.7777956734910039
10
-2.8895802971092714
20
-2.0555184080590827
10
-2.9371243247522001
20
-2.0337002480607596
10
-2.9371243247522001
20
-0.53516958771944856
10
-3.0146658651033889
20
-0.53516958771944856
10
-3.0146658651033889
20
-1.7317057597867676
10
-3.0649358602203542
20
-1.7317057597867676
10
-3.0649358602203538
20
-0.53516958771944856
10
-3.1424774005715426
20
-0.53516958771944878
10
-3.1424774005715426
20
-1.7591544699506376
42
-0.41421356237309692
10
-3.1969986269105628
20
-1.8136756962896572
10
-3.3343764999049879
20
-1.8136756962896572
10
-3.3343764999049861
20
-1.456339746257729
42
0.16443721836542208
10
-3.3218285612739047
20
-1.4192172276263189
10
-3.3218285612739042
20
-0.45292150156909033
42
0.25070597930015143
10
-3.334376499904987
20
-0.42946921504400776
10
-3.334376499904987
20
-0.42062934275101932
10
-3.3533474569383697
20
-0.42062934275101932
10
-3.4010705514827984
20
-0.34299149880462154
10
-3.4010705514827957
20
-0.32560092994085421
42
-0.41421356237311535
10
-3.3726357310123571
20
-0.29716610947041666
10
-3.334376499904987
20
-0.29716610947041666
10
-3.334376499904987
20
-0.24999987918634611
10
-3.053388888992342
20
-0.24999987918634611
10
-2.8820136288909399
20
-0.32195907146795638
10
-2.882013628890943
20
-1.3088941987725666
42
0.50877484573258902
10
-2.5448318878501697
20
-1.5544857682293278
42
-0.50877484573259912
10
-2.5217107400220664
20
-1.5713264161399136
10
-2.5217107400220664
20
-1.8838437190713071
10
-2.5360212518194198
20
-1.9268282512540278
42
0.41430425874854504
10
-2.4631227048067239
20
-2.03370024806076
10
-2.0263739711253441
20
-2.1161679938716929
42
0.14030897014663357
10
-1.9708286570557592
20
-2.1105892068625156
10
-1.8718430015598855
20
-2.0711794009660118
10
-1.8718430015598855
20
-2.7284993016797299
10
-1.8955336663629956
20
-2.7808014284498466
10
-2.0319031019855402
20
-2.7886478997362114
42
-0.14166636615083511
10
-2.1875265423520776
20
-2.7531957491981811
42
0.053554116929525178
10
-2.407422392432311
20
-2.66062972463717
10
-2.5996784900849415
20
-2.6029579653644896
42
0.50238931279019705
10
-2.8420362694663464
20
-2.783284136528251
10
-2.8420362694663424
20
-2.9897397611956391
42
-0.70082694629217035
10
-2.8558514212010326
20
-2.9947550676351411
42
-0.14803493148545202
10
-2.9453208951194556
20
-2.7846262938310735
42
0.30970777078108214
10
-3.0001296899024332
20
-2.7207669078137853
42
0.31362105261941298
10
-3.1877268225058404
20
-2.7886019573426846
42
-0.75016599874978129
10
-3.2430020511762274
20
-2.7695184889227793
10
-3.2418263889931138
20
-2.7454710414807004
10
-3.2294427144162201
20
-2.7400856656410655
10
-3.239688837317118
20
-2.7331321480474271
10
-3.2273051627402247
20
-2.7277467722077926
10
-3.2375512856411257
20
-2.7207932546141533
10
-3.2253649372262281
20
-2.7165469326331033
10
-3.2356110601271251
20
-2.7095934150394645
10
-3.2231355684180318
20
-2.7036780301140624
10
-3.2333816913189288
20
-2.6967245125204231
10
-3.2209980167420396
20
-2.6913391366807891
10
-3.2312441396429366
20
-2.6843856190871498
10
-3.2188604650660433
20
-2.6790002432475157
10
-3.2291065879669403
20
-2.6720467256538769
10
-3.216722913390051
20
-2.6666613498142429
10
-3.226969036290948
20
-2.659707832220604
42
-0.28120895236148019
10
-3.2204142156419366
20
-2.6218705090949515
0
LWPOLYLINE
5
114
100
AcDbEntity
8
0
100
AcDbPolyline
90
16
70
1
43
0.0
10
-2.1879475920668066
20
-1.1559014358368986
42
-0.18843484216325823
10
-2.2319731721586211
20
-1.2685725665199745
10
-2.2319731721586225
20
-1.6792124627237095
10
-2.0774663344612887
20
-1.6792124627237075
42
-0.24429750650866305
10
-1.9625335755224445
20
-1.7389321845147967
10
-1.962533575522444
20
-1.6442261989453746
10
-2.021253718828032
20
-1.5978926601842922
10
-2.0525756783117441
20
-1.4591747827594577
10
-2.1307739075907044
20
-1.4591747827594577
10
-2.1307739075907048
20
-0.96266590157984733
10
-2.1879475920668083
20
-0.9811106242472647
10
-2.1879475920668083
20
-0.98940170568061114
10
-2.2826299629241853
20
-0.98940170568061114
10
-2.2826299629241853
20
-1.0355551325679024
10
-2.2243942895364039
20
-1.1061056309886661
10
-2.1879475920668083
20
-1.1061056309886663
0
LWPOLYLINE
5
115
100
AcDbEntity
8
0
100
AcDbPolyline
90
9
70
1
43
0.0
10
-2.0465115246669301
20
-0.69598813731726972
42
-0.79814652734834513
10
-2.0599712977117255
20
-0.71319638244968486
42
-0.2142199925685683
10
-2.1569041328670022
20
-0.60008789610367319
10
-2.1740799115122966
20
-0.54178194714467021
42
0.29836624871087186
10
-2.1436892757599058
20
-0.68767753102499818
42
0.091453928931828993
10
-2.1074069031668667
20
-0.71266585867331089
10
-2.2734492554606653
20
-0.71266585867330978
10
-2.2734492554606653
20
-0.43353130178418292
10
-2.0387187710442993
20
-0.4335313017841827
42
0.37248527014470012
0
LWPOLYLINE
5
116
100
AcDbEntity
8
0
100
AcDbPolyline
90
40
70
1
43
0.0
10
-1.6218430841757208
20
-2.5987433469809718
10
-1.6218430841757208
20
-2.5379164155066021
10
-1.315281339674095
20
-2.6213344800216869
10
-1.3152813396740943
20
-0.53516958771944856
10
-1.3928228800252831
20
-0.53516958771944856
10
-1.3928228800252835
20
-1.7317057597867676
10
-1.4430928751422483
20
-1.7317057597867676
10
-1.443092875142248
20
-0.53516958771944856
10
-1.5206344154934368
20
-0.53516958771944878
10
-1.5206344154934373
20
-1.7591544699506376
42
-0.41421356237309503
10
-1.5751556418324568
20
-1.8136756962896572
10
-1.7125335148268819
20
-1.8136756962896572
10
-1.7125335148268808
20
-1.456339746257729
42
0.16443721836542291
10
-1.6999855761957996
20
-1.4192172276263189
10
-1.6999855761957987
20
-0.45292150156909033
42
0.2507059793001542
10
-1.7125335148268819
20
-0.42946921504400776
10
-1.7125335148268814
20
-0.24999987918634611
10
-1.4315459039142362
20
-0.24999987918634611
10
-1.2601706438128346
20
-0.32195907146795638
10
-1.2601706438128375
20
-1.3088941987725666
42
0.50877484573258924
10
-0.92298890277206402
20
-1.5544857682293278
42
-0.50877484573258103
10
-0.89986775494396087
20
-1.5713264161399136
10
-0.89986775494396087
20
-1.8838437190713071
10
-0.91417826674131419
20
-1.9268282512540278
42
0.41430425874854565
10
-0.84127971972861837
20
-2.03370024806076
10
-0.40453098604723881
20
-2.1161679938716929
42
0.14030897014663407
10
-0.34898567197765346
20
-2.1105892068625156
10
-0.25000001648177983
20
-2.0711794009660118
10
-0.25000001648177994
20
-2.7284993016797299
10
-0.27369068128488994
20
-2.7808014284498466
10
-0.41006011690743466
20
-2.7886478997362114
42
-0.14166636615083444
10
-0.56568355727397213
20
-2.7531957491981811
42
0.053554116929525053
10
-0.78557940735420506
20
-2.66062972463717
10
-0.97783550500683558
20
-2.6029579653644896
42
0.50238931279019705
10
-1.2201932843882406
20
-2.783284136528251
10
-1.2201932843882366
20
-2.9897397611956391
42
-0.70082694629218845
10
-1.2340084361229278
20
-2.9947550676351411
42
-0.1480349314854528
10
-1.3234779100413501
20
-2.7846262938310735
42
0.30970777078108153
10
-1.3782867048243272
20
-2.7207669078137844
10
-1.5434057524203939
20
-2.6766929988456849
0
LWPOLYLINE
5
117
100
AcDbEntity
8
0
100
AcDbPolyline
90
9
70
1
43
0.0
10
-1.214130589188914
20
-1.852727233202331
42
-0.079270463831426899
10
-1.1905127581490389
20
-1.8964190243413146
42
0.55239650941411922
10
-0.96604705514742462
20
-1.9475765883566427
42
0.19868608573611271
10
-0.93046927208018126
20
-1.8618180732856258
10
-0.93046927208018004
20
-1.6540624161015434
42
0.41421356237309709
10
-0.98074111621749627
20
-1.6037905719642245
10
-1.0684749458556417
20
-1.6037905719642256
42
0.41421356237309742
10
-1.2201932843882404
20
-1.7555089104968227
10
-1.2201932843882404
20
-1.8348458086387953
42
0.16491441935870524
0
LWPOLYLINE
5
118
100
AcDbEntity
8
0
100
AcDbPolyline
90
4
70
1
43
0.0
10
-0.071279653113658137
20
-0.58881833418440754
10
-0.071279653113658137
20
-1.7837002239481881
10
-0.19127965311365813
20
-1.7837002239481881
10
-0.19127965311365813
20
-0.58881833418440754
0
LWPOLYLINE
5
119
100
AcDbEntity
8
0
100
AcDbPolyline
90
4
70
1
43
0.0
10
-0.27127965311365798
20
-0.58881833418440754
10
-0.27127965311365798
20
-1.7837002239481881
10
-0.39127965311365803
20
-1.7837002239481881
10
-0.39127965311365798
20
-0.58881833418440754
0
LWPOLYLINE
5
120
100
AcDbEntity
8
0
100
AcDbPolyline
90
4
70
1
43
0.0
10
-0.4712796531136581
20
-0.58881833418440754
10
-0.4712796531136581
20
-1.7837002239481881
10
-0.59127965311365804
20
-1.7837002239481881
10
-0.59127965311365804
20
-0.58881833418440754
0
LWPOLYLINE
5
121
100
AcDbEntity
8
0
100
AcDbPolyline
90
4
70
1
43
0.0
10
-0.67127965311365811
20
-0.58881833418440754
10
-0.67127965311365811
20
-1.7837002239481881
10
-0.791279653113658
20
-1.7837002239481881
10
-0.791279653113658
20
-0.58881833418440754
0
LWPOLYLINE
5
122
100
AcDbEntity
8
0
100
AcDbPolyline
90
4
70
1
43
0.0
10
3.2631145762725142e-33
20
0
10
0
20
-9.8425196850393686
10
-9.8425196850393686
20
-9.8425196850393686
10
-9.8425196850393686
20
1.4695761589768129e-17
0
ENDSEC
0
SECTION
2
OBJECTS
0
DICTIONARY
5
C
100
AcDbDictionary
3
ACAD_GROUP
350
D
3
ACAD_MLINESTYLE
350
17
0
DICTIONARY
5
D
100
AcDbDictionary
0
DICTIONARY
5
1A
330
C
100
AcDbDictionary
0
DICTIONARY
5
17
100
AcDbDictionary
0
ENDSEC
0
EOF
