0
SECTION
2
HEADER
9
$INSUNITS
70
4
9
$ACADVER
1
AC1014
9
$HANDSEED
5
FFFF
0
ENDSEC
0
SECTION
2
TABLES
0
TABLE
2
VPORT
5
8
100
AcDbSymbolTable
0
ENDTAB
0
TABLE
2
LTYPE
5
5
100
AcDbSymbolTable
0
LTYPE
5
14
100
AcDbSymbolTableRecord
100
AcDbLinetypeTableRecord
2
BYBLOCK
70
0
0
LTYPE
5
15
100
AcDbSymbolTableRecord
100
AcDbLinetypeTableRecord
2
BYLAYER
70
0
0
ENDTAB
0
TABLE
2
LAYER
5
2
100
AcDbSymbolTable
70
2
0
LAYER
5
50
100
AcDbSymbolTableRecord
100
AcDbLayerTableRecord
2
0
70
0
6
CONTINUOUS
0
ENDTAB
0
TABLE
2
STYLE
5
3
100
AcDbSymbolTable
70
1
0
STYLE
5
11
100
AcDbSymbolTableRecord
100
AcDbTextStyleTableRecord
2
STANDARD
70
0
0
ENDTAB
0
TABLE
2
VIEW
5
6
100
AcDbSymbolTable
70
0
0
ENDTAB
0
TABLE
2
UCS
5
7
100
AcDbSymbolTable
70
0
0
ENDTAB
0
TABLE
2
APPID
5
9
100
AcDbSymbolTable
70
2
0
APPID
5
12
100
AcDbSymbolTableRecord
100
AcDbRegAppTableRecord
2
ACAD
70
0
0
ENDTAB
0
TABLE
2
DIMSTYLE
5
A
100
AcDbSymbolTable
70
1
0
ENDTAB
0
TABLE
2
BLOCK_RECORD
5
1
100
AcDbSymbolTable
70
1
0
BLOCK_RECORD
5
1F
100
AcDbSymbolTableRecord
100
AcDbBlockTableRecord
2
*MODEL_SPACE
0
BLOCK_RECORD
5
1B
100
AcDbSymbolTableRecord
100
AcDbBlockTableRecord
2
*PAPER_SPACE
0
ENDTAB
0
ENDSEC
0
SECTION
2
BLOCKS
0
BLOCK
5
20
100
AcDbEntity
100
AcDbBlockBegin
2
*MODEL_SPACE
0
ENDBLK
5
21
100
AcDbEntity
100
AcDbBlockEnd
0
BLOCK
5
1C
100
AcDbEntity
100
AcDbBlockBegin
2
*PAPER_SPACE
0
ENDBLK
5
1D
100
AcDbEntity
100
AcDbBlockEnd
0
ENDSEC
0
SECTION
2
ENTITIES
0
LWPOLYLINE
5
100
100
AcDbEntity
8
0
100
AcDbPolyline
90
32
70
1
43
0.0
10
-1044.3121032709485
20
512.6610849910935
10
-1008.3121032433054
20
512.66108499109328
10
-1008.3121032433053
20
522.66108499109305
10
-944.31210327771623
20
522.66108499109259
10
-944.31210327771623
20
512.66108499109259
10
-908.31210327101746
20
512.66108499109225
10
-908.3121032714846
20
484.41974945068387
10
-938.3121032714846
20
484.41974945068387
10
-938.3121032714846
20
479.41974945068387
10
-916.31210327148438
20
479.41974945068387
42
-0.99999999999999989
10
-916.3121032714846
20
463.41974945068392
10
-938.3121032714846
20
463.41974945068415
10
-938.3121032714846
20
458.41974945068392
10
-908.3121032714846
20
458.41974945068392
10
-908.3121032714846
20
299.61974945068556
10
-938.3121032714846
20
299.61974945068556
10
-938.3121032714846
20
294.61974945068556
10
-916.3121032714846
20
294.61974945068556
42
-0.99999999999999989
10
-916.3121032714846
20
278.61974945068562
10
-1036.3121032714844
20
278.61974945068562
42
-0.99999999999999989
10
-1036.3121032714844
20
294.61974945068562
10
-1014.3121032714844
20
294.61974945068562
10
-1014.3121032714844
20
299.61974945068562
10
-1044.3121032714844
20
299.61974945068562
10
-1044.3121032714844
20
458.41974945068392
10
-1014.3121032714844
20
458.41974945068392
10
-1014.3121032714844
20
463.41974945068415
10
-1036.3121032714844
20
463.41974945068392
42
-0.99999999999999989
10
-1036.3121032714844
20
479.41974945068387
10
-1014.3121032714844
20
479.41974945068387
10
-1014.3121032714844
20
484.41974945068398
10
-1044.3121032714844
20
484.41974945068404
0
LWPOLYLINE
5
101
100
AcDbEntity
8
0
100
AcDbPolyline
90
28
70
1
43
0.0
10
-996.31210327148438
20
402.51974945067809
10
-996.31210327148335
20
400.01974945067809
10
-956.31210327148381
20
400.0197494506782
10
-956.31210327148369
20
402.51974945067798
10
-952.31210327148392
20
402.51974945067798
10
-952.31210327148392
20
400.01974945067809
10
-950.81210327148438
20
400.01974945067809
10
-950.81210327148381
20
415.01974945067809
10
-952.31210327148369
20
415.01974945067815
10
-952.31210327148415
20
412.61974945067811
10
-956.31210327148392
20
412.61974945067823
10
-956.31210327148392
20
415.01974945067809
10
-963.31210327148347
20
415.01974945067815
42
-0.41421356237319218
10
-966.31210327148438
20
418.01974945067809
10
-966.31210327148438
20
427.01974945067809
42
0.4142135623730992
10
-971.31210327148438
20
432.0197494506782
10
-981.31210327148438
20
432.0197494506782
42
0.41421356237307005
10
-986.31210327148438
20
427.01974945067855
10
-986.31210327148324
20
418.01974945067832
42
-0.41421356237309503
10
-989.31210327148335
20
415.01974945067832
10
-996.31210327148438
20
415.01974945067832
10
-996.31210327148438
20
412.61974945067828
10
-1000.3121032714835
20
412.61974945067823
10
-1000.3121032714832
20
415.0197494506782
10
-1001.8121032714834
20
415.0197494506782
10
-1001.8121032714835
20
400.0197494506782
10
-1000.3121032714835
20
400.01974945067798
10
-1000.3121032714844
20
402.51974945067815
0
LWPOLYLINE
5
102
100
AcDbEntity
8
0
100
AcDbPolyline
90
4
70
1
43
0.0
10
-924.3121032714846
20
465.41974945068398
10
-924.3121032714846
20
477.41974945068392
10
-938.3121032714846
20
477.41974945068392
10
-938.31210327148472
20
465.41974945068398
0
CIRCLE
5
103
100
AcDbEntity
8
0
100
AcDbCircle
10
-916.31210327148449
20
471.41974945068392
30
0
40
2.8999999999999999
210
1.7645584867764538e-100
220
1.4408713500129218e-84
230
1
0
LWPOLYLINE
5
104
100
AcDbEntity
8
0
100
AcDbPolyline
90
4
70
1
43
0.0
10
-1014.3121032714844
20
465.41974945068398
10
-1014.3121032714844
20
477.41974945068392
10
-1028.3121032714844
20
477.41974945068392
10
-1028.3121032714844
20
465.41974945068398
0
CIRCLE
5
105
100
AcDbEntity
8
0
100
AcDbCircle
10
-1036.3121032714844
20
471.41974945068392
30
0
40
2.8999999999999999
210
1.7645584867764538e-100
220
1.4408713500129218e-84
230
1
0
LWPOLYLINE
5
106
100
AcDbEntity
8
0
100
AcDbPolyline
90
28
70
1
43
0.0
10
-956.31210327148369
20
355.51974945069162
10
-956.31210327148381
20
358.01974945069162
10
-996.31210327148335
20
358.01974945069162
10
-996.31210327148438
20
355.51974945069162
10
-1000.3121032714844
20
355.51974945069162
10
-1000.3121032714832
20
358.01974945069162
10
-1001.8121032714834
20
358.01974945069162
10
-1001.8121032714835
20
343.01974945069162
10
-1000.3121032714835
20
343.01974945069162
10
-1000.3121032714835
20
345.41974945069165
10
-996.31210327148438
20
345.41974945069165
10
-996.31210327148438
20
343.01974945069162
10
-989.31210327148335
20
343.01974945069156
42
-0.41421356237309503
10
-986.31210327148335
20
340.01974945069156
10
-986.31210327148438
20
331.01974945069162
42
0.41421356237310752
10
-981.31210327148438
20
326.01974945069162
10
-971.31210327148438
20
326.01974945069162
42
0.41421356237310752
10
-966.31210327148438
20
331.01974945069162
10
-966.31210327148438
20
340.01974945069156
42
-0.41421356237319218
10
-963.31210327148347
20
343.01974945069162
10
-956.31210327148392
20
343.01974945069162
10
-956.31210327148392
20
345.41974945069165
10
-952.31210327148403
20
345.41974945069165
10
-952.31210327148369
20
343.01974945069162
10
-950.81210327148392
20
343.01974945069162
10
-950.81210327148438
20
358.01974945069162
10
-952.31210327148392
20
358.01974945069162
10
-952.31210327148392
20
355.51974945069162
0
LWPOLYLINE
5
107
100
AcDbEntity
8
0
100
AcDbPolyline
90
4
70
1
43
0.0
10
-924.31210327148449
20
292.61974945068562
10
-938.3121032714846
20
292.61974945068562
10
-938.31210327148472
20
280.61974945068562
10
-924.3121032714846
20
280.61974945068562
0
LWPOLYLINE
5
108
100
AcDbEntity
8
0
100
AcDbPolyline
90
4
70
1
43
0.0
10
-1014.3121032714844
20
280.61974945068562
10
-1014.3121032714844
20
292.61974945068562
10
-1028.3121032714844
20
292.61974945068562
10
-1028.3121032714844
20
280.61974945068562
0
CIRCLE
5
109
100
AcDbEntity
8
0
100
AcDbCircle
10
-916.3121032714846
20
286.61974945068556
30
0
40
2.8999999999999999
210
1.7645584867764538e-100
220
1.4408713500129218e-84
230
1
0
CIRCLE
5
110
100
AcDbEntity
8
0
100
AcDbCircle
10
-1036.3121032714844
20
286.61974945068562
30
0
40
2.8999999999999999
210
1.7645584867764538e-100
220
1.4408713500129218e-84
230
1
0
CIRCLE
5
111
100
AcDbEntity
8
0
100
AcDbCircle
10
-931.31210327148426
20
353.21974945068564
30
0
40
2.75
210
-2.0590230357872113e-84
220
1.4408713500129222e-84
230
1
0
CIRCLE
5
112
100
AcDbEntity
8
0
100
AcDbCircle
10
-1021.3121032714844
20
353.21974945068462
30
0
40
2.8999999999999999
210
1.7645584867764538e-100
220
1.4408713500129218e-84
230
1
0
CIRCLE
5
113
100
AcDbEntity
8
0
100
AcDbCircle
10
-945.81210327148415
20
350.36974945068556
30
0
40
1.6500000000000001
210
-2.0590230357872113e-84
220
1.440871350012922e-84
230
1
0
CIRCLE
5
114
100
AcDbEntity
8
0
100
AcDbCircle
10
-914.56210327381041
20
407.66974945068409
30
0
40
1.6500000000000001
210
-2.0590230357872113e-84
220
1.440871350012922e-84
230
1
0
CIRCLE
5
115
100
AcDbEntity
8
0
100
AcDbCircle
10
-1021.3121032714844
20
404.81974945068498
30
0
40
2.8999999999999999
210
1.7645584867764538e-100
220
1.4408713500129218e-84
230
1
0
CIRCLE
5
116
100
AcDbEntity
8
0
100
AcDbCircle
10
-1038.0621032691583
20
407.66974945068409
30
0
40
1.6500000000000001
210
-2.0590230357872113e-84
220
1.440871350012922e-84
230
1
0
CIRCLE
5
117
100
AcDbEntity
8
0
100
AcDbCircle
10
-931.31210327148426
20
404.81974945068424
30
0
40
2.75
210
-2.0590230357872113e-84
220
1.4408713500129222e-84
230
1
0
CIRCLE
5
118
100
AcDbEntity
8
0
100
AcDbCircle
10
-945.81210327148415
20
407.66974945068432
30
0
40
1.6500000000000001
210
-2.0590230357872113e-84
220
1.440871350012922e-84
230
1
0
CIRCLE
5
119
100
AcDbEntity
8
0
100
AcDbCircle
10
-1006.8121032714844
20
407.66974945068432
30
0
40
1.6500000000000001
210
-2.0590230357872113e-84
220
1.440871350012922e-84
230
1
0
CIRCLE
5
120
100
AcDbEntity
8
0
100
AcDbCircle
10
-914.56210327381041
20
350.36974945068556
30
0
40
1.6500000000000001
210
-2.0590230357872113e-84
220
1.440871350012922e-84
230
1
0
CIRCLE
5
121
100
AcDbEntity
8
0
100
AcDbCircle
10
-1038.0621032691583
20
350.36974945068556
30
0
40
1.6500000000000001
210
-2.0590230357872113e-84
220
1.440871350012922e-84
230
1
0
CIRCLE
5
122
100
AcDbEntity
8
0
100
AcDbCircle
10
-1006.8121032714844
20
350.36974945068556
30
0
40
1.6500000000000001
210
-2.0590230357872113e-84
220
1.440871350012922e-84
230
1
0
CIRCLE
5
123
100
AcDbEntity
8
0
100
AcDbCircle
10
-1001.4371032714835
20
488.3197500765246
30
0
40
1.6500000000000001
210
-2.0590230357872113e-84
220
1.440871350012922e-84
230
1
0
CIRCLE
5
124
100
AcDbEntity
8
0
100
AcDbCircle
10
-945.78069649800557
20
471.11974945068562
30
0
40
1.6500000000000001
210
-2.0590230357872113e-84
220
1.440871350012922e-84
230
1
0
CIRCLE
5
125
100
AcDbEntity
8
0
100
AcDbCircle
10
-951.18710327148517
20
488.3197500765246
30
0
40
1.6500000000000001
210
-2.0590230357872113e-84
220
1.440871350012922e-84
230
1
0
CIRCLE
5
126
100
AcDbEntity
8
0
100
AcDbCircle
10
-1006.8435100449633
20
471.11974945068567
30
0
40
1.6500000000000001
210
-2.0590230357872113e-84
220
1.440871350012922e-84
230
1
0
CIRCLE
5
127
100
AcDbEntity
8
0
100
AcDbCircle
10
-976.31210327148438
20
483.64474945068059
30
0
40
11.500000000000002
210
1.7645584867764538e-100
220
1.4408713500129218e-84
230
1
0
CIRCLE
5
128
100
AcDbEntity
8
0
100
AcDbCircle
10
-960.43710327148335
20
467.76974945065649
30
0
40
3.0000000000000004
210
1.7645584867764538e-100
220
1.4408713500129218e-84
230
1
0
CIRCLE
5
129
100
AcDbEntity
8
0
100
AcDbCircle
10
-960.43710327148335
20
499.51974945065643
30
0
40
3.0000000000000004
210
1.7645584867764538e-100
220
1.4408713500129218e-84
230
1
0
CIRCLE
5
130
100
AcDbEntity
8
0
100
AcDbCircle
10
-992.1871032714854
20
467.76974945065649
30
0
40
3.0000000000000004
210
1.7645584867764538e-100
220
1.4408713500129218e-84
230
1
0
CIRCLE
5
131
100
AcDbEntity
8
0
100
AcDbCircle
10
-992.1871032714854
20
499.51974945065643
30
0
40
3.0000000000000004
210
1.7645584867764538e-100
220
1.4408713500129218e-84
230
1
0
LWPOLYLINE
5
132
100
AcDbEntity
8
0
100
AcDbPolyline
90
5
70
1
43
0.0
10
-1044.3121643066406
20
564.71113128662137
10
-1044.3121643066406
20
566.86113128662112
10
-1000.1621643066405
20
611.01113128662109
10
-998.01216430664124
20
611.01113128662109
10
-998.01216430664124
20
564.71113128662125
0
LWPOLYLINE
5
133
100
AcDbEntity
8
0
100
AcDbPolyline
90
14
70
1
43
0.0
10
-1034.3121643066406
20
553.26113128662223
10
-1044.3121643066406
20
553.26113128662223
10
-1044.3121643066406
20
564.71113128662148
10
-998.01216430664124
20
564.71113128662137
10
-998.01216430664124
20
611.01113128662109
10
-986.56216430664085
20
611.01113128662109
10
-986.56216430664108
20
601.01113128662109
10
-979.56216430664097
20
601.01113128662109
10
-979.56216430664097
20
611.01113128662109
10
-972.31216430664108
20
611.01113128662109
10
-972.31216430664119
20
539.01113128662143
10
-1044.3121643066406
20
539.01113128662143
10
-1044.3121643066406
20
546.26113128662234
10
-1034.3121643066406
20
546.26113128662234
0
CIRCLE
5
134
100
AcDbEntity
8
0
100
AcDbCircle
10
-1037.3121643066409
20
561.21113128662148
30
0
40
1.6500000000000001
210
1.1765606933715747e-68
220
-0
230
1
0
CIRCLE
5
135
100
AcDbEntity
8
0
100
AcDbCircle
10
-975.81216430664108
20
604.01113128662109
30
0
40
1.6500000000000001
210
1.1765606933715747e-68
220
-0
230
1
0
CIRCLE
5
136
100
AcDbEntity
8
0
100
AcDbCircle
10
-1037.3121643066409
20
542.51113128662143
30
0
40
1.6500000000000001
210
1.1765606933715747e-68
220
-0
230
1
0
CIRCLE
5
137
100
AcDbEntity
8
0
100
AcDbCircle
10
-994.51216430664135
20
604.01113128662109
30
0
40
1.6500000000000001
210
1.1765606933715747e-68
220
-0
230
1
0
LWPOLYLINE
5
138
100
AcDbEntity
8
0
100
AcDbPolyline
90
4
70
1
43
0.0
10
-1026.1944728530168
20
553.16113128662153
10
-1026.1944728530168
20
558.5611312866215
10
-1032.4298557602649
20
558.5611312866215
10
-1032.4298557602649
20
553.16113128662153
0
LWPOLYLINE
5
139
100
AcDbEntity
8
0
100
AcDbPolyline
90
4
70
1
43
0.0
10
-1026.1944728530168
20
546.36113128662078
10
-1032.4298557602649
20
546.36113128662078
10
-1032.4298557602649
20
540.9611312866208
10
-1026.1944728530168
20
540.9611312866208
0
LWPOLYLINE
5
140
100
AcDbEntity
8
0
100
AcDbPolyline
90
4
70
1
43
0.0
10
-986.46216430664117
20
599.12882274024514
10
-991.86216430664115
20
599.12882274024514
10
-991.86216430664126
20
592.89343983299705
10
-986.46216430664128
20
592.89343983299705
0
LWPOLYLINE
5
141
100
AcDbEntity
8
0
100
AcDbPolyline
90
4
70
1
43
0.0
10
-974.26216430664044
20
599.12882274024514
10
-979.66216430664053
20
599.12882274024514
10
-979.66216430664065
20
592.89343983299705
10
-974.26216430664056
20
592.89343983299705
0
CIRCLE
5
142
100
AcDbEntity
8
0
100
AcDbCircle
10
-1003.3121643066406
20
543.66113128662334
30
0
40
1.6500000000000001
210
1.1765606933715747e-68
220
-0
230
1
0
CIRCLE
5
143
100
AcDbEntity
8
0
100
AcDbCircle
10
-1003.3121643066406
20
555.86113128662146
30
0
40
1.6500000000000001
210
1.1765606933715747e-68
220
-0
230
1
0
CIRCLE
5
144
100
AcDbEntity
8
0
100
AcDbCircle
10
-989.16216430664122
20
570.36113128662112
30
0
40
1.6500000000000001
210
1.1765606933715747e-68
220
-0
230
1
0
CIRCLE
5
145
100
AcDbEntity
8
0
100
AcDbCircle
10
-976.96216430664049
20
570.36113128662112
30
0
40
1.6500000000000001
210
1.1765606933715747e-68
220
-0
230
1
0
LWPOLYLINE
5
146
100
AcDbEntity
8
0
100
AcDbPolyline
90
8
70
1
43
0.0
10
-962.31216430664062
20
529.01113128662109
10
-1037.3121643066406
20
529.01113128662109
10
-1044.3121643066406
20
536.01113128662109
10
-1044.3121643066406
20
539.01113128662143
10
-972.31216430664131
20
539.01113128662143
10
-972.31216430664119
20
611.01113128662109
10
-969.31216430664062
20
611.01113128662109
10
-962.31216430664062
20
604.01113128662109
0
CIRCLE
5
147
100
AcDbEntity
8
0
100
AcDbCircle
10
-967.31216430664062
20
564.01113128662109
30
0
40
1.6500000000000001
210
1.1765606933715747e-68
220
-0
230
1
0
CIRCLE
5
148
100
AcDbEntity
8
0
100
AcDbCircle
10
-967.31216430664062
20
584.01113128662109
30
0
40
1.6500000000000001
210
1.1765606933715747e-68
220
-0
230
1
0
CIRCLE
5
149
100
AcDbEntity
8
0
100
AcDbCircle
10
-1006.3121643066406
20
534.01113128662109
30
0
40
1.6500000000000001
210
1.1765606933715747e-68
220
-0
230
1
0
CIRCLE
5
150
100
AcDbEntity
8
0
100
AcDbCircle
10
-984.31216430664062
20
534.01113128662109
30
0
40
1.6500000000000001
210
1.1765606933715747e-68
220
-0
230
1
0
LWPOLYLINE
5
151
100
AcDbEntity
8
0
100
AcDbPolyline
90
4
70
1
43
0.0
10
-1038.3121643066406
20
553.26113128662223
10
-1038.3121643066406
20
546.26113128662234
10
-1044.3121643066406
20
546.26113128662234
10
-1044.3121643066406
20
553.26113128662223
0
LWPOLYLINE
5
152
100
AcDbEntity
8
0
100
AcDbPolyline
90
4
70
1
43
0.0
10
-979.56216430664085
20
605.01113128662109
10
-986.56216430664085
20
605.01113128662109
10
-986.56216430664108
20
611.01113128662109
10
-979.56216430664097
20
611.01113128662109
0
LWPOLYLINE
5
153
100
AcDbEntity
8
0
100
AcDbPolyline
90
5
70
1
43
0.0
10
-955.96224975585938
20
564.73554534912137
10
-955.96224975585938
20
566.88554534912112
10
-911.81224975585928
20
611.03554534912109
10
-909.66224975585999
20
611.03554534912109
10
-909.66224975585999
20
564.73554534912125
0
LWPOLYLINE
5
154
100
AcDbEntity
8
0
100
AcDbPolyline
90
14
70
1
43
0.0
10
-945.96224975585938
20
553.28554534912223
10
-955.96224975585938
20
553.28554534912223
10
-955.96224975585938
20
564.73554534912148
10
-909.66224975585999
20
564.73554534912137
10
-909.66224975585999
20
611.03554534912109
10
-898.2122497558596
20
611.03554534912109
10
-898.21224975585983
20
601.03554534912109
10
-891.21224975585972
20
601.03554534912109
10
-891.21224975585972
20
611.03554534912109
10
-883.96224975585983
20
611.03554534912109
10
-883.96224975585994
20
539.03554534912143
10
-955.96224975585938
20
539.03554534912143
10
-955.96224975585938
20
546.28554534912234
10
-945.96224975585938
20
546.28554534912234
0
CIRCLE
5
155
100
AcDbEntity
8
0
100
AcDbCircle
10
-948.9622497558596
20
561.23554534912148
30
0
40
1.6500000000000001
210
1.1765606933715747e-68
220
-0
230
1
0
CIRCLE
5
156
100
AcDbEntity
8
0
100
AcDbCircle
10
-887.46224975585983
20
604.03554534912109
30
0
40
1.6500000000000001
210
1.1765606933715747e-68
220
-0
230
1
0
CIRCLE
5
157
100
AcDbEntity
8
0
100
AcDbCircle
10
-948.96224975585949
20
542.53554534912143
30
0
40
1.6500000000000001
210
1.1765606933715747e-68
220
-0
230
1
0
CIRCLE
5
158
100
AcDbEntity
8
0
100
AcDbCircle
10
-906.1622497558601
20
604.03554534912109
30
0
40
1.6500000000000001
210
1.1765606933715747e-68
220
-0
230
1
0
LWPOLYLINE
5
159
100
AcDbEntity
8
0
100
AcDbPolyline
90
4
70
1
43
0.0
10
-937.84455830223567
20
553.18554534912153
10
-937.84455830223567
20
558.5855453491215
10
-944.07994120948365
20
558.5855453491215
10
-944.07994120948365
20
553.18554534912153
0
LWPOLYLINE
5
160
100
AcDbEntity
8
0
100
AcDbPolyline
90
4
70
1
43
0.0
10
-937.84455830223567
20
546.38554534912078
10
-944.07994120948365
20
546.38554534912078
10
-944.07994120948365
20
540.9855453491208
10
-937.84455830223567
20
540.9855453491208
0
LWPOLYLINE
5
161
100
AcDbEntity
8
0
100
AcDbPolyline
90
4
70
1
43
0.0
10
-898.11224975585992
20
599.15323680274514
10
-903.5122497558599
20
599.15323680274514
10
-903.51224975586001
20
592.91785389549705
10
-898.11224975586003
20
592.91785389549705
0
LWPOLYLINE
5
162
100
AcDbEntity
8
0
100
AcDbPolyline
90
4
70
1
43
0.0
10
-885.91224975585919
20
599.15323680274514
10
-891.31224975585928
20
599.15323680274514
10
-891.3122497558594
20
592.91785389549705
10
-885.91224975585931
20
592.91785389549705
0
CIRCLE
5
163
100
AcDbEntity
8
0
100
AcDbCircle
10
-914.96224975585938
20
543.68554534912334
30
0
40
1.6500000000000001
210
1.1765606933715747e-68
220
-0
230
1
0
CIRCLE
5
164
100
AcDbEntity
8
0
100
AcDbCircle
10
-914.96224975585938
20
555.88554534912146
30
0
40
1.6500000000000001
210
1.1765606933715747e-68
220
-0
230
1
0
CIRCLE
5
165
100
AcDbEntity
8
0
100
AcDbCircle
10
-900.81224975585997
20
570.38554534912112
30
0
40
1.6500000000000001
210
1.1765606933715747e-68
220
-0
230
1
0
CIRCLE
5
166
100
AcDbEntity
8
0
100
AcDbCircle
10
-888.61224975585924
20
570.38554534912112
30
0
40
1.6500000000000001
210
1.1765606933715747e-68
220
-0
230
1
0
LWPOLYLINE
5
167
100
AcDbEntity
8
0
100
AcDbPolyline
90
4
70
1
43
0.0
10
-949.96224975585938
20
553.28554534912223
10
-949.96224975585938
20
546.28554534912234
10
-955.96224975585938
20
546.28554534912234
10
-955.96224975585926
20
553.28554534912223
0
LWPOLYLINE
5
168
100
AcDbEntity
8
0
100
AcDbPolyline
90
8
70
1
43
0.0
10
-873.96224975585938
20
529.03554534912109
10
-948.96224975585938
20
529.03554534912109
10
-955.96224975585938
20
536.03554534912109
10
-955.96224975585938
20
539.03554534912143
10
-883.96224975586006
20
539.03554534912143
10
-883.96224975585994
20
611.03554534912109
10
-880.96224975585938
20
611.03554534912109
10
-873.96224975585938
20
604.03554534912109
0
CIRCLE
5
169
100
AcDbEntity
8
0
100
AcDbCircle
10
-878.96224975585938
20
564.03554534912109
30
0
40
1.6500000000000001
210
1.1765606933715747e-68
220
-0
230
1
0
CIRCLE
5
170
100
AcDbEntity
8
0
100
AcDbCircle
10
-878.96224975585938
20
584.03554534912109
30
0
40
1.6500000000000001
210
1.1765606933715747e-68
220
-0
230
1
0
CIRCLE
5
171
100
AcDbEntity
8
0
100
AcDbCircle
10
-917.96224975585938
20
534.03554534912109
30
0
40
1.6500000000000001
210
1.1765606933715747e-68
220
-0
230
1
0
CIRCLE
5
172
100
AcDbEntity
8
0
100
AcDbCircle
10
-895.96224975585938
20
534.03554534912109
30
0
40
1.6500000000000001
210
1.1765606933715747e-68
220
-0
230
1
0
LWPOLYLINE
5
173
100
AcDbEntity
8
0
100
AcDbPolyline
90
4
70
1
43
0.0
10
-891.2122497558596
20
605.03554534912109
10
-898.2122497558596
20
605.03554534912109
10
-898.21224975585983
20
611.03554534912109
10
-891.21224975585972
20
611.03554534912109
0
LWPOLYLINE
5
174
100
AcDbEntity
8
0
100
AcDbPolyline
90
4
70
1
43
0.0
10
-885.91224975585931
20
599.15323680274514
10
-885.91224975585931
20
592.91785389549705
10
-891.31224975585928
20
592.91785389549705
10
-891.3122497558594
20
599.15323680274514
0
CIRCLE
5
175
100
AcDbEntity
8
0
100
AcDbCircle
10
-888.61224975585924
20
596.03554534912109
30
0
40
1.6500000000000001
210
1.1765606933715747e-68
220
0
230
1
0
LWPOLYLINE
5
176
100
AcDbEntity
8
0
100
AcDbPolyline
90
4
70
1
43
0.0
10
-903.5122497558599
20
592.91785389549705
10
-903.5122497558599
20
599.15323680274514
10
-898.11224975586003
20
599.15323680274514
10
-898.11224975585992
20
592.91785389549705
0
CIRCLE
5
177
100
AcDbEntity
8
0
100
AcDbCircle
10
-900.81224975585997
20
596.03554534912109
30
0
40
1.6500000000000001
210
1.1765606933715747e-68
220
0
230
1
0
LWPOLYLINE
5
178
100
AcDbEntity
8
0
100
AcDbPolyline
90
4
70
1
43
0.0
10
-991.86216430664115
20
592.89343983299705
10
-991.86216430664115
20
599.12882274024514
10
-986.46216430664128
20
599.12882274024514
10
-986.46216430664117
20
592.89343983299705
0
CIRCLE
5
179
100
AcDbEntity
8
0
100
AcDbCircle
10
-989.16216430664122
20
596.01113128662109
30
0
40
1.6500000000000001
210
1.1765606933715747e-68
220
0
230
1
0
LWPOLYLINE
5
180
100
AcDbEntity
8
0
100
AcDbPolyline
90
4
70
1
43
0.0
10
-974.26216430664056
20
599.12882274024514
10
-974.26216430664056
20
592.89343983299705
10
-979.66216430664053
20
592.89343983299705
10
-979.66216430664065
20
599.12882274024514
0
CIRCLE
5
181
100
AcDbEntity
8
0
100
AcDbCircle
10
-976.96216430664049
20
596.01113128662109
30
0
40
1.6500000000000001
210
1.1765606933715747e-68
220
0
230
1
0
LWPOLYLINE
5
182
100
AcDbEntity
8
0
100
AcDbPolyline
90
4
70
1
43
0.0
10
-1026.1944728530168
20
546.36113128662078
10
-1026.1944728530168
20
540.9611312866208
10
-1032.4298557602649
20
540.9611312866208
10
-1032.4298557602649
20
546.36113128662078
0
CIRCLE
5
183
100
AcDbEntity
8
0
100
AcDbCircle
10
-1029.3121643066406
20
543.66113128662334
30
0
40
1.6500000000000001
210
1.1765606933715747e-68
220
0
230
1
0
LWPOLYLINE
5
184
100
AcDbEntity
8
0
100
AcDbPolyline
90
4
70
1
43
0.0
10
-1026.1944728530168
20
553.16113128662153
10
-1032.4298557602649
20
553.16113128662153
10
-1032.4298557602649
20
558.5611312866215
10
-1026.1944728530168
20
558.5611312866215
0
CIRCLE
5
185
100
AcDbEntity
8
0
100
AcDbCircle
10
-1029.3121643066406
20
555.86113128662146
30
0
40
1.6500000000000001
210
1.1765606933715747e-68
220
0
230
1
0
LWPOLYLINE
5
186
100
AcDbEntity
8
0
100
AcDbPolyline
90
4
70
1
43
0.0
10
-937.84455830223567
20
553.18554534912153
10
-944.07994120948365
20
553.18554534912153
10
-944.07994120948365
20
558.5855453491215
10
-937.84455830223567
20
558.5855453491215
0
CIRCLE
5
187
100
AcDbEntity
8
0
100
AcDbCircle
10
-940.96224975585938
20
555.88554534912146
30
0
40
1.6500000000000001
210
1.1765606933715747e-68
220
0
230
1
0
LWPOLYLINE
5
188
100
AcDbEntity
8
0
100
AcDbPolyline
90
4
70
1
43
0.0
10
-937.84455830223567
20
546.38554534912078
10
-937.84455830223567
20
540.9855453491208
10
-944.07994120948365
20
540.9855453491208
10
-944.07994120948365
20
546.38554534912078
0
CIRCLE
5
189
100
AcDbEntity
8
0
100
AcDbCircle
10
-940.96224975585938
20
543.68554534912334
30
0
40
1.6500000000000001
210
1.1765606933715747e-68
220
0
230
1
0
LWPOLYLINE
5
190
100
AcDbEntity
8
0
100
AcDbPolyline
90
5
70
1
43
0.0
10
-867.61221313476562
20
564.76002044677762
10
-867.61221313476562
20
566.91002044677725
10
-823.46221313476565
20
611.06002044677734
10
-821.31221313476635
20
611.06002044677734
10
-821.31221313476635
20
564.76002044677739
0
LWPOLYLINE
5
191
100
AcDbEntity
8
0
100
AcDbPolyline
90
8
70
1
43
0.0
10
-785.61221313476562
20
529.06002044677723
10
-860.61221313476562
20
529.06002044677723
10
-867.61221313476562
20
536.06002044677734
10
-867.61221313476562
20
539.06002044677757
10
-795.61221313476631
20
539.06002044677757
10
-795.61221313476619
20
611.06002044677734
10
-792.61221313476562
20
611.06002044677734
10
-785.61221313476562
20
604.06002044677723
0
CIRCLE
5
192
100
AcDbEntity
8
0
100
AcDbCircle
10
-790.61221313476562
20
564.06002044677723
30
0
40
1.6500000000000001
210
-2.0590230357872116e-84
220
6.2872832253656778e-92
230
1
0
CIRCLE
5
193
100
AcDbEntity
8
0
100
AcDbCircle
10
-790.61221313476562
20
584.06002044677723
30
0
40
1.6500000000000001
210
-2.0590230357872116e-84
220
6.2872832253656778e-92
230
1
0
CIRCLE
5
194
100
AcDbEntity
8
0
100
AcDbCircle
10
-829.61221313476574
20
534.06002044677723
30
0
40
1.6500000000000001
210
-2.0590230357872116e-84
220
6.2872832253656778e-92
230
1
0
CIRCLE
5
195
100
AcDbEntity
8
0
100
AcDbCircle
10
-807.61221313476562
20
534.06002044677723
30
0
40
1.6500000000000001
210
-2.0590230357872116e-84
220
6.2872832253656778e-92
230
1
0
LWPOLYLINE
5
196
100
AcDbEntity
8
0
100
AcDbPolyline
90
14
70
1
43
0.0
10
-857.61221313476562
20
553.31002044677848
10
-867.61221313476562
20
553.31002044677848
10
-867.61221313476562
20
564.76002044677762
10
-821.31221313476635
20
564.7600204467775
10
-821.31221313476635
20
611.06002044677734
10
-809.86221313476585
20
611.06002044677734
10
-809.86221313476585
20
601.06002044677734
10
-802.86221313476585
20
601.06002044677734
10
-802.86221313476608
20
611.06002044677734
10
-795.61221313476608
20
611.06002044677723
10
-795.61221313476619
20
539.06002044677757
10
-867.61221313476562
20
539.06002044677757
10
-867.61221313476562
20
546.31002044677848
10
-857.61221313476562
20
546.31002044677848
0
CIRCLE
5
197
100
AcDbEntity
8
0
100
AcDbCircle
10
-860.61221313476597
20
561.26002044677773
30
0
40
1.6500000000000001
210
-2.0590230357872116e-84
220
6.2872832253656778e-92
230
1
0
CIRCLE
5
198
100
AcDbEntity
8
0
100
AcDbCircle
10
-799.11221313476619
20
604.06002044677723
30
0
40
1.6500000000000001
210
-2.0590230357872116e-84
220
6.2872832253656778e-92
230
1
0
CIRCLE
5
199
100
AcDbEntity
8
0
100
AcDbCircle
10
-860.61221313476585
20
542.56002044677757
30
0
40
1.6500000000000001
210
-2.0590230357872116e-84
220
6.2872832253656778e-92
230
1
0
CIRCLE
5
200
100
AcDbEntity
8
0
100
AcDbCircle
10
-817.81221313476635
20
604.06002044677723
30
0
40
1.6500000000000001
210
-2.0590230357872116e-84
220
6.2872832253656778e-92
230
1
0
LWPOLYLINE
5
201
100
AcDbEntity
8
0
100
AcDbPolyline
90
4
70
1
43
0.0
10
-849.49452168114192
20
553.21002044677766
10
-849.49452168114192
20
558.61002044677764
10
-855.7299045883899
20
558.61002044677764
10
-855.7299045883899
20
553.21002044677766
0
LWPOLYLINE
5
202
100
AcDbEntity
8
0
100
AcDbPolyline
90
4
70
1
43
0.0
10
-849.49452168114192
20
546.41002044677703
10
-855.7299045883899
20
546.41002044677703
10
-855.7299045883899
20
541.01002044677693
10
-849.49452168114192
20
541.01002044677693
0
LWPOLYLINE
5
203
100
AcDbEntity
8
0
100
AcDbPolyline
90
4
70
1
43
0.0
10
-809.76221313476617
20
599.17771190040128
10
-815.16221313476626
20
599.17771190040128
10
-815.16221313476638
20
592.9423289931533
10
-809.76221313476628
20
592.9423289931533
0
LWPOLYLINE
5
204
100
AcDbEntity
8
0
100
AcDbPolyline
90
4
70
1
43
0.0
10
-797.56221313476544
20
599.17771190040128
10
-802.96221313476553
20
599.17771190040128
10
-802.96221313476565
20
592.9423289931533
10
-797.56221313476556
20
592.9423289931533
0
CIRCLE
5
205
100
AcDbEntity
8
0
100
AcDbCircle
10
-826.61221313476562
20
543.71002044677948
30
0
40
1.6500000000000001
210
-2.0590230357872116e-84
220
6.2872832253656778e-92
230
1
0
CIRCLE
5
206
100
AcDbEntity
8
0
100
AcDbCircle
10
-826.61221313476562
20
555.91002044677759
30
0
40
1.6500000000000001
210
-2.0590230357872116e-84
220
6.2872832253656778e-92
230
1
0
CIRCLE
5
207
100
AcDbEntity
8
0
100
AcDbCircle
10
-812.46221313476622
20
570.41002044677725
30
0
40
1.6500000000000001
210
-2.0590230357872116e-84
220
6.2872832253656778e-92
230
1
0
CIRCLE
5
208
100
AcDbEntity
8
0
100
AcDbCircle
10
-800.26221313476549
20
570.41002044677725
30
0
40
1.6500000000000001
210
-2.0590230357872116e-84
220
6.2872832253656778e-92
230
1
0
LWPOLYLINE
5
209
100
AcDbEntity
8
0
100
AcDbPolyline
90
4
70
1
43
0.0
10
-861.61221313476562
20
553.31002044677848
10
-861.61221313476562
20
546.31002044677848
10
-867.61221313476562
20
546.31002044677848
10
-867.61221313476551
20
553.31002044677848
0
LWPOLYLINE
5
210
100
AcDbEntity
8
0
100
AcDbPolyline
90
4
70
1
43
0.0
10
-802.86221313476585
20
605.06002044677734
10
-809.86221313476585
20
605.06002044677734
10
-809.86221313476585
20
611.06002044677734
10
-802.86221313476585
20
611.06002044677734
0
LWPOLYLINE
5
211
100
AcDbEntity
8
0
100
AcDbPolyline
90
4
70
1
43
0.0
10
-797.56221313476556
20
599.17771190040128
10
-797.56221313476556
20
592.9423289931533
10
-802.96221313476553
20
592.9423289931533
10
-802.96221313476565
20
599.17771190040128
0
CIRCLE
5
212
100
AcDbEntity
8
0
100
AcDbCircle
10
-800.26221313476549
20
596.06002044677734
30
0
40
1.6500000000000001
210
-2.0590230357872116e-84
220
6.2872832253656778e-92
230
1
0
LWPOLYLINE
5
213
100
AcDbEntity
8
0
100
AcDbPolyline
90
4
70
1
43
0.0
10
-815.16221313476626
20
592.9423289931533
10
-815.16221313476626
20
599.17771190040128
10
-809.76221313476628
20
599.17771190040128
10
-809.76221313476617
20
592.9423289931533
0
CIRCLE
5
214
100
AcDbEntity
8
0
100
AcDbCircle
10
-812.46221313476622
20
596.06002044677734
30
0
40
1.6500000000000001
210
-2.0590230357872116e-84
220
6.2872832253656778e-92
230
1
0
LWPOLYLINE
5
215
100
AcDbEntity
8
0
100
AcDbPolyline
90
4
70
1
43
0.0
10
-849.49452168114192
20
553.21002044677766
10
-855.7299045883899
20
553.21002044677766
10
-855.7299045883899
20
558.61002044677764
10
-849.49452168114192
20
558.61002044677764
0
CIRCLE
5
216
100
AcDbEntity
8
0
100
AcDbCircle
10
-852.61221313476562
20
555.91002044677759
30
0
40
1.6500000000000001
210
-2.0590230357872116e-84
220
6.2872832253656778e-92
230
1
0
LWPOLYLINE
5
217
100
AcDbEntity
8
0
100
AcDbPolyline
90
4
70
1
43
0.0
10
-849.49452168114192
20
546.41002044677703
10
-849.49452168114192
20
541.01002044677693
10
-855.7299045883899
20
541.01002044677693
10
-855.7299045883899
20
546.41002044677703
0
CIRCLE
5
218
100
AcDbEntity
8
0
100
AcDbCircle
10
-852.61221313476562
20
543.71002044677948
30
0
40
1.6500000000000001
210
-2.0590230357872116e-84
220
6.2872832253656778e-92
230
1
0
LWPOLYLINE
5
219
100
AcDbEntity
8
0
100
AcDbPolyline
90
4
70
1
43
0.0
10
-699.8499206542964
20
613.27834320068359
10
-699.8499206542964
20
499.07834320068361
10
-750.44992065429699
20
499.07834320068361
10
-750.44992065429699
20
613.27834320068359
0
CIRCLE
5
220
100
AcDbEntity
8
0
100
AcDbCircle
10
-707.84992065429628
20
540.27834320068359
30
0
40
1.6500000000000001
210
1.1765606933715747e-68
220
-6.2872832253656778e-92
230
1
0
CIRCLE
5
221
100
AcDbEntity
8
0
100
AcDbCircle
10
-742.44992065429642
20
556.27834320068371
30
0
40
1.6500000000000001
210
1.1765606933715747e-68
220
-6.2872832253656778e-92
230
1
0
CIRCLE
5
222
100
AcDbEntity
8
0
100
AcDbCircle
10
-707.84992065429628
20
603.27834320068359
30
0
40
1.6500000000000001
210
1.1765606933715747e-68
220
-6.2872832253656778e-92
230
1
0
CIRCLE
5
223
100
AcDbEntity
8
0
100
AcDbCircle
10
-742.44992065429642
20
507.07834320068366
30
0
40
1.6500000000000001
210
1.1765606933715747e-68
220
-6.2872832253656778e-92
230
1
0
CIRCLE
5
224
100
AcDbEntity
8
0
100
AcDbCircle
10
-707.84992065429628
20
507.07834320068366
30
0
40
1.6500000000000001
210
1.1765606933715747e-68
220
-6.2872832253656778e-92
230
1
0
CIRCLE
5
225
100
AcDbEntity
8
0
100
AcDbCircle
10
-742.44992065429642
20
603.27834320068359
30
0
40
1.6500000000000001
210
1.1765606933715747e-68
220
-6.2872832253656778e-92
230
1
0
CIRCLE
5
226
100
AcDbEntity
8
0
100
AcDbCircle
10
-742.44992065429642
20
540.27834320068359
30
0
40
1.6500000000000001
210
1.1765606933715747e-68
220
-6.2872832253656778e-92
230
1
0
CIRCLE
5
227
100
AcDbEntity
8
0
100
AcDbCircle
10
-707.84992065429628
20
556.27834320068359
30
0
40
1.6500000000000001
210
1.1765606933715747e-68
220
-6.2872832253656778e-92
230
1
0
LWPOLYLINE
5
228
100
AcDbEntity
8
0
100
AcDbPolyline
90
4
70
1
43
0.0
10
-750.44992065429642
20
613.27834320068359
10
-750.44992065429642
20
499.07834320068361
10
-760.44992065429642
20
499.07834320068361
10
-760.44992065429642
20
613.27834320068359
0
CIRCLE
5
229
100
AcDbEntity
8
0
100
AcDbCircle
10
-755.44992065429642
20
538.27834320068359
30
0
40
1.6500000000000001
210
1.1765606933715747e-68
220
-6.2872832253656778e-92
230
1
0
CIRCLE
5
230
100
AcDbEntity
8
0
100
AcDbCircle
10
-755.44992065429642
20
558.27834320068359
30
0
40
1.6500000000000001
210
1.1765606933715747e-68
220
-6.2872832253656778e-92
230
1
0
CIRCLE
5
231
100
AcDbEntity
8
0
100
AcDbCircle
10
-755.44992065429642
20
603.27834320068359
30
0
40
1.6500000000000001
210
1.1765606933715747e-68
220
-6.2872832253656778e-92
230
1
0
CIRCLE
5
232
100
AcDbEntity
8
0
100
AcDbCircle
10
-755.44992065429642
20
509.07834320068361
30
0
40
1.6500000000000001
210
1.1765606933715747e-68
220
-6.2872832253656778e-92
230
1
0
LWPOLYLINE
5
233
100
AcDbEntity
8
0
100
AcDbPolyline
90
4
70
1
43
0.0
10
-693.499927810401
20
603.28457036648445
10
-668.29992781040062
20
603.28457036648445
10
-668.29992781040062
20
560.78457036648433
10
-693.49992781040078
20
560.78457036648433
0
CIRCLE
5
234
100
AcDbEntity
8
0
100
AcDbCircle
10
-680.89992781040098
20
567.78457036648445
30
0
40
1.6500000000000001
210
-2.0590230357872107e-84
220
-3.1666538904119216e-84
230
1
0
CIRCLE
5
235
100
AcDbEntity
8
0
100
AcDbCircle
10
-680.89992781040098
20
596.28457036648445
30
0
40
1.6500000000000001
210
-2.0590230357872107e-84
220
-3.1666538904119216e-84
230
1
0
LWPOLYLINE
5
236
100
AcDbEntity
8
0
100
AcDbPolyline
90
5
70
1
43
0.0
10
-668.29992781040062
20
560.78457036648445
10
-668.29992781040062
20
603.28457036648445
10
-627.99992740820733
20
603.28457036648456
10
-627.99992740820733
20
593.28457036648433
10
-660.49992740820721
20
560.78457036648433
0
LWPOLYLINE
5
237
100
AcDbEntity
8
0
100
AcDbPolyline
90
8
70
1
43
0.0
10
-543.77255249023438
20
593.53157806396484
10
-543.77255249023438
20
518.53157806396484
10
-550.77255249023449
20
511.53157806396484
10
-553.7725524902346
20
511.53157806396496
10
-553.77255249023483
20
583.53157806396428
10
-625.77255249023449
20
583.53157806396428
10
-625.77255249023449
20
586.53157806396484
10
-618.77255249023438
20
593.53157806396484
0
CIRCLE
5
238
100
AcDbEntity
8
0
100
AcDbCircle
10
-578.77255249023438
20
588.53157806396484
30
0
40
1.6500000000000004
210
1.1765606933715747e-68
220
-0
230
1
0
CIRCLE
5
239
100
AcDbEntity
8
0
100
AcDbCircle
10
-598.77255249023438
20
588.53157806396484
30
0
40
1.6500000000000004
210
1.1765606933715747e-68
220
-0
230
1
0
CIRCLE
5
240
100
AcDbEntity
8
0
100
AcDbCircle
10
-548.77255249023438
20
549.53157806396484
30
0
40
1.6500000000000004
210
1.1765606933715747e-68
220
-0
230
1
0
CIRCLE
5
241
100
AcDbEntity
8
0
100
AcDbCircle
10
-548.77255249023438
20
571.53157806396484
30
0
40
1.6500000000000004
210
1.1765606933715747e-68
220
-0
230
1
0
LWPOLYLINE
5
242
100
AcDbEntity
8
0
100
AcDbPolyline
90
14
70
1
43
0.0
10
-568.02255249023563
20
521.53157806396484
10
-568.02255249023563
20
511.53157806396484
10
-579.47255249023465
20
511.53157806396484
10
-579.47255249023465
20
557.83157806396423
10
-625.77255249023449
20
557.83157806396423
10
-625.77255249023449
20
569.28157806396462
10
-615.77255249023449
20
569.28157806396462
10
-615.77255249023449
20
576.28157806396462
10
-625.77255249023449
20
576.28157806396462
10
-625.77255249023438
20
583.53157806396439
10
-553.77255249023483
20
583.53157806396428
10
-553.77255249023472
20
511.53157806396484
10
-561.02255249023563
20
511.53157806396484
10
-561.02255249023563
20
521.53157806396484
0
CIRCLE
5
243
100
AcDbEntity
8
0
100
AcDbCircle
10
-575.97255249023488
20
518.53157806396462
30
0
40
1.6500000000000004
210
1.1765606933715747e-68
220
-0
230
1
0
CIRCLE
5
244
100
AcDbEntity
8
0
100
AcDbCircle
10
-618.77255249023438
20
580.03157806396439
30
0
40
1.6500000000000004
210
1.1765606933715747e-68
220
-0
230
1
0
CIRCLE
5
245
100
AcDbEntity
8
0
100
AcDbCircle
10
-557.27255249023472
20
518.53157806396462
30
0
40
1.6500000000000004
210
1.1765606933715747e-68
220
-0
230
1
0
CIRCLE
5
246
100
AcDbEntity
8
0
100
AcDbCircle
10
-618.77255249023438
20
561.33157806396423
30
0
40
1.6500000000000004
210
1.1765606933715747e-68
220
-0
230
1
0
LWPOLYLINE
5
247
100
AcDbEntity
8
0
100
AcDbPolyline
90
4
70
1
43
0.0
10
-567.92255249023481
20
529.64926951758855
10
-573.32255249023478
20
529.64926951758855
10
-573.32255249023478
20
523.41388661034068
10
-567.92255249023481
20
523.41388661034068
0
LWPOLYLINE
5
248
100
AcDbEntity
8
0
100
AcDbPolyline
90
4
70
1
43
0.0
10
-561.12255249023417
20
529.64926951758855
10
-561.12255249023417
20
523.41388661034068
10
-555.72255249023419
20
523.41388661034068
10
-555.72255249023419
20
529.64926951758855
0
LWPOLYLINE
5
249
100
AcDbEntity
8
0
100
AcDbPolyline
90
4
70
1
43
0.0
10
-613.89024394385842
20
569.3815780639643
10
-613.89024394385842
20
563.98157806396421
10
-607.65486103661044
20
563.98157806396421
10
-607.65486103661044
20
569.3815780639643
0
LWPOLYLINE
5
250
100
AcDbEntity
8
0
100
AcDbPolyline
90
4
70
1
43
0.0
10
-613.89024394385842
20
581.58157806396491
10
-613.89024394385842
20
576.18157806396493
10
-607.65486103661044
20
576.18157806396493
10
-607.65486103661044
20
581.58157806396491
0
CIRCLE
5
251
100
AcDbEntity
8
0
100
AcDbCircle
10
-558.42255249023663
20
552.53157806396484
30
0
40
1.6500000000000004
210
1.1765606933715747e-68
220
-0
230
1
0
CIRCLE
5
252
100
AcDbEntity
8
0
100
AcDbCircle
10
-570.62255249023474
20
552.53157806396484
30
0
40
1.6500000000000004
210
1.1765606933715747e-68
220
-0
230
1
0
CIRCLE
5
253
100
AcDbEntity
8
0
100
AcDbCircle
10
-585.1225524902344
20
566.68157806396425
30
0
40
1.6500000000000004
210
1.1765606933715747e-68
220
-0
230
1
0
CIRCLE
5
254
100
AcDbEntity
8
0
100
AcDbCircle
10
-585.1225524902344
20
578.88157806396498
30
0
40
1.6500000000000004
210
1.1765606933715747e-68
220
-0
230
1
0
LWPOLYLINE
5
255
100
AcDbEntity
8
0
100
AcDbPolyline
90
5
70
1
43
0.0
10
-579.47255249023465
20
511.53157806396484
10
-581.6225524902344
20
511.53157806396484
10
-625.77255249023449
20
555.68157806396482
10
-625.77255249023449
20
557.83157806396423
10
-579.47255249023465
20
557.83157806396423
0
LWPOLYLINE
5
256
100
AcDbEntity
8
0
100
AcDbPolyline
90
4
70
1
43
0.0
10
-619.77255249023438
20
576.28157806396462
10
-619.77255249023438
20
569.28157806396462
10
-625.77255249023449
20
569.28157806396462
10
-625.77255249023449
20
576.28157806396462
0
LWPOLYLINE
5
257
100
AcDbEntity
8
0
100
AcDbPolyline
90
4
70
1
43
0.0
10
-568.02255249023563
20
517.53157806396484
10
-561.02255249023563
20
517.53157806396484
10
-561.02255249023563
20
511.53157806396484
10
-568.02255249023563
20
511.53157806396484
0
LWPOLYLINE
5
258
100
AcDbEntity
8
0
100
AcDbPolyline
90
4
70
1
43
0.0
10
-567.92255249023481
20
529.64926951758855
10
-567.92255249023481
20
523.41388661034068
10
-573.32255249023478
20
523.41388661034068
10
-573.32255249023478
20
529.64926951758855
0
CIRCLE
5
259
100
AcDbEntity
8
0
100
AcDbCircle
10
-570.62255249023474
20
526.53157806396484
30
0
40
1.6500000000000004
210
1.1765606933715747e-68
220
0
230
1
0
LWPOLYLINE
5
260
100
AcDbEntity
8
0
100
AcDbPolyline
90
4
70
1
43
0.0
10
-561.12255249023417
20
529.64926951758855
10
-555.72255249023419
20
529.64926951758855
10
-555.72255249023419
20
523.41388661034068
10
-561.12255249023417
20
523.41388661034068
0
CIRCLE
5
261
100
AcDbEntity
8
0
100
AcDbCircle
10
-558.42255249023663
20
526.53157806396484
30
0
40
1.6500000000000004
210
1.1765606933715747e-68
220
0
230
1
0
LWPOLYLINE
5
262
100
AcDbEntity
8
0
100
AcDbPolyline
90
4
70
1
43
0.0
10
-607.65486103661044
20
563.98157806396421
10
-613.89024394385842
20
563.98157806396421
10
-613.89024394385854
20
569.3815780639643
10
-607.65486103661044
20
569.3815780639643
0
CIRCLE
5
263
100
AcDbEntity
8
0
100
AcDbCircle
10
-610.77255249023449
20
566.68157806396425
30
0
40
1.6500000000000004
210
1.1765606933715747e-68
220
0
230
1
0
LWPOLYLINE
5
264
100
AcDbEntity
8
0
100
AcDbPolyline
90
4
70
1
43
0.0
10
-613.89024394385854
20
581.58157806396491
10
-607.65486103661044
20
581.58157806396491
10
-607.65486103661044
20
576.18157806396493
10
-613.89024394385842
20
576.18157806396493
0
CIRCLE
5
265
100
AcDbEntity
8
0
100
AcDbCircle
10
-610.77255249023449
20
578.88157806396498
30
0
40
1.6500000000000004
210
1.1765606933715747e-68
220
0
230
1
0
LWPOLYLINE
5
266
100
AcDbEntity
8
0
100
AcDbPolyline
90
4
70
1
43
0.0
10
-537.42254028320474
20
575.92834360287702
10
-476.22254028320293
20
575.92834360287725
10
-476.22254028320293
20
510.42834320068357
10
-537.42254028320474
20
510.42834320068351
0
CIRCLE
5
267
100
AcDbEntity
8
0
100
AcDbCircle
10
-532.42254028320474
20
541.42834320068357
30
0
40
1.5000000000000002
210
1.1765606933715747e-68
220
4.5719495651290999e-100
230
1
0
CIRCLE
5
268
100
AcDbEntity
8
0
100
AcDbCircle
10
-506.82254028320386
20
554.92834328995275
30
0
40
11
210
1.1765606933715747e-68
220
4.5719495651290999e-100
230
1
0
CIRCLE
5
269
100
AcDbEntity
8
0
100
AcDbCircle
10
-490.82254059612819
20
570.92834297702836
30
0
40
3.0000000000000004
210
1.1765606933715747e-68
220
4.5719495651290999e-100
230
1
0
CIRCLE
5
270
100
AcDbEntity
8
0
100
AcDbCircle
10
-522.69754028320483
20
539.05334328992785
30
0
40
3.0000000000000004
210
1.1765606933715747e-68
220
4.5719495651290999e-100
230
1
0
CIRCLE
5
271
100
AcDbEntity
8
0
100
AcDbCircle
10
-522.57254059612831
20
570.92834297702848
30
0
40
3.0000000000000004
210
1.1765606933715747e-68
220
4.5719495651290999e-100
230
1
0
CIRCLE
5
272
100
AcDbEntity
8
0
100
AcDbCircle
10
-490.82254059612819
20
539.17834297702836
30
0
40
3.0000000000000004
210
1.1765606933715747e-68
220
4.5719495651290999e-100
230
1
0
CIRCLE
5
273
100
AcDbEntity
8
0
100
AcDbCircle
10
-481.22254028320293
20
567.62834320068362
30
0
40
1.5000000000000002
210
1.1765606933715747e-68
220
4.5719495651290999e-100
230
1
0
CIRCLE
5
274
100
AcDbEntity
8
0
100
AcDbCircle
10
-481.22254028320293
20
541.42834320068357
30
0
40
1.5000000000000002
210
1.1765606933715747e-68
220
4.5719495651290999e-100
230
1
0
CIRCLE
5
275
100
AcDbEntity
8
0
100
AcDbCircle
10
-532.42254028320474
20
567.62834320068362
30
0
40
1.5000000000000002
210
1.1765606933715747e-68
220
4.5719495651290999e-100
230
1
0
CIRCLE
5
276
100
AcDbEntity
8
0
100
AcDbCircle
10
-522.69754028320483
20
539.05334328992785
30
0
40
3.0000000000000004
210
1.1765606933715747e-68
220
4.5719495651290999e-100
230
1
0
CIRCLE
5
277
100
AcDbEntity
8
0
100
AcDbCircle
10
-522.69754028320483
20
539.05334328992785
30
0
40
1.625
210
1.1765606933715747e-68
220
4.5719495651290999e-100
230
1
0
CIRCLE
5
278
100
AcDbEntity
8
0
100
AcDbCircle
10
-522.57254059612831
20
570.92834297702848
30
0
40
3.0000000000000004
210
1.1765606933715747e-68
220
4.5719495651290999e-100
230
1
0
CIRCLE
5
279
100
AcDbEntity
8
0
100
AcDbCircle
10
-522.57254059612831
20
570.92834297702848
30
0
40
1.625
210
1.1765606933715747e-68
220
4.5719495651290999e-100
230
1
0
CIRCLE
5
280
100
AcDbEntity
8
0
100
AcDbCircle
10
-490.82254059612819
20
570.92834297702836
30
0
40
3.0000000000000004
210
1.1765606933715747e-68
220
4.5719495651290999e-100
230
1
0
CIRCLE
5
281
100
AcDbEntity
8
0
100
AcDbCircle
10
-490.82254059612819
20
570.92834297702836
30
0
40
1.625
210
1.1765606933715747e-68
220
4.5719495651290999e-100
230
1
0
CIRCLE
5
282
100
AcDbEntity
8
0
100
AcDbCircle
10
-490.82254059612819
20
539.17834297702836
30
0
40
3.0000000000000004
210
1.1765606933715747e-68
220
4.5719495651290999e-100
230
1
0
CIRCLE
5
283
100
AcDbEntity
8
0
100
AcDbCircle
10
-490.82254059612819
20
539.17834297702836
30
0
40
1.625
210
1.1765606933715747e-68
220
4.5719495651290999e-100
230
1
0
LWPOLYLINE
5
284
100
AcDbEntity
8
0
100
AcDbPolyline
90
4
70
1
43
0.0
10
-500.89456176757812
20
504.07836151123047
10
-500.89456176757812
20
389.87836151123048
10
-553.49456176757803
20
389.87836151123048
10
-553.49456176757815
20
504.07836151123047
0
LWPOLYLINE
5
285
100
AcDbEntity
8
0
100
AcDbPolyline
90
4
70
1
43
0.0
10
-505.30976527278375
20
431.42666294281156
10
-505.30976527278375
20
437.72666294281157
10
-510.70976527278378
20
437.72666294281169
10
-510.70976527278378
20
431.42666294281162
0
LWPOLYLINE
5
286
100
AcDbEntity
8
0
100
AcDbPolyline
90
4
70
1
43
0.0
10
-513.57935826237758
20
431.42666294281156
10
-513.57935826237758
20
437.72666294281157
10
-518.97935826237767
20
437.72666294281169
10
-518.97935826237767
20
431.42666294281162
0
LWPOLYLINE
5
287
100
AcDbEntity
8
0
100
AcDbPolyline
90
4
70
1
43
0.0
10
-514.64456176758063
20
438.82836151123109
10
-509.64456176758068
20
438.82836151123109
42
0.99999999999999989
10
-509.64456176758074
20
442.12836151123111
10
-514.64456176758074
20
442.12836151123105
42
0.99999999999999989
0
CIRCLE
5
288
100
AcDbEntity
8
0
100
AcDbCircle
10
-510.89456176757812
20
449.07836151122513
30
0
40
1.6500000000000001
210
-2.0590230357872116e-84
220
-2.6225023539399242e-108
230
1
0
CIRCLE
5
289
100
AcDbEntity
8
0
100
AcDbCircle
10
-541.04456176757844
20
399.87836151123048
30
0
40
1.6500000000000001
210
-2.0590230357872116e-84
220
-2.6225023539399242e-108
230
1
0
CIRCLE
5
290
100
AcDbEntity
8
0
100
AcDbCircle
10
-543.49456176757815
20
449.07836151122513
30
0
40
1.6500000000000001
210
-2.0590230357872116e-84
220
-2.6225023539399242e-108
230
1
0
CIRCLE
5
291
100
AcDbEntity
8
0
100
AcDbCircle
10
-541.04456176757833
20
429.07836151122513
30
0
40
1.6500000000000001
210
-2.0590230357872116e-84
220
-2.6225023539399242e-108
230
1
0
CIRCLE
5
292
100
AcDbEntity
8
0
100
AcDbCircle
10
-510.89456176757812
20
494.07836151123047
30
0
40
1.6500000000000001
210
-2.0590230357872116e-84
220
-2.6225023539399242e-108
230
1
0
CIRCLE
5
293
100
AcDbEntity
8
0
100
AcDbCircle
10
-543.49456176757815
20
494.07836151123047
30
0
40
1.6500000000000001
210
-2.0590230357872116e-84
220
-2.6225023539399242e-108
230
1
0
LWPOLYLINE
5
294
100
AcDbEntity
8
0
100
AcDbPolyline
90
4
70
1
43
0.0
10
-513.57935826237758
20
431.42666294281162
10
-518.97935826237767
20
431.42666294281162
10
-518.97935826237767
20
437.72666294281157
10
-513.57935826237758
20
437.72666294281169
0
CIRCLE
5
295
100
AcDbEntity
8
0
100
AcDbCircle
10
-516.27935826237763
20
434.57666294281159
30
0
40
1.6500000000000001
210
-2.0590230357872116e-84
220
-2.6225023539399242e-108
230
1
0
LWPOLYLINE
5
296
100
AcDbEntity
8
0
100
AcDbPolyline
90
4
70
1
43
0.0
10
-505.30976527278375
20
431.42666294281162
10
-510.70976527278378
20
431.42666294281162
10
-510.70976527278378
20
437.72666294281157
10
-505.30976527278375
20
437.72666294281169
0
CIRCLE
5
297
100
AcDbEntity
8
0
100
AcDbCircle
10
-508.0097652727838
20
434.57666294281159
30
0
40
1.6500000000000001
210
1.1765606933715747e-68
220
-6.2872832253656778e-92
230
1
0
LWPOLYLINE
5
298
100
AcDbEntity
8
0
100
AcDbPolyline
90
4
70
1
43
0.0
10
-485.17428588867188
20
383.52837371826172
10
-485.17428588867188
20
269.32837371826173
10
-537.77428588867178
20
269.32837371826173
10
-537.77428588867178
20
383.52837371826178
0
LWPOLYLINE
5
299
100
AcDbEntity
8
0
100
AcDbPolyline
90
4
70
1
43
0.0
10
-489.58948939387756
20
310.87667514984281
10
-489.58948939387756
20
317.17667514984282
10
-494.98948939387753
20
317.17667514984282
10
-494.98948939387753
20
310.87667514984281
0
LWPOLYLINE
5
300
100
AcDbEntity
8
0
100
AcDbPolyline
90
4
70
1
43
0.0
10
-497.85908238347139
20
310.87667514984281
10
-497.85908238347139
20
317.17667514984282
10
-503.25908238347148
20
317.17667514984282
10
-503.25908238347142
20
310.87667514984281
0
LWPOLYLINE
5
301
100
AcDbEntity
8
0
100
AcDbPolyline
90
4
70
1
43
0.0
10
-498.92428588867438
20
318.27837371826234
10
-493.92428588867449
20
318.27837371826234
42
0.99999999999999989
10
-493.92428588867455
20
321.57837371826236
10
-498.92428588867449
20
321.57837371826236
42
0.99999999999999989
0
CIRCLE
5
302
100
AcDbEntity
8
0
100
AcDbCircle
10
-495.17428588867188
20
328.52837371825626
30
0
40
1.6500000000000001
210
-2.0590230357872116e-84
220
-2.6225023539399242e-108
230
1
0
CIRCLE
5
303
100
AcDbEntity
8
0
100
AcDbCircle
10
-525.32428588867219
20
279.32837371826173
30
0
40
1.6500000000000001
210
-2.0590230357872116e-84
220
-2.6225023539399242e-108
230
1
0
CIRCLE
5
304
100
AcDbEntity
8
0
100
AcDbCircle
10
-527.77428588867201
20
328.52837371825626
30
0
40
1.6500000000000001
210
-2.0590230357872116e-84
220
-2.6225023539399242e-108
230
1
0
CIRCLE
5
305
100
AcDbEntity
8
0
100
AcDbCircle
10
-525.32428588867208
20
308.52837371825632
30
0
40
1.6500000000000001
210
-2.0590230357872116e-84
220
-2.6225023539399242e-108
230
1
0
CIRCLE
5
306
100
AcDbEntity
8
0
100
AcDbCircle
10
-495.17428588867188
20
373.52837371826178
30
0
40
1.6500000000000001
210
-2.0590230357872116e-84
220
-2.6225023539399242e-108
230
1
0
CIRCLE
5
307
100
AcDbEntity
8
0
100
AcDbCircle
10
-527.77428588867201
20
373.52837371826178
30
0
40
1.6500000000000001
210
-2.0590230357872116e-84
220
-2.6225023539399242e-108
230
1
0
LWPOLYLINE
5
308
100
AcDbEntity
8
0
100
AcDbPolyline
90
4
70
1
43
0.0
10
-497.85908238347139
20
310.87667514984281
10
-503.25908238347142
20
310.87667514984281
10
-503.25908238347142
20
317.17667514984282
10
-497.85908238347139
20
317.17667514984282
0
CIRCLE
5
309
100
AcDbEntity
8
0
100
AcDbCircle
10
-500.55908238347143
20
314.02667514984279
30
0
40
1.6500000000000001
210
-2.0590230357872116e-84
220
-2.6225023539399242e-108
230
1
0
LWPOLYLINE
5
310
100
AcDbEntity
8
0
100
AcDbPolyline
90
4
70
1
43
0.0
10
-489.58948939387756
20
310.87667514984281
10
-494.98948939387753
20
310.87667514984281
10
-494.98948939387753
20
317.17667514984282
10
-489.58948939387756
20
317.17667514984282
0
CIRCLE
5
311
100
AcDbEntity
8
0
100
AcDbCircle
10
-492.28948939387755
20
314.02667514984279
30
0
40
1.6500000000000001
210
1.1765606933715747e-68
220
-6.2872832253656778e-92
230
1
0
LWPOLYLINE
5
312
100
AcDbEntity
8
0
100
AcDbPolyline
90
4
70
1
43
0.0
10
-537.77426147460938
20
148.77835845947263
10
-537.77426147460938
20
262.97835845947264
10
-485.17426147460952
20
262.97835845947264
10
-485.17426147460952
20
148.77835845947263
0
LWPOLYLINE
5
313
100
AcDbEntity
8
0
100
AcDbPolyline
90
4
70
1
43
0.0
10
-533.35905796940381
20
221.43005702789154
10
-533.35905796940381
20
215.13005702789155
10
-527.95905796940383
20
215.13005702789155
10
-527.95905796940383
20
221.43005702789154
0
LWPOLYLINE
5
314
100
AcDbEntity
8
0
100
AcDbPolyline
90
4
70
1
43
0.0
10
-525.08946497980992
20
221.43005702789154
10
-525.08946497980992
20
215.13005702789155
10
-519.68946497980983
20
215.13005702789155
10
-519.68946497980994
20
221.43005702789154
0
LWPOLYLINE
5
315
100
AcDbEntity
8
0
100
AcDbPolyline
90
4
70
1
43
0.0
10
-524.02426147460699
20
214.02835845947203
10
-529.02426147460687
20
214.02835845947203
42
0.99999999999999989
10
-529.02426147460676
20
210.72835845947199
10
-524.02426147460687
20
210.72835845947202
42
0.99999999999999989
0
CIRCLE
5
316
100
AcDbEntity
8
0
100
AcDbCircle
10
-527.77426147460938
20
203.77835845947806
30
0
40
1.6500000000000001
210
-2.0590230357872116e-84
220
2.1374019601855392e-100
230
1
0
CIRCLE
5
317
100
AcDbEntity
8
0
100
AcDbCircle
10
-497.62426147460906
20
252.97835845947262
30
0
40
1.6500000000000001
210
-2.0590230357872116e-84
220
2.1374019601855392e-100
230
1
0
CIRCLE
5
318
100
AcDbEntity
8
0
100
AcDbCircle
10
-495.17426147460935
20
203.77835845947806
30
0
40
1.6500000000000001
210
-2.0590230357872116e-84
220
2.1374019601855392e-100
230
1
0
CIRCLE
5
319
100
AcDbEntity
8
0
100
AcDbCircle
10
-497.62426147460923
20
223.77835845947803
30
0
40
1.6500000000000001
210
-2.0590230357872116e-84
220
2.1374019601855392e-100
230
1
0
CIRCLE
5
320
100
AcDbEntity
8
0
100
AcDbCircle
10
-527.77426147460949
20
158.77835845947263
30
0
40
1.6500000000000001
210
-2.0590230357872116e-84
220
2.1374019601855392e-100
230
1
0
CIRCLE
5
321
100
AcDbEntity
8
0
100
AcDbCircle
10
-495.17426147460935
20
158.77835845947263
30
0
40
1.6500000000000001
210
-2.0590230357872116e-84
220
2.1374019601855392e-100
230
1
0
LWPOLYLINE
5
322
100
AcDbEntity
8
0
100
AcDbPolyline
90
4
70
1
43
0.0
10
-533.35905796940381
20
221.43005702789154
10
-527.95905796940383
20
221.43005702789154
10
-527.95905796940383
20
215.13005702789155
10
-533.35905796940381
20
215.13005702789155
0
CIRCLE
5
323
100
AcDbEntity
8
0
100
AcDbCircle
10
-530.65905796940376
20
218.28005702789156
30
0
40
1.6500000000000001
210
1.1765606933715747e-68
220
-1.4408713500129218e-84
230
1
0
LWPOLYLINE
5
324
100
AcDbEntity
8
0
100
AcDbPolyline
90
4
70
1
43
0.0
10
-525.08946497980992
20
221.43005702789154
10
-519.68946497980994
20
221.43005702789154
10
-519.68946497980994
20
215.13005702789155
10
-525.08946497980992
20
215.13005702789155
0
CIRCLE
5
325
100
AcDbEntity
8
0
100
AcDbCircle
10
-522.38946497980987
20
218.28005702789156
30
0
40
1.6500000000000001
210
-2.0590230357872116e-84
220
2.1374019601855392e-100
230
1
0
LWPOLYLINE
5
326
100
AcDbEntity
8
0
100
AcDbPolyline
90
4
70
1
43
0.0
10
-484.82254028320312
20
142.42838287353516
10
-484.82254028320312
20
28.228382873535132
10
-537.42254028320303
20
28.228382873535125
10
-537.42254028320303
20
142.42838287353516
0
LWPOLYLINE
5
327
100
AcDbEntity
8
0
100
AcDbPolyline
90
4
70
1
43
0.0
10
-489.23774378840875
20
69.776684305116248
10
-489.23774378840875
20
76.076684305116245
10
-494.63774378840873
20
76.076684305116245
10
-494.63774378840873
20
69.776684305116248
0
LWPOLYLINE
5
328
100
AcDbEntity
8
0
100
AcDbPolyline
90
4
70
1
43
0.0
10
-497.50733677800264
20
69.776684305116248
10
-497.50733677800264
20
76.076684305116245
10
-502.90733677800267
20
76.076684305116245
10
-502.90733677800262
20
69.776684305116248
0
LWPOLYLINE
5
329
100
AcDbEntity
8
0
100
AcDbPolyline
90
4
70
1
43
0.0
10
-498.57254028320563
20
77.178382873535753
10
-493.57254028320568
20
77.178382873535753
42
0.99999999999999989
10
-493.57254028320574
20
80.478382873535764
10
-498.57254028320568
20
80.478382873535736
42
0.99999999999999989
0
CIRCLE
5
330
100
AcDbEntity
8
0
100
AcDbCircle
10
-494.82254028320312
20
87.428382873529699
30
0
40
1.6500000000000001
210
1.1765606933715747e-68
220
-6.2872832253656778e-92
230
1
0
CIRCLE
5
331
100
AcDbEntity
8
0
100
AcDbCircle
10
-524.97254028320344
20
38.228382873535139
30
0
40
1.6500000000000001
210
1.1765606933715747e-68
220
-6.2872832253656778e-92
230
1
0
CIRCLE
5
332
100
AcDbEntity
8
0
100
AcDbCircle
10
-527.42254028320315
20
87.428382873529699
30
0
40
1.6500000000000001
210
1.1765606933715747e-68
220
-6.2872832253656778e-92
230
1
0
CIRCLE
5
333
100
AcDbEntity
8
0
100
AcDbCircle
10
-524.97254028320333
20
67.428382873529742
30
0
40
1.6500000000000001
210
1.1765606933715747e-68
220
-6.2872832253656778e-92
230
1
0
CIRCLE
5
334
100
AcDbEntity
8
0
100
AcDbCircle
10
-494.82254028320312
20
132.42838287353516
30
0
40
1.6500000000000001
210
1.1765606933715747e-68
220
-6.2872832253656778e-92
230
1
0
CIRCLE
5
335
100
AcDbEntity
8
0
100
AcDbCircle
10
-527.42254028320315
20
132.42838287353516
30
0
40
1.6500000000000001
210
1.1765606933715747e-68
220
-6.2872832253656778e-92
230
1
0
LWPOLYLINE
5
336
100
AcDbEntity
8
0
100
AcDbPolyline
90
4
70
1
43
0.0
10
-497.50733677800264
20
69.776684305116248
10
-502.90733677800262
20
69.776684305116248
10
-502.90733677800262
20
76.076684305116245
10
-497.50733677800264
20
76.076684305116245
0
CIRCLE
5
337
100
AcDbEntity
8
0
100
AcDbCircle
10
-500.20733677800263
20
72.92668430511624
30
0
40
1.6500000000000001
210
1.1765606933715747e-68
220
-6.2872832253656778e-92
230
1
0
LWPOLYLINE
5
338
100
AcDbEntity
8
0
100
AcDbPolyline
90
4
70
1
43
0.0
10
-489.23774378840875
20
69.776684305116248
10
-494.63774378840873
20
69.776684305116248
10
-494.63774378840873
20
76.076684305116245
10
-489.23774378840875
20
76.076684305116245
0
CIRCLE
5
339
100
AcDbEntity
8
0
100
AcDbCircle
10
-491.9377437884088
20
72.92668430511624
30
0
40
1.6500000000000001
210
1.1765606933715747e-68
220
-6.2872832253656778e-92
230
1
0
LWPOLYLINE
5
340
100
AcDbEntity
8
0
100
AcDbPolyline
90
24
70
1
43
0.0
10
-552.06748585963442
20
121.72838020324622
42
-0.41421356237309503
10
-543.7725647347296
20
113.43345907834146
10
-543.7725647347296
20
79.023301346579558
42
-0.41421356237309503
10
-552.06748585963442
20
70.728380221674755
10
-568.97256474268863
20
70.728380221674755
10
-568.97256473956702
20
60.728380203246758
10
-583.87080097104831
20
60.728380203246751
42
0.41421356246453217
10
-586.87080097104831
20
57.728380202310262
10
-586.87080096667796
20
43.728380202310255
42
0.41421356237310281
10
-583.87080096574141
20
40.728380203246758
10
-568.9725646910224
20
40.728380207897459
10
-568.97256468712033
20
28.228380203247056
10
-609.97256469823424
20
28.228380203247028
42
-0.41421356237309503
10
-619.47256469008596
20
37.728380195098765
10
-619.47256469008619
20
154.72838022982205
42
-0.41421356237309503
10
-609.97256469823424
20
164.22838022167406
10
-568.97256468712033
20
164.22838022167406
10
-568.9725646910224
20
151.72838021702307
10
-583.87080096574152
20
151.72838022167409
42
0.41421356237306733
10
-586.87080096667796
20
148.72838022261104
10
-586.87080097104831
20
134.72838022261104
42
0.41421356246458851
10
-583.87080097104831
20
131.72838022167409
10
-568.97256473956691
20
131.72838022167406
10
-568.97256474268852
20
121.72838020324616
0
LWPOLYLINE
5
341
100
AcDbEntity
8
0
100
AcDbPolyline
90
10
70
1
43
0.0
10
-549.7725647347296
20
86.728380217024466
10
-549.77256473472971
20
115.22838020324616
10
-554.77256473472801
20
115.22838020324616
10
-554.77256473472789
20
96.228380212460465
42
-0.99999999999999989
10
-570.77256473472801
20
96.228380212460465
10
-570.77256473472801
20
115.22838020324616
10
-575.77256473472971
20
115.22838020324616
10
-575.77256473472971
20
86.728380217024466
42
0.41421356237309503
10
-566.27256473472971
20
77.228380217024466
10
-559.27256473472971
20
77.228380217024466
42
0.41421356237309503
0
LWPOLYLINE
5
342
100
AcDbEntity
8
0
100
AcDbPolyline
90
8
70
1
43
0.0
10
-566.59549390080861
20
103.22838020324618
10
-558.94963556864741
20
103.22838020324618
42
0.41421356237306933
10
-556.52256473472801
20
105.65545103716558
10
-556.52256473472801
20
111.23145132157717
42
0.41421356237311197
10
-560.51949361639709
20
115.22838020324616
10
-565.02563585305904
20
115.2283802032462
42
0.41421356237310802
10
-569.02256473472801
20
111.23145132157715
10
-569.02256473472801
20
105.65545103716556
42
0.41421356237306722
0
CIRCLE
5
343
100
AcDbEntity
8
0
100
AcDbCircle
10
-586.01129629547893
20
119.22838022167386
30
0
40
2.5
210
1.1765606933715747e-68
220
-0
230
1
0
CIRCLE
5
344
100
AcDbEntity
8
0
100
AcDbCircle
10
-603.87256472239483
20
141.22838021655409
30
0
40
2.75
210
1.1765606933715747e-68
220
-0
230
1
0
CIRCLE
5
345
100
AcDbEntity
8
0
100
AcDbCircle
10
-562.77256473472801
20
96.228380212460465
30
0
40
2.75
210
1.1765606933715747e-68
220
-0
230
1
0
CIRCLE
5
346
100
AcDbEntity
8
0
100
AcDbCircle
10
-586.01129629547893
20
73.228380203247056
30
0
40
2.5
210
1.1765606933715747e-68
220
-0
230
1
0
CIRCLE
5
347
100
AcDbEntity
8
0
100
AcDbCircle
10
-603.87256472239483
20
51.228380208366545
30
0
40
2.75
210
1.1765606933715747e-68
220
-0
230
1
0
LWPOLYLINE
5
348
100
AcDbEntity
8
0
100
AcDbPolyline
90
5
70
1
43
0.0
10
-579.5242909395995
20
221.57843622531249
10
-579.5242909395995
20
179.07843622531246
10
-619.82429134179279
20
179.07843622531246
10
-619.82429134179279
20
189.07843622531249
10
-587.32429134179279
20
221.57843622531249
0
LWPOLYLINE
5
349
100
AcDbEntity
8
0
100
AcDbPolyline
90
4
70
1
43
0.0
10
-554.32429093959922
20
179.07843622531249
10
-579.5242909395995
20
179.07843622531246
10
-579.5242909395995
20
221.57843622531249
10
-554.32429093959945
20
221.57843622531249
0
CIRCLE
5
350
100
AcDbEntity
8
0
100
AcDbCircle
10
-566.92429093959913
20
214.57843622531249
30
0
40
1.6500000000000001
210
-2.0590230357872113e-84
220
-1.7257826032718319e-84
230
1
0
CIRCLE
5
351
100
AcDbEntity
8
0
100
AcDbCircle
10
-566.92429093959913
20
186.07843622531249
30
0
40
1.6500000000000001
210
-2.0590230357872113e-84
220
-1.7257826032718319e-84
230
1
0
LWPOLYLINE
5
352
100
AcDbEntity
8
0
100
AcDbPolyline
90
24
70
1
43
0.0
10
-611.52937693333445
20
270.42845916748126
42
-0.41421356237309503
10
-619.82429805823915
20
278.72338029238608
10
-619.82429805823915
20
313.13353802414792
42
-0.41421356237309503
10
-611.52937693333445
20
321.42845914905274
10
-594.62429805028012
20
321.42845914905274
10
-594.62429805340184
20
331.4284591674807
10
-579.72606182192055
20
331.42845916748081
42
0.41421356246453994
10
-576.72606182192055
20
334.42845916841725
10
-576.72606182629079
20
348.42845916841725
42
0.41421356237310197
10
-579.72606182722734
20
351.4284591674807
10
-594.62429810194635
20
351.42845916282999
10
-594.62429810584842
20
363.92845916748047
10
-553.62429809473463
20
363.92845916748047
42
-0.41421356237309287
10
-544.1242981028829
20
354.42845917562875
10
-544.12429810288256
20
237.42845914090543
42
-0.41421356237309503
10
-553.62429809473463
20
227.92845914905342
10
-594.62429810584842
20
227.92845914905342
10
-594.62429810194647
20
240.42845915370441
10
-579.72606182722734
20
240.42845914905342
42
0.4142135623730534
10
-576.7260618262909
20
243.42845914811647
10
-576.72606182192055
20
257.42845914811647
42
0.41421356246458851
10
-579.72606182192055
20
260.42845914905342
10
-594.62429805340184
20
260.42845914905342
10
-594.62429805028023
20
270.42845916748138
0
LWPOLYLINE
5
353
100
AcDbEntity
8
0
100
AcDbPolyline
90
10
70
1
43
0.0
10
-613.82429805823915
20
305.42845915370305
10
-613.82429805823915
20
276.92845916748132
10
-608.82429805824086
20
276.92845916748132
10
-608.82429805824086
20
295.92845915826706
42
-0.99999999999999989
10
-592.82429805824086
20
295.92845915826706
10
-592.82429805824086
20
276.92845916748132
10
-587.82429805823915
20
276.92845916748132
10
-587.82429805823904
20
305.42845915370305
42
0.41421356237309503
10
-597.32429805823915
20
314.92845915370305
10
-604.32429805823915
20
314.92845915370305
42
0.41421356237309503
0
LWPOLYLINE
5
354
100
AcDbEntity
8
0
100
AcDbPolyline
90
8
70
1
43
0.0
10
-597.00136889216026
20
288.92845916748132
10
-604.64722722432145
20
288.92845916748132
42
0.41421356237307794
10
-607.07429805824086
20
286.50138833356198
10
-607.07429805824074
20
280.92538804915034
42
0.41421356237309243
10
-603.07736917657178
20
276.92845916748132
10
-598.57122693990982
20
276.92845916748132
42
0.41421356237309764
10
-594.57429805824086
20
280.92538804915034
10
-594.57429805824086
20
286.50138833356198
42
0.41421356237307794
0
CIRCLE
5
355
100
AcDbEntity
8
0
100
AcDbCircle
10
-577.58556649748994
20
272.92845914905365
30
0
40
2.5
210
1.1765606933715747e-68
220
-0
230
1
0
CIRCLE
5
356
100
AcDbEntity
8
0
100
AcDbCircle
10
-559.72429807057392
20
250.92845915417342
30
0
40
2.75
210
1.1765606933715747e-68
220
-0
230
1
0
CIRCLE
5
357
100
AcDbEntity
8
0
100
AcDbCircle
10
-600.82429805824086
20
295.92845915826706
30
0
40
2.75
210
1.1765606933715747e-68
220
-0
230
1
0
CIRCLE
5
358
100
AcDbEntity
8
0
100
AcDbCircle
10
-577.58556649748994
20
318.92845916748047
30
0
40
2.5
210
1.1765606933715747e-68
220
-0
230
1
0
CIRCLE
5
359
100
AcDbEntity
8
0
100
AcDbCircle
10
-559.72429807057392
20
340.92845916236092
30
0
40
2.75
210
1.1765606933715747e-68
220
-0
230
1
0
LWPOLYLINE
5
360
100
AcDbEntity
8
0
100
AcDbPolyline
90
4
70
1
43
0.0
10
-559.84461059570253
20
484.47844696044922
10
-559.84461059570253
20
370.27844696044923
10
-610.44461059570312
20
370.27844696044923
10
-610.44461059570312
20
484.47844696044922
0
CIRCLE
5
361
100
AcDbEntity
8
0
100
AcDbCircle
10
-567.84461059570253
20
411.47844696044928
30
0
40
1.6500000000000001
210
1.1765606933715747e-68
220
-6.2872832253656778e-92
230
1
0
CIRCLE
5
362
100
AcDbEntity
8
0
100
AcDbCircle
10
-602.44461059570267
20
427.47844696044928
30
0
40
1.6500000000000001
210
1.1765606933715747e-68
220
-6.2872832253656778e-92
230
1
0
CIRCLE
5
363
100
AcDbEntity
8
0
100
AcDbCircle
10
-567.84461059570253
20
474.47844696044922
30
0
40
1.6500000000000001
210
1.1765606933715747e-68
220
-6.2872832253656778e-92
230
1
0
CIRCLE
5
364
100
AcDbEntity
8
0
100
AcDbCircle
10
-602.44461059570267
20
378.27844696044929
30
0
40
1.6500000000000001
210
1.1765606933715747e-68
220
-6.2872832253656778e-92
230
1
0
CIRCLE
5
365
100
AcDbEntity
8
0
100
AcDbCircle
10
-567.84461059570253
20
378.27844696044929
30
0
40
1.6500000000000001
210
1.1765606933715747e-68
220
-6.2872832253656778e-92
230
1
0
CIRCLE
5
366
100
AcDbEntity
8
0
100
AcDbCircle
10
-602.44461059570267
20
474.47844696044922
30
0
40
1.6500000000000001
210
1.1765606933715747e-68
220
-6.2872832253656778e-92
230
1
0
CIRCLE
5
367
100
AcDbEntity
8
0
100
AcDbCircle
10
-602.44461059570267
20
411.47844696044928
30
0
40
1.6500000000000001
210
1.1765606933715747e-68
220
-6.2872832253656778e-92
230
1
0
CIRCLE
5
368
100
AcDbEntity
8
0
100
AcDbCircle
10
-567.84461059570253
20
427.47844696044922
30
0
40
1.6500000000000001
210
1.1765606933715747e-68
220
-6.2872832253656778e-92
230
1
0
LWPOLYLINE
5
369
100
AcDbEntity
8
0
100
AcDbPolyline
90
4
70
1
43
0.0
10
-610.44461059570256
20
484.47844696044922
10
-610.44461059570256
20
370.27844696044923
10
-620.44461059570256
20
370.27844696044923
10
-620.44461059570256
20
484.47844696044922
0
CIRCLE
5
370
100
AcDbEntity
8
0
100
AcDbCircle
10
-615.44461059570256
20
409.47844696044922
30
0
40
1.6500000000000001
210
1.1765606933715747e-68
220
-6.2872832253656778e-92
230
1
0
CIRCLE
5
371
100
AcDbEntity
8
0
100
AcDbCircle
10
-615.44461059570256
20
429.47844696044922
30
0
40
1.6500000000000001
210
1.1765606933715747e-68
220
-6.2872832253656778e-92
230
1
0
CIRCLE
5
372
100
AcDbEntity
8
0
100
AcDbCircle
10
-615.44461059570256
20
474.47844696044922
30
0
40
1.6500000000000001
210
1.1765606933715747e-68
220
-6.2872832253656778e-92
230
1
0
CIRCLE
5
373
100
AcDbEntity
8
0
100
AcDbCircle
10
-615.44461059570256
20
380.27844696044923
30
0
40
1.6500000000000001
210
1.1765606933715747e-68
220
-6.2872832253656778e-92
230
1
0
LWPOLYLINE
5
374
100
AcDbEntity
8
0
100
AcDbPolyline
90
4
70
1
43
0.0
10
-626.74976196289003
20
547.67842864990234
10
-626.74976196289003
20
433.47842864990236
10
-677.34976196289062
20
433.47842864990236
10
-677.34976196289062
20
547.67842864990234
0
CIRCLE
5
375
100
AcDbEntity
8
0
100
AcDbCircle
10
-634.74976196289003
20
474.6784286499024
30
0
40
1.6500000000000001
210
1.1765606933715747e-68
220
-6.2872832253656778e-92
230
1
0
CIRCLE
5
376
100
AcDbEntity
8
0
100
AcDbCircle
10
-669.34976196289017
20
490.6784286499024
30
0
40
1.6500000000000001
210
1.1765606933715747e-68
220
-6.2872832253656778e-92
230
1
0
CIRCLE
5
377
100
AcDbEntity
8
0
100
AcDbCircle
10
-634.74976196289003
20
537.67842864990234
30
0
40
1.6500000000000001
210
1.1765606933715747e-68
220
-6.2872832253656778e-92
230
1
0
CIRCLE
5
378
100
AcDbEntity
8
0
100
AcDbCircle
10
-669.34976196289017
20
441.47842864990241
30
0
40
1.6500000000000001
210
1.1765606933715747e-68
220
-6.2872832253656778e-92
230
1
0
CIRCLE
5
379
100
AcDbEntity
8
0
100
AcDbCircle
10
-634.74976196289003
20
441.47842864990241
30
0
40
1.6500000000000001
210
1.1765606933715747e-68
220
-6.2872832253656778e-92
230
1
0
CIRCLE
5
380
100
AcDbEntity
8
0
100
AcDbCircle
10
-669.34976196289017
20
537.67842864990234
30
0
40
1.6500000000000001
210
1.1765606933715747e-68
220
-6.2872832253656778e-92
230
1
0
CIRCLE
5
381
100
AcDbEntity
8
0
100
AcDbCircle
10
-669.34976196289017
20
474.6784286499024
30
0
40
1.6500000000000001
210
1.1765606933715747e-68
220
-6.2872832253656778e-92
230
1
0
CIRCLE
5
382
100
AcDbEntity
8
0
100
AcDbCircle
10
-634.74976196289003
20
490.67842864990234
30
0
40
1.6500000000000001
210
1.1765606933715747e-68
220
-6.2872832253656778e-92
230
1
0
LWPOLYLINE
5
383
100
AcDbEntity
8
0
100
AcDbPolyline
90
4
70
1
43
0.0
10
-677.34976196289017
20
547.67842864990234
10
-677.34976196289017
20
433.47842864990236
10
-687.34976196289017
20
433.47842864990236
10
-687.34976196289017
20
547.67842864990234
0
CIRCLE
5
384
100
AcDbEntity
8
0
100
AcDbCircle
10
-682.34976196289017
20
472.67842864990234
30
0
40
1.6500000000000001
210
1.1765606933715747e-68
220
-6.2872832253656778e-92
230
1
0
CIRCLE
5
385
100
AcDbEntity
8
0
100
AcDbCircle
10
-682.34976196289017
20
492.67842864990234
30
0
40
1.6500000000000001
210
1.1765606933715747e-68
220
-6.2872832253656778e-92
230
1
0
CIRCLE
5
386
100
AcDbEntity
8
0
100
AcDbCircle
10
-682.34976196289017
20
537.67842864990234
30
0
40
1.6500000000000001
210
1.1765606933715747e-68
220
-6.2872832253656778e-92
230
1
0
CIRCLE
5
387
100
AcDbEntity
8
0
100
AcDbCircle
10
-682.34976196289017
20
443.47842864990236
30
0
40
1.6500000000000001
210
1.1765606933715747e-68
220
-6.2872832253656778e-92
230
1
0
LWPOLYLINE
5
388
100
AcDbEntity
8
0
100
AcDbPolyline
90
4
70
1
43
0.0
10
-626.79456176757765
20
427.12847137451172
10
-626.79456176757765
20
312.92847137451167
10
-677.39456176757824
20
312.92847137451167
10
-677.39456176757824
20
427.12847137451172
0
CIRCLE
5
389
100
AcDbEntity
8
0
100
AcDbCircle
10
-634.79456176757765
20
354.12847137451172
30
0
40
1.6500000000000001
210
-2.0590230357872116e-84
220
-2.6225023539399242e-108
230
1
0
CIRCLE
5
390
100
AcDbEntity
8
0
100
AcDbCircle
10
-669.39456176757767
20
370.12847137451172
30
0
40
1.6500000000000001
210
-2.0590230357872116e-84
220
-2.6225023539399242e-108
230
1
0
CIRCLE
5
391
100
AcDbEntity
8
0
100
AcDbCircle
10
-634.79456176757765
20
417.12847137451172
30
0
40
1.6500000000000001
210
-2.0590230357872116e-84
220
-2.6225023539399242e-108
230
1
0
CIRCLE
5
392
100
AcDbEntity
8
0
100
AcDbCircle
10
-669.39456176757767
20
320.92847137451173
30
0
40
1.6500000000000001
210
-2.0590230357872116e-84
220
-2.6225023539399242e-108
230
1
0
CIRCLE
5
393
100
AcDbEntity
8
0
100
AcDbCircle
10
-634.79456176757765
20
320.92847137451173
30
0
40
1.6500000000000001
210
-2.0590230357872116e-84
220
-2.6225023539399242e-108
230
1
0
CIRCLE
5
394
100
AcDbEntity
8
0
100
AcDbCircle
10
-669.39456176757767
20
417.12847137451172
30
0
40
1.6500000000000001
210
-2.0590230357872116e-84
220
-2.6225023539399242e-108
230
1
0
CIRCLE
5
395
100
AcDbEntity
8
0
100
AcDbCircle
10
-669.39456176757767
20
354.12847137451172
30
0
40
1.6500000000000001
210
-2.0590230357872116e-84
220
-2.6225023539399242e-108
230
1
0
CIRCLE
5
396
100
AcDbEntity
8
0
100
AcDbCircle
10
-634.79456176757765
20
370.12847137451166
30
0
40
1.6500000000000001
210
-2.0590230357872116e-84
220
-2.6225023539399242e-108
230
1
0
LWPOLYLINE
5
397
100
AcDbEntity
8
0
100
AcDbPolyline
90
4
70
1
43
0.0
10
-677.39456176757767
20
427.12847137451172
10
-677.39456176757767
20
312.92847137451167
10
-687.39456176757767
20
312.92847137451167
10
-687.39456176757767
20
427.12847137451172
0
CIRCLE
5
398
100
AcDbEntity
8
0
100
AcDbCircle
10
-682.39456176757767
20
352.12847137451172
30
0
40
1.6500000000000001
210
1.1765606933715747e-68
220
-6.2872832253656778e-92
230
1
0
CIRCLE
5
399
100
AcDbEntity
8
0
100
AcDbCircle
10
-682.39456176757767
20
372.12847137451172
30
0
40
1.6500000000000001
210
1.1765606933715747e-68
220
-6.2872832253656778e-92
230
1
0
CIRCLE
5
400
100
AcDbEntity
8
0
100
AcDbCircle
10
-682.39456176757767
20
417.12847137451172
30
0
40
1.6500000000000001
210
1.1765606933715747e-68
220
-6.2872832253656778e-92
230
1
0
CIRCLE
5
401
100
AcDbEntity
8
0
100
AcDbCircle
10
-682.39456176757767
20
322.92847137451167
30
0
40
1.6500000000000001
210
1.1765606933715747e-68
220
-6.2872832253656778e-92
230
1
0
LWPOLYLINE
5
402
100
AcDbEntity
8
0
100
AcDbPolyline
90
26
70
1
43
0.0
10
-687.33652862751285
20
258.57840728103673
10
-677.33652862751285
20
258.57840728103673
10
-677.33652862751285
20
306.57840730602464
10
-626.17428587852669
20
306.57840730602464
10
-626.17428588242876
20
294.07840730137366
10
-641.07252215714766
20
294.07840730602464
42
0.41421356237306733
10
-644.07252215808421
20
291.07840730696159
10
-644.07252216245456
20
277.07840730696159
42
0.41421356246460589
10
-641.07252216245456
20
274.07840730602464
10
-626.17428593097327
20
274.07840730602464
10
-626.17428593409488
20
264.07840728759675
10
-609.26920705104067
20
264.07840728759686
42
-0.41421356237309503
10
-600.97428592613585
20
255.78348616269204
10
-600.97428592613585
20
221.37332843093014
42
-0.41421356237309503
10
-609.26920705104067
20
213.07840730602535
10
-626.17428593409488
20
213.07840730602535
10
-626.17428593097327
20
203.07840728759737
10
-641.07252216245456
20
203.07840728759737
42
0.41421356246451224
10
-644.07252216245456
20
200.07840728666082
10
-644.07252215808421
20
186.07840728666082
42
0.41421356237314017
10
-641.07252215714766
20
183.07840728759732
10
-626.17428588242876
20
183.07840729224804
10
-626.17428587852669
20
170.57840728759766
10
-677.33652862751285
20
170.57840728759777
10
-677.33652862751285
20
218.57840728103702
10
-687.33652862751285
20
218.57840728103702
0
LWPOLYLINE
5
403
100
AcDbEntity
8
0
100
AcDbPolyline
90
4
70
1
43
0.0
10
-636.97428591851474
20
176.77350802081705
10
-634.17428591851478
20
176.77350802081855
10
-634.17428591851478
20
179.62840728711257
10
-636.97428591851474
20
179.62840728711254
0
LWPOLYLINE
5
404
100
AcDbEntity
8
0
100
AcDbPolyline
90
4
70
1
43
0.0
10
-634.17428591851478
20
300.58034674324762
10
-636.97428591851474
20
300.58034674324864
10
-636.97428591851474
20
297.52840728495761
10
-634.17428591851478
20
297.52840728495767
0
CIRCLE
5
405
100
AcDbEntity
8
0
100
AcDbCircle
10
-660.8014258524845
20
193.57840729280235
30
0
40
2.75
210
-2.0590230357872116e-84
220
6.2872832253656778e-92
230
1
0
CIRCLE
5
406
100
AcDbEntity
8
0
100
AcDbCircle
10
-643.21301748688506
20
215.57840728759766
30
0
40
2.5
210
3.3597867563199737e-115
220
6.2872832253656765e-92
230
1
0
CIRCLE
5
407
100
AcDbEntity
8
0
100
AcDbCircle
10
-619.97428592613426
20
238.57840729681104
30
0
40
2.75
210
-2.0590230357872116e-84
220
6.2872832253656778e-92
230
1
0
CIRCLE
5
408
100
AcDbEntity
8
0
100
AcDbCircle
10
-660.8014258524845
20
283.57840730081966
30
0
40
2.75
210
-2.0590230357872116e-84
220
6.2872832253656778e-92
230
1
0
CIRCLE
5
409
100
AcDbEntity
8
0
100
AcDbCircle
10
-643.21301748688506
20
261.57840730602447
30
0
40
2.5
210
3.3597867563199737e-115
220
6.2872832253656765e-92
230
1
0
LWPOLYLINE
5
410
100
AcDbEntity
8
0
100
AcDbPolyline
90
8
70
1
43
0.0
10
-623.79721509221486
20
245.57840728759675
10
-616.15135676005366
20
245.57840728759675
42
0.41421356237307794
10
-613.72428592613426
20
248.00547812151615
10
-613.72428592613437
20
253.58147840592775
42
0.41421356237310281
10
-617.72121480780345
20
257.57840728759675
10
-622.22735704446529
20
257.5784072875968
42
0.41421356237310025
10
-626.22428592613426
20
253.58147840592773
10
-626.22428592613426
20
248.00547812151615
42
0.41421356237307794
0
LWPOLYLINE
5
411
100
AcDbEntity
8
0
100
AcDbPolyline
90
10
70
1
43
0.0
10
-606.97428592613596
20
229.07840730137505
10
-606.97428592613596
20
257.57840728759675
10
-611.97428592613426
20
257.57840728759675
10
-611.97428592613414
20
238.57840729681104
42
-0.99999999999999989
10
-627.97428592613426
20
238.57840729681104
10
-627.97428592613426
20
257.57840728759675
10
-632.97428592613596
20
257.57840728759675
10
-632.97428592613596
20
229.07840730137505
42
0.41421356237309503
10
-623.47428592613596
20
219.57840730137505
10
-616.47428592613596
20
219.57840730137505
42
0.41421356237309503
0
LWPOLYLINE
5
412
100
AcDbEntity
8
0
100
AcDbPolyline
90
4
70
1
43
0.0
10
-636.97428591851474
20
266.27840728478697
10
-634.17428591851478
20
266.27840728478697
10
-634.17428591851478
20
271.87840728478665
10
-636.97428591851474
20
271.8784072847867
0
LWPOLYLINE
5
413
100
AcDbEntity
8
0
100
AcDbPolyline
90
4
70
1
43
0.0
10
-636.97428591851474
20
205.27840728728353
10
-634.17428591851478
20
205.27840728728353
10
-634.17428591851478
20
210.87840728728355
10
-636.97428591851474
20
210.87840728728352
0
LWPOLYLINE
5
414
100
AcDbEntity
8
0
100
AcDbPolyline
90
26
70
1
43
0.0
10
-625.82252898967477
20
76.228401190642927
10
-635.82252898967477
20
76.228401190642927
10
-635.82252898967488
20
28.228401165655029
10
-686.98477173866104
20
28.228401165655033
10
-686.98477173475897
20
40.728401170306014
10
-672.08653546004007
20
40.728401165655022
42
0.41421356237306733
10
-669.0865354591034
20
43.728401164718029
10
-669.08653545473317
20
57.728401164718036
42
0.4142135624646085
10
-672.08653545473317
20
60.728401165655015
10
-686.98477168621434
20
60.728401165655015
10
-686.98477168309284
20
70.728401184082927
10
-703.88985056614706
20
70.728401184082784
42
-0.4142135623730957
10
-712.18477169105188
20
79.023322308987645
10
-712.18477169105188
20
113.43348004074954
42
-0.41421356237309503
10
-703.88985056614706
20
121.72840116565433
10
-686.98477168309284
20
121.72840116565433
10
-686.98477168621434
20
131.72840118408234
10
-672.08653545473317
20
131.72840118408232
42
0.41421356246450702
10
-669.08653545473317
20
134.72840118501884
10
-669.0865354591034
20
148.72840118501881
42
0.41421356237314183
10
-672.08653546004007
20
151.72840118408234
10
-686.98477173475885
20
151.72840117943164
10
-686.98477173866104
20
164.22840118408203
10
-635.82252898967477
20
164.22840118408189
10
-635.82252898967477
20
116.22840119064263
10
-625.82252898967477
20
116.22840119064263
0
LWPOLYLINE
5
415
100
AcDbEntity
8
0
100
AcDbPolyline
90
4
70
1
43
0.0
10
-676.18477169867288
20
158.03330045086264
10
-678.98477169867294
20
158.03330045086116
10
-678.98477169867294
20
155.17840118456712
10
-676.18477169867288
20
155.17840118456712
0
LWPOLYLINE
5
416
100
AcDbEntity
8
0
100
AcDbPolyline
90
4
70
1
43
0.0
10
-678.98477169867294
20
34.226461728432028
10
-676.18477169867288
20
34.226461728431019
10
-676.18477169867288
20
37.278401186722036
10
-678.98477169867294
20
37.278401186722036
0
CIRCLE
5
417
100
AcDbEntity
8
0
100
AcDbCircle
10
-652.35763176470311
20
141.22840117887733
30
0
40
2.75
210
-2.0590230357872113e-84
220
1.4408713500129222e-84
230
1
0
CIRCLE
5
418
100
AcDbEntity
8
0
100
AcDbCircle
10
-669.94604013030255
20
119.22840118408203
30
0
40
2.5
210
1.7645584867764538e-100
220
1.4408713500129218e-84
230
1
0
CIRCLE
5
419
100
AcDbEntity
8
0
100
AcDbCircle
10
-693.18477169105347
20
96.228401174868623
30
0
40
2.75
210
-2.0590230357872113e-84
220
1.4408713500129222e-84
230
1
0
CIRCLE
5
420
100
AcDbEntity
8
0
100
AcDbCircle
10
-652.35763176470311
20
51.22840117086001
30
0
40
2.75
210
-2.0590230357872113e-84
220
1.4408713500129222e-84
230
1
0
CIRCLE
5
421
100
AcDbEntity
8
0
100
AcDbCircle
10
-669.94604013030255
20
73.228401165655228
30
0
40
2.5
210
1.7645584867764538e-100
220
1.4408713500129218e-84
230
1
0
LWPOLYLINE
5
422
100
AcDbEntity
8
0
100
AcDbPolyline
90
8
70
1
43
0.0
10
-689.36184252497287
20
89.228401184082912
10
-697.00770085713407
20
89.228401184082912
42
0.41421356237313578
10
-699.43477169105347
20
86.801330350163525
10
-699.43477169105336
20
81.225330065751933
42
0.41421356237309503
10
-695.43784280938439
20
77.228401184082927
10
-690.93170057272243
20
77.228401184082884
42
0.41421356237310675
10
-686.93477169105347
20
81.225330065751947
10
-686.93477169105347
20
86.801330350163539
42
0.41421356237309931
0
LWPOLYLINE
5
423
100
AcDbEntity
8
0
100
AcDbPolyline
90
10
70
1
43
0.0
10
-706.18477169105188
20
105.72840117030464
10
-706.18477169105176
20
77.228401184082927
10
-701.18477169105347
20
77.228401184082927
10
-701.18477169105358
20
96.228401174868623
42
-0.99999999999999989
10
-685.18477169105336
20
96.228401174868623
10
-685.18477169105336
20
77.228401184082927
10
-680.18477169105165
20
77.228401184082927
10
-680.18477169105165
20
105.72840117030464
42
0.41421356237309503
10
-689.68477169105176
20
115.22840117030462
10
-696.68477169105176
20
115.22840117030462
42
0.41421356237309503
0
LWPOLYLINE
5
424
100
AcDbEntity
8
0
100
AcDbPolyline
90
4
70
1
43
0.0
10
-676.18477169867288
20
68.528401186892737
10
-678.98477169867294
20
68.528401186892737
10
-678.98477169867294
20
62.928401186893019
10
-676.18477169867288
20
62.928401186893019
0
LWPOLYLINE
5
425
100
AcDbEntity
8
0
100
AcDbPolyline
90
4
70
1
43
0.0
10
-676.18477169867288
20
129.52840118439613
10
-678.98477169867294
20
129.52840118439613
10
-678.98477169867294
20
123.92840118439611
10
-676.18477169867288
20
123.92840118439614
0
LWPOLYLINE
5
426
100
AcDbEntity
8
0
100
AcDbPolyline
90
17
70
1
43
0.0
10
-759.13480784146691
20
247.26971073611196
10
-744.13480784146691
20
262.26971073611202
10
-731.03480784146745
20
262.26971073611196
10
-731.03480784146745
20
222.26971073611196
10
-718.53480784146723
20
222.26971073611196
10
-718.53480784146723
20
181.87060547796338
10
-696.64524465791101
20
181.8706054779633
42
-0.41421356237309503
10
-693.8503235237921
20
179.07568434384439
10
-693.85032352379199
20
144.66552661208249
42
-0.41421356237309503
10
-696.64524465791101
20
141.87060547796338
10
-718.53480784146745
20
141.87060547796338
10
-718.53480784146745
20
85.728375195705766
10
-731.03480784146745
20
85.728375195705766
10
-731.03480784146745
20
45.72837519570578
10
-718.53480784146745
20
45.72837519570578
10
-718.53480784146745
20
28.228375195705581
10
-759.13480784146691
20
28.228375195705766
0
CIRCLE
5
427
100
AcDbEntity
8
0
100
AcDbCircle
10
-751.43480784146675
20
56.528375195703276
30
0
40
2.75
210
-2.0590230357872116e-84
220
6.2872832253656778e-92
230
1
0
LWPOLYLINE
5
428
100
AcDbEntity
8
0
100
AcDbPolyline
90
8
70
1
43
0.0
10
-697.85032352379199
20
147.87060547796341
10
-697.85032352379199
20
175.87060547796341
10
-702.85032352379199
20
175.87060547796341
10
-702.85032352379051
20
161.87060547796335
42
-0.99999999999999989
10
-718.85032352379039
20
161.87060547796341
10
-718.8503235237921
20
175.87060547796341
10
-723.8503235237921
20
175.87060547796341
10
-723.85032352379199
20
147.87060547796341
0
LWPOLYLINE
5
429
100
AcDbEntity
8
0
100
AcDbPolyline
90
8
70
1
43
0.0
10
-714.67325268987429
20
166.87060547796338
10
-707.0273943577098
20
166.87060547796338
42
0.41421356237306073
10
-704.60032352379221
20
169.29767631188116
10
-704.60032352379199
20
171.87367659629439
42
0.41421356237308982
10
-708.59725240546118
20
175.87060547796341
10
-713.10339464212302
20
175.87060547796341
42
0.41421356237310281
10
-717.10032352379221
20
171.87367659629442
10
-717.10032352379199
20
169.29767631188122
42
0.41421356237306506
0
CIRCLE
5
430
100
AcDbEntity
8
0
100
AcDbCircle
10
-751.43480784146686
20
243.755176236323
30
0
40
2.75
210
-2.0590230357872116e-84
220
6.2872832253656778e-92
230
1
0
CIRCLE
5
431
100
AcDbEntity
8
0
100
AcDbCircle
10
-710.85032352379039
20
161.87060547796338
30
0
40
2.75
210
-2.0590230357872116e-84
220
6.2872832253656778e-92
230
1
0
LWPOLYLINE
5
432
100
AcDbEntity
8
0
100
AcDbPolyline
90
17
70
1
43
0.0
10
-693.68654225618934
20
243.6198385192591
10
-708.68654225618934
20
228.6198385192591
10
-721.7865422561888
20
228.61983851925913
10
-721.7865422561888
20
268.61983851925913
10
-734.28654225618902
20
268.61983851925913
10
-734.28654225618902
20
309.01894377740769
10
-756.17610543974524
20
309.0189437774078
42
-0.41421356237309503
10
-758.97102657386415
20
311.81386491152671
10
-758.97102657386426
20
346.22402264328861
42
-0.41421356237309503
10
-756.17610543974524
20
349.01894377740774
10
-734.2865422561888
20
349.01894377740774
10
-734.2865422561888
20
405.16117405966531
10
-721.7865422561888
20
405.16117405966531
10
-721.7865422561888
20
445.16117405966531
10
-734.2865422561888
20
445.16117405966531
10
-734.2865422561888
20
462.66117405966554
10
-693.68654225618934
20
462.66117405966531
0
CIRCLE
5
433
100
AcDbEntity
8
0
100
AcDbCircle
10
-701.38654225618939
20
434.36117405966786
30
0
40
2.75
210
-2.0590230357872113e-84
220
1.4408713500129222e-84
230
1
0
LWPOLYLINE
5
434
100
AcDbEntity
8
0
100
AcDbPolyline
90
8
70
1
43
0.0
10
-754.97102657386426
20
343.01894377740769
10
-754.97102657386426
20
315.01894377740769
10
-749.97102657386426
20
315.01894377740774
10
-749.97102657386608
20
329.0189437774078
42
-0.99999999999999989
10
-733.97102657386586
20
329.01894377740769
10
-733.97102657386415
20
315.01894377740769
10
-728.97102657386415
20
315.01894377740774
10
-728.97102657386426
20
343.01894377740774
0
LWPOLYLINE
5
435
100
AcDbEntity
8
0
100
AcDbPolyline
90
8
70
1
43
0.0
10
-738.14809740778196
20
324.01894377740774
10
-745.79395573994645
20
324.01894377740774
42
0.41421356237306933
10
-748.22102657386426
20
321.59187294348988
10
-748.22102657386426
20
319.01587265907671
42
0.41421356237308982
10
-744.22409769219507
20
315.01894377740769
10
-739.71795545553323
20
315.01894377740769
42
0.41421356237310281
10
-735.72102657386426
20
319.01587265907671
10
-735.72102657386426
20
321.59187294348988
42
0.41421356237306933
0
CIRCLE
5
436
100
AcDbEntity
8
0
100
AcDbCircle
10
-701.38654225618939
20
247.1343730190481
30
0
40
2.75
210
-2.0590230357872113e-84
220
1.4408713500129222e-84
230
1
0
CIRCLE
5
437
100
AcDbEntity
8
0
100
AcDbCircle
10
-741.97102657386597
20
329.01894377740774
30
0
40
2.75
210
-2.0590230357872113e-84
220
1.4408713500129222e-84
230
1
0
LWPOLYLINE
5
438
100
AcDbEntity
8
0
100
AcDbPolyline
90
24
70
1
43
0.0
10
-765.62747192382994
20
211.47838287353352
42
-0.41421356237310542
10
-769.62747192383006
20
207.47838287353363
10
-897.6274719238279
20
207.47838287353483
42
-0.41421356237310802
10
-901.6274719238279
20
211.47838287353477
10
-901.6274719238279
20
247.27838287353475
10
-871.6274719238279
20
247.27838287353475
10
-871.6274719238279
20
252.27838287353475
10
-893.6274719238279
20
252.27838287353475
42
-0.99999999999999989
10
-893.6274719238279
20
268.27838287353478
10
-871.6274719238279
20
268.2783828735345
10
-871.62747192382778
20
273.27838287353478
10
-901.6274719238279
20
273.27838287353478
10
-901.62747192382835
20
375.09579211438006
42
-0.38922729648966881
10
-897.54259580768939
20
380.37838287353514
10
-769.71234803996708
20
380.37838287353367
42
-0.38922729648963195
10
-765.62747192382812
20
375.09579211438006
10
-765.62747192382915
20
273.27838287353472
10
-795.62747192382812
20
273.27838287353472
10
-795.62747192382812
20
268.27838287353455
10
-773.62747192382812
20
268.27838287353467
42
-0.99999999999999989
10
-773.62747192382812
20
252.27838287353475
10
-795.62747192382812
20
252.27838287353475
10
-795.62747192382812
20
247.27838287353472
10
-765.62747192382915
20
247.27838287353472
0
CIRCLE
5
439
100
AcDbEntity
8
0
100
AcDbCircle
10
-887.47796698409491
20
215.62838287353435
30
0
40
1.6500000000000001
210
1.1765606933715747e-68
220
4.5719495651290999e-100
230
1
0
CIRCLE
5
440
100
AcDbEntity
8
0
100
AcDbCircle
10
-887.47796698409456
20
229.32838287353434
30
0
40
1.6500000000000001
210
1.1765606933715747e-68
220
4.5719495651290999e-100
230
1
0
CIRCLE
5
441
100
AcDbEntity
8
0
100
AcDbCircle
10
-779.77697686356305
20
215.62838287353432
30
0
40
1.6500000000000001
210
1.1765606933715747e-68
220
4.5719495651290999e-100
230
1
0
CIRCLE
5
442
100
AcDbEntity
8
0
100
AcDbCircle
10
-779.77697686356305
20
229.32838287353434
30
0
40
1.6500000000000001
210
1.1765606933715747e-68
220
4.5719495651290999e-100
230
1
0
CIRCLE
5
443
100
AcDbEntity
8
0
100
AcDbCircle
10
-808.50247192383006
20
243.37838224769442
30
0
40
1.6500000000000001
210
1.1765606933715747e-68
220
4.5719495651290999e-100
230
1
0
CIRCLE
5
444
100
AcDbEntity
8
0
100
AcDbCircle
10
-858.75247192382733
20
243.37838224769442
30
0
40
1.6500000000000001
210
1.1765606933715747e-68
220
4.5719495651290999e-100
230
1
0
CIRCLE
5
445
100
AcDbEntity
8
0
100
AcDbCircle
10
-803.09606515035011
20
260.57838287353331
30
0
40
1.6500000000000001
210
1.1765606933715747e-68
220
4.5719495651290999e-100
230
1
0
CIRCLE
5
446
100
AcDbEntity
8
0
100
AcDbCircle
10
-864.15887869730784
20
260.57838287353331
30
0
40
1.6500000000000001
210
1.1765606933715747e-68
220
4.5719495651290999e-100
230
1
0
CIRCLE
5
447
100
AcDbEntity
8
0
100
AcDbCircle
10
-849.50247192382903
20
263.92838287353857
30
0
40
1.625
210
1.1765606933715747e-68
220
4.5719495651290999e-100
230
1
0
CIRCLE
5
448
100
AcDbEntity
8
0
100
AcDbCircle
10
-817.75247192382903
20
263.92838287353857
30
0
40
1.625
210
1.1765606933715747e-68
220
4.5719495651290999e-100
230
1
0
CIRCLE
5
449
100
AcDbEntity
8
0
100
AcDbCircle
10
-833.62747192382915
20
248.05338287353862
30
0
40
11.500000000000002
210
1.1765606933715747e-68
220
4.5719495651290999e-100
230
1
0
CIRCLE
5
450
100
AcDbEntity
8
0
100
AcDbCircle
10
-849.50247192382915
20
232.17838287353862
30
0
40
1.625
210
1.1765606933715747e-68
220
4.5719495651290999e-100
230
1
0
CIRCLE
5
451
100
AcDbEntity
8
0
100
AcDbCircle
10
-817.75247192382903
20
232.17838287353862
30
0
40
1.625
210
1.1765606933715747e-68
220
4.5719495651290999e-100
230
1
0
CIRCLE
5
452
100
AcDbEntity
8
0
100
AcDbCircle
10
-803.12747193304301
20
324.17838287352913
30
0
40
1.5000000000000002
210
1.1765606933715747e-68
220
4.5719495651290999e-100
230
1
0
CIRCLE
5
453
100
AcDbEntity
8
0
100
AcDbCircle
10
-895.37747192150164
20
324.17838287352913
30
0
40
1.5000000000000002
210
1.1765606933715747e-68
220
4.5719495651290999e-100
230
1
0
CIRCLE
5
454
100
AcDbEntity
8
0
100
AcDbCircle
10
-863.62747192382812
20
344.80438287353513
30
0
40
2.5
210
1.1765606933715747e-68
220
4.5719495651290999e-100
230
1
0
CIRCLE
5
455
100
AcDbEntity
8
0
100
AcDbCircle
10
-803.62747192382812
20
365.88978631591806
30
0
40
2.5
210
1.1765606933715747e-68
220
4.5719495651290999e-100
230
1
0
CIRCLE
5
456
100
AcDbEntity
8
0
100
AcDbCircle
10
-803.62747192382812
20
344.80438287353513
30
0
40
2.5
210
1.1765606933715747e-68
220
4.5719495651290999e-100
230
1
0
CIRCLE
5
457
100
AcDbEntity
8
0
100
AcDbCircle
10
-863.62747192382812
20
365.88978631591806
30
0
40
2.5
210
1.1765606933715747e-68
220
4.5719495651290999e-100
230
1
0
CIRCLE
5
458
100
AcDbEntity
8
0
100
AcDbCircle
10
-771.87747192615404
20
324.17838287352913
30
0
40
1.5000000000000002
210
1.1765606933715747e-68
220
4.5719495651290999e-100
230
1
0
LWPOLYLINE
5
459
100
AcDbEntity
8
0
100
AcDbPolyline
90
4
70
1
43
0.0
10
-795.62747192382812
20
266.27838287353472
10
-795.62747192382812
20
254.27838287353472
10
-781.62747192382812
20
254.27838287353472
10
-781.62747192382824
20
266.27838287353472
0
LWPOLYLINE
5
460
100
AcDbEntity
8
0
100
AcDbPolyline
90
4
70
1
43
0.0
10
-885.6274719238279
20
266.27838287353472
10
-885.6274719238279
20
254.27838287353472
10
-871.6274719238279
20
254.27838287353478
10
-871.62747192382778
20
266.27838287353478
0
LWPOLYLINE
5
461
100
AcDbEntity
8
0
100
AcDbPolyline
90
28
70
1
43
0.0
10
-859.12747192382824
20
316.67838287353516
10
-857.62747192382835
20
316.67838287353516
10
-857.62747192382801
20
319.07838287353513
10
-853.62747192382812
20
319.07838287353513
10
-853.62747192382812
20
316.67838287353516
10
-846.62747192382812
20
316.6783828735351
42
-0.41421356237309503
10
-843.62747192382812
20
313.67838287353516
10
-843.62747192382812
20
304.67838287353516
42
0.4142135623730992
10
-838.62747192382812
20
299.67838287353516
10
-828.62747192382812
20
299.67838287353516
42
0.4142135623730992
10
-823.62747192382812
20
304.67838287353516
10
-823.62747192382812
20
313.67838287353516
42
-0.41421356237309503
10
-820.62747192382812
20
316.6783828735351
10
-813.62747192382812
20
316.6783828735351
10
-813.62747192382812
20
319.07838287353513
10
-809.62747192382812
20
319.07838287353513
10
-809.62747192382824
20
316.6783828735351
10
-808.12747192382812
20
316.6783828735351
10
-808.12747192382801
20
331.6783828735351
10
-809.62747192382812
20
331.6783828735351
10
-809.62747192382812
20
329.1783828735351
10
-813.62747192382812
20
329.1783828735351
10
-813.62747192382801
20
331.6783828735351
10
-853.62747192382812
20
331.6783828735351
10
-853.62747192382824
20
329.1783828735351
10
-857.62747192382812
20
329.1783828735351
10
-857.62747192382801
20
331.6783828735351
10
-859.12747192382835
20
331.67838287353516
0
CIRCLE
5
462
100
AcDbEntity
8
0
100
AcDbCircle
10
-864.12747191461324
20
324.17838287352913
30
0
40
1.5000000000000002
210
1.1765606933715747e-68
220
4.5719495651290999e-100
230
1
0
CIRCLE
5
463
100
AcDbEntity
8
0
100
AcDbCircle
10
-788.62747192382812
20
326.8783828735281
30
0
40
2.8999999999999999
210
1.1765606933715747e-68
220
4.5719495651290999e-100
230
1
0
CIRCLE
5
464
100
AcDbEntity
8
0
100
AcDbCircle
10
-878.6274719238279
20
326.87838287352912
30
0
40
2.75
210
1.1765606933715747e-68
220
4.5719495651290999e-100
230
1
0
CIRCLE
5
465
100
AcDbEntity
8
0
100
AcDbCircle
10
-773.62747192382812
20
260.27838287353472
30
0
40
2.8999999999999999
210
1.1765606933715747e-68
220
4.5719495651290999e-100
230
1
0
CIRCLE
5
466
100
AcDbEntity
8
0
100
AcDbCircle
10
-893.6274719238279
20
260.27838287353472
30
0
40
2.8999999999999999
210
1.1765606933715747e-68
220
4.5719495651290999e-100
230
1
0
CIRCLE
5
467
100
AcDbEntity
8
0
100
AcDbCircle
10
-833.62747192382915
20
248.05338287353862
30
0
40
11.500000000000002
210
1.1765606933715747e-68
220
4.5719495651290999e-100
230
1
0
CIRCLE
5
468
100
AcDbEntity
8
0
100
AcDbCircle
10
-833.62747192382915
20
248.05338287353862
30
0
40
3.5000000000000004
210
1.1765606933715747e-68
220
4.5719495651290999e-100
230
1
0
LWPOLYLINE
5
469
100
AcDbEntity
8
0
100
AcDbPolyline
90
24
70
1
43
0.0
10
-765.72940063476744
20
32.228381919859189
42
-0.41421356237310253
10
-769.72940063476756
20
28.228381919859288
10
-897.7294006347654
20
28.228381919860496
42
-0.41421356237310575
10
-901.7294006347654
20
32.228381919860418
10
-901.7294006347654
20
68.028381919860422
10
-871.7294006347654
20
68.028381919860422
10
-871.7294006347654
20
73.028381919860408
10
-893.7294006347654
20
73.028381919860422
42
-0.99999999999999989
10
-893.7294006347654
20
89.028381919860408
10
-871.7294006347654
20
89.028381919860209
10
-871.72940063476528
20
94.028381919860422
10
-901.7294006347654
20
94.028381919860422
10
-901.72940063476585
20
195.8457911607058
42
-0.38922729648966881
10
-897.64452451862689
20
201.12838191986083
10
-769.81427675090458
20
201.12838191985929
42
-0.38922729648963161
10
-765.72940063476562
20
195.8457911607058
10
-765.72940063476665
20
94.028381919860379
10
-795.72940063476562
20
94.028381919860379
10
-795.72940063476562
20
89.028381919860195
10
-773.72940063476562
20
89.028381919860365
42
-0.99999999999999989
10
-773.72940063476562
20
73.028381919860394
10
-795.72940063476562
20
73.028381919860394
10
-795.72940063476562
20
68.028381919860394
10
-765.72940063476665
20
68.028381919860394
0
CIRCLE
5
470
100
AcDbEntity
8
0
100
AcDbCircle
10
-887.57989569503241
20
36.378381919860004
30
0
40
1.6500000000000001
210
1.1765606933715747e-68
220
4.5719495651290999e-100
230
1
0
CIRCLE
5
471
100
AcDbEntity
8
0
100
AcDbCircle
10
-887.57989569503206
20
50.078381919860021
30
0
40
1.6500000000000001
210
1.1765606933715747e-68
220
4.5719495651290999e-100
230
1
0
CIRCLE
5
472
100
AcDbEntity
8
0
100
AcDbCircle
10
-779.87890557450055
20
36.378381919859983
30
0
40
1.6500000000000001
210
1.1765606933715747e-68
220
4.5719495651290999e-100
230
1
0
CIRCLE
5
473
100
AcDbEntity
8
0
100
AcDbCircle
10
-779.87890557450055
20
50.078381919859993
30
0
40
1.6500000000000001
210
1.1765606933715747e-68
220
4.5719495651290999e-100
230
1
0
CIRCLE
5
474
100
AcDbEntity
8
0
100
AcDbCircle
10
-808.60440063476756
20
64.128381294020087
30
0
40
1.6500000000000001
210
1.1765606933715747e-68
220
4.5719495651290999e-100
230
1
0
CIRCLE
5
475
100
AcDbEntity
8
0
100
AcDbCircle
10
-858.85440063476483
20
64.128381294020102
30
0
40
1.6500000000000001
210
1.1765606933715747e-68
220
4.5719495651290999e-100
230
1
0
CIRCLE
5
476
100
AcDbEntity
8
0
100
AcDbCircle
10
-803.19799386128761
20
81.328381919858998
30
0
40
1.6500000000000001
210
1.1765606933715747e-68
220
4.5719495651290999e-100
230
1
0
CIRCLE
5
477
100
AcDbEntity
8
0
100
AcDbCircle
10
-864.26080740824534
20
81.328381919858998
30
0
40
1.6500000000000001
210
1.1765606933715747e-68
220
4.5719495651290999e-100
230
1
0
CIRCLE
5
478
100
AcDbEntity
8
0
100
AcDbCircle
10
-849.60440063476653
20
84.678381919864194
30
0
40
1.625
210
1.1765606933715747e-68
220
4.5719495651290999e-100
230
1
0
CIRCLE
5
479
100
AcDbEntity
8
0
100
AcDbCircle
10
-817.85440063476653
20
84.678381919864194
30
0
40
1.625
210
1.1765606933715747e-68
220
4.5719495651290999e-100
230
1
0
CIRCLE
5
480
100
AcDbEntity
8
0
100
AcDbCircle
10
-833.72940063476665
20
68.803381919864307
30
0
40
11.500000000000002
210
1.1765606933715747e-68
220
4.5719495651290999e-100
230
1
0
CIRCLE
5
481
100
AcDbEntity
8
0
100
AcDbCircle
10
-849.60440063476665
20
52.928381919864307
30
0
40
1.625
210
1.1765606933715747e-68
220
4.5719495651290999e-100
230
1
0
CIRCLE
5
482
100
AcDbEntity
8
0
100
AcDbCircle
10
-817.85440063476653
20
52.9283819198643
30
0
40
1.625
210
1.1765606933715747e-68
220
4.5719495651290999e-100
230
1
0
CIRCLE
5
483
100
AcDbEntity
8
0
100
AcDbCircle
10
-803.22940064398051
20
144.92838191985481
30
0
40
1.5000000000000002
210
1.1765606933715747e-68
220
4.5719495651290999e-100
230
1
0
CIRCLE
5
484
100
AcDbEntity
8
0
100
AcDbCircle
10
-895.47940063243914
20
144.92838191985481
30
0
40
1.5000000000000002
210
1.1765606933715747e-68
220
4.5719495651290999e-100
230
1
0
CIRCLE
5
485
100
AcDbEntity
8
0
100
AcDbCircle
10
-863.72940063476562
20
165.55438191986084
30
0
40
2.5
210
1.1765606933715747e-68
220
4.5719495651290999e-100
230
1
0
CIRCLE
5
486
100
AcDbEntity
8
0
100
AcDbCircle
10
-803.72940063476562
20
186.63978536224377
30
0
40
2.5
210
1.1765606933715747e-68
220
4.5719495651290999e-100
230
1
0
CIRCLE
5
487
100
AcDbEntity
8
0
100
AcDbCircle
10
-803.72940063476562
20
165.55438191986082
30
0
40
2.5
210
1.1765606933715747e-68
220
4.5719495651290999e-100
230
1
0
CIRCLE
5
488
100
AcDbEntity
8
0
100
AcDbCircle
10
-863.72940063476562
20
186.63978536224377
30
0
40
2.5
210
1.1765606933715747e-68
220
4.5719495651290999e-100
230
1
0
CIRCLE
5
489
100
AcDbEntity
8
0
100
AcDbCircle
10
-771.97940063709154
20
144.92838191985481
30
0
40
1.5000000000000002
210
1.1765606933715747e-68
220
4.5719495651290999e-100
230
1
0
LWPOLYLINE
5
490
100
AcDbEntity
8
0
100
AcDbPolyline
90
4
70
1
43
0.0
10
-795.72940063476562
20
87.028381919860394
10
-795.72940063476562
20
75.028381919860408
10
-781.72940063476562
20
75.028381919860408
10
-781.72940063476574
20
87.028381919860394
0
LWPOLYLINE
5
491
100
AcDbEntity
8
0
100
AcDbPolyline
90
4
70
1
43
0.0
10
-885.7294006347654
20
87.028381919860408
10
-885.7294006347654
20
75.028381919860422
10
-871.7294006347654
20
75.028381919860422
10
-871.72940063476528
20
87.028381919860408
0
LWPOLYLINE
5
492
100
AcDbEntity
8
0
100
AcDbPolyline
90
28
70
1
43
0.0
10
-859.22940063476574
20
137.42838191986081
10
-857.72940063476585
20
137.42838191986081
10
-857.72940063476551
20
139.82838191986082
10
-853.72940063476562
20
139.82838191986082
10
-853.72940063476562
20
137.42838191986081
10
-846.72940063476562
20
137.42838191986078
42
-0.41421356237309503
10
-843.72940063476562
20
134.42838191986081
10
-843.72940063476562
20
125.4283819198608
42
0.41421356237309709
10
-838.72940063476562
20
120.4283819198608
10
-828.72940063476562
20
120.4283819198608
42
0.41421356237309709
10
-823.72940063476562
20
125.4283819198608
10
-823.72940063476562
20
134.42838191986081
42
-0.41421356237309503
10
-820.72940063476562
20
137.42838191986078
10
-813.72940063476562
20
137.42838191986078
10
-813.72940063476562
20
139.82838191986079
10
-809.72940063476562
20
139.82838191986079
10
-809.72940063476574
20
137.42838191986078
10
-808.22940063476562
20
137.42838191986078
10
-808.22940063476551
20
152.42838191986078
10
-809.72940063476562
20
152.42838191986078
10
-809.72940063476562
20
149.92838191986078
10
-813.72940063476562
20
149.92838191986078
10
-813.72940063476551
20
152.42838191986078
10
-853.72940063476562
20
152.42838191986081
10
-853.72940063476574
20
149.92838191986081
10
-857.72940063476562
20
149.92838191986081
10
-857.72940063476551
20
152.42838191986081
10
-859.22940063476585
20
152.42838191986081
0
CIRCLE
5
493
100
AcDbEntity
8
0
100
AcDbCircle
10
-864.22940062555074
20
144.92838191985481
30
0
40
1.5000000000000002
210
1.1765606933715747e-68
220
4.5719495651290999e-100
230
1
0
CIRCLE
5
494
100
AcDbEntity
8
0
100
AcDbCircle
10
-788.72940063476562
20
147.62838191985378
30
0
40
2.8999999999999999
210
1.1765606933715747e-68
220
4.5719495651290999e-100
230
1
0
CIRCLE
5
495
100
AcDbEntity
8
0
100
AcDbCircle
10
-878.7294006347654
20
147.6283819198548
30
0
40
2.75
210
1.1765606933715747e-68
220
4.5719495651290999e-100
230
1
0
CIRCLE
5
496
100
AcDbEntity
8
0
100
AcDbCircle
10
-773.72940063476562
20
81.028381919860379
30
0
40
2.8999999999999999
210
1.1765606933715747e-68
220
4.5719495651290999e-100
230
1
0
CIRCLE
5
497
100
AcDbEntity
8
0
100
AcDbCircle
10
-893.7294006347654
20
81.028381919860408
30
0
40
2.8999999999999999
210
1.1765606933715747e-68
220
4.5719495651290999e-100
230
1
0
CIRCLE
5
498
100
AcDbEntity
8
0
100
AcDbCircle
10
-833.72940063476665
20
68.803381919864307
30
0
40
11.500000000000002
210
1.1765606933715747e-68
220
4.5719495651290999e-100
230
1
0
CIRCLE
5
499
100
AcDbEntity
8
0
100
AcDbCircle
10
-833.72940063476665
20
68.803381919864307
30
0
40
3.5000000000000004
210
1.1765606933715747e-68
220
4.5719495651290999e-100
230
1
0
LWPOLYLINE
5
500
100
AcDbEntity
8
0
100
AcDbPolyline
90
11
70
1
43
0.0
10
-796.79994598358735
20
522.72841646378902
10
-766.79994598358712
20
492.72841646378902
10
-766.79994598358735
20
416.72841640262112
10
-796.79994598358746
20
386.72841640262106
10
-825.79994597171685
20
386.72841641359292
10
-896.96218872070312
20
386.72841644426069
10
-901.96218872070312
20
386.72841644287308
10
-901.96218872070312
20
522.72841644313576
10
-896.96218872070312
20
522.72841644469645
10
-886.96218872070312
20
522.72841644469645
10
-825.79994601417093
20
522.72841646378902
0
LWPOLYLINE
5
501
100
AcDbEntity
8
0
100
AcDbPolyline
90
4
70
1
43
0.0
10
-886.96218872070312
20
486.72841643375114
10
-896.96218872070312
20
486.72841643375114
10
-896.96218872070312
20
422.7284164681617
10
-886.96218872070312
20
422.72841646816175
0
CIRCLE
5
502
100
AcDbEntity
8
0
100
AcDbCircle
10
-891.96218872070312
20
507.72841644602403
30
0
40
1.6500000000000001
210
1.1765606933715747e-68
220
-2.612489606172954e-84
230
1
0
CIRCLE
5
503
100
AcDbEntity
8
0
100
AcDbCircle
10
-891.96218872070312
20
401.7284164399851
30
0
40
1.6500000000000001
210
1.1765606933715747e-68
220
-2.612489606172954e-84
230
1
0
CIRCLE
5
504
100
AcDbEntity
8
0
100
AcDbCircle
10
-830.7999459879494
20
411.12841643864715
30
0
40
1.6500000000000001
210
1.1765606933715747e-68
220
-2.612489606172954e-84
230
1
0
CIRCLE
5
505
100
AcDbEntity
8
0
100
AcDbCircle
10
-830.7999459879494
20
498.32841645485388
30
0
40
1.6500000000000001
210
1.1765606933715747e-68
220
-2.612489606172954e-84
230
1
0
LWPOLYLINE
5
506
100
AcDbEntity
8
0
100
AcDbPolyline
90
8
70
1
43
0.0
10
-798.29994598386679
20
483.47841644644836
10
-825.79994601363319
20
483.47841644675049
10
-825.79994600901205
20
486.72841644287109
10
-835.799945992944
20
486.72841644287109
10
-835.799945992944
20
422.72841645062988
10
-825.79994599873316
20
422.72841645062988
10
-825.7999460135818
20
425.97841644675049
10
-798.29994598396934
20
425.97841644644836
0
CIRCLE
5
507
100
AcDbEntity
8
0
100
AcDbCircle
10
-790.92162201851716
20
424.12841646674622
30
0
40
1.6499999999999901
210
1.1765606933715747e-68
220
-2.612489606172954e-84
230
1
0
CIRCLE
5
508
100
AcDbEntity
8
0
100
AcDbCircle
10
-790.92162203762109
20
485.32841646675791
30
0
40
1.6500000000000001
210
1.1765606933715747e-68
220
-2.612489606172954e-84
230
1
0
CIRCLE
5
509
100
AcDbEntity
8
0
100
AcDbCircle
10
-779.79994594113418
20
454.72841643342463
30
0
40
11.199999999999999
210
1.1765606933715747e-68
220
-2.612489606172954e-84
230
1
0
CIRCLE
5
510
100
AcDbEntity
8
0
100
AcDbCircle
10
-779.79994594113418
20
454.72841643342463
30
0
40
11.199999999999999
210
1.1765606933715747e-68
220
-2.612489606172954e-84
230
1
0
CIRCLE
5
511
100
AcDbEntity
8
0
100
AcDbCircle
10
-782.29994594113418
20
462.32775851020989
30
0
40
1.8999999999999999
210
1.1765606933715747e-68
220
-2.6124896061729544e-84
230
1
0
CIRCLE
5
512
100
AcDbEntity
8
0
100
AcDbCircle
10
-772.2006038643483
20
457.22841643342463
30
0
40
1.8999999999999999
210
1.1765606933715747e-68
220
-2.6124896061729544e-84
230
1
0
CIRCLE
5
513
100
AcDbEntity
8
0
100
AcDbCircle
10
-777.29994594113418
20
447.12907435663919
30
0
40
1.8999999999999999
210
1.1765606933715747e-68
220
-2.6124896061729544e-84
230
1
0
CIRCLE
5
514
100
AcDbEntity
8
0
100
AcDbCircle
10
-787.39928801791916
20
452.22841643342463
30
0
40
1.8999999999999999
210
1.1765606933715747e-68
220
-2.6124896061729544e-84
230
1
0
CIRCLE
5
515
100
AcDbEntity
8
0
100
AcDbCircle
10
-779.79994594113418
20
454.72841643342463
30
0
40
5.2000000000000002
210
1.1765606933715747e-68
220
-2.6124896061729535e-84
230
1
0
LWPOLYLINE
5
516
100
AcDbEntity
8
0
100
AcDbPolyline
90
16
70
1
43
0.0
10
-908.31216431943471
20
28.228386444455289
10
-996.61216432179117
20
28.228386444454294
10
-996.61216432179117
20
58.228386444454294
10
-1001.6121643217912
20
58.228386444454294
10
-1001.6121643217917
20
36.228386444454301
42
-0.99999999999999989
10
-1017.6121643217916
20
36.228386444454301
10
-1017.6121643217916
20
58.228386444454294
10
-1022.6121643217916
20
58.228386444454294
10
-1022.6121643217916
20
28.228386444454294
10
-1044.3121643241486
20
28.228386444455289
10
-1044.3121643241486
20
262.26972198486339
10
-1008.3121643045864
20
262.26972198486334
10
-1008.3121643045864
20
272.26972198486328
10
-944.31216433899647
20
272.26972198486328
10
-944.31216433899647
20
262.26972198486328
10
-908.31216431943403
20
262.26972198486334
0
CIRCLE
5
517
100
AcDbEntity
8
0
100
AcDbCircle
10
-945.71216432178562
20
158.92156502544429
30
0
40
1.6500000000000097
210
1.1765606933715747e-68
220
1.463023860841312e-98
230
1
0
CIRCLE
5
518
100
AcDbEntity
8
0
100
AcDbCircle
10
-945.71216432178539
20
198.92156502544469
30
0
40
1.6500000000000097
210
1.1765606933715747e-68
220
1.463023860841312e-98
230
1
0
CIRCLE
5
519
100
AcDbEntity
8
0
100
AcDbCircle
10
-945.71216432178539
20
178.92156502544466
30
0
40
1.6500000000000097
210
1.1765606933715747e-68
220
1.463023860841312e-98
230
1
0
CIRCLE
5
520
100
AcDbEntity
8
0
100
AcDbCircle
10
-945.71216432178619
20
75.923097987250287
30
0
40
1.6500000000000001
210
1.1765606933715747e-68
220
1.463023860841312e-98
230
1
0
CIRCLE
5
521
100
AcDbEntity
8
0
100
AcDbCircle
10
-945.71216432178608
20
95.923097987250287
30
0
40
1.6500000000000001
210
1.1765606933715747e-68
220
1.463023860841312e-98
230
1
0
CIRCLE
5
522
100
AcDbEntity
8
0
100
AcDbCircle
10
-1006.9121643217973
20
158.92156502544529
30
0
40
1.6500000000000097
210
1.1765606933715747e-68
220
-0
230
1
0
CIRCLE
5
523
100
AcDbEntity
8
0
100
AcDbCircle
10
-1006.9121643217973
20
198.92156502544486
30
0
40
1.6500000000000097
210
1.1765606933715747e-68
220
-0
230
1
0
CIRCLE
5
524
100
AcDbEntity
8
0
100
AcDbCircle
10
-1006.9121643217973
20
178.92156502544486
30
0
40
1.6500000000000097
210
1.1765606933715747e-68
220
-0
230
1
0
CIRCLE
5
525
100
AcDbEntity
8
0
100
AcDbCircle
10
-1006.9121643217973
20
75.923097987251282
30
0
40
1.6500000000000001
210
1.1765606933715747e-68
220
-0
230
1
0
CIRCLE
5
526
100
AcDbEntity
8
0
100
AcDbCircle
10
-1006.9121643217973
20
95.923097987251282
30
0
40
1.6500000000000001
210
1.1765606933715747e-68
220
-0
230
1
0
LWPOLYLINE
5
527
100
AcDbEntity
8
0
100
AcDbPolyline
90
10
70
1
43
0.0
10
-982.41216432179772
20
124.42575205206228
42
-0.41421356237307527
10
-987.41216432179738
20
119.42575205206228
10
-1001.8121643217976
20
119.42575205206128
10
-1001.9121643217916
20
108.62749170260429
10
-1011.9121643217977
20
108.62749170260429
10
-1011.9121643217977
20
148.62749170260429
10
-1001.8121643217972
20
148.62749170260429
10
-1001.8121643217976
20
137.82923564582629
10
-987.41216432179749
20
137.82923564582634
42
-0.41421356237309814
10
-982.41216432179749
20
132.82923564582629
0
LWPOLYLINE
5
528
100
AcDbEntity
8
0
100
AcDbPolyline
90
10
70
1
43
0.0
10
-965.21216432178562
20
119.42575205206232
42
-0.41421356237308776
10
-970.21216432178551
20
124.42575205206234
10
-970.21216432178551
20
132.82923564582629
42
-0.41421356237310025
10
-965.21216432178539
20
137.82923564582629
10
-950.81216432178564
20
137.82923564582529
10
-950.81216432178564
20
148.62749170260429
10
-940.71216432178528
20
148.62749170260429
10
-940.71216432178539
20
108.62749170260429
10
-950.71216432179176
20
108.62749170260429
10
-950.81216432178553
20
119.42575205206128
0
LWPOLYLINE
5
529
100
AcDbEntity
8
0
100
AcDbPolyline
90
4
70
1
43
0.0
10
-996.31216432179144
20
95.128386444463302
10
-956.31216432179144
20
95.128386444463302
10
-956.31216432179144
20
105.1283864444633
10
-996.31216432179144
20
105.1283864444633
0
LWPOLYLINE
5
530
100
AcDbEntity
8
0
100
AcDbPolyline
90
4
70
1
43
0.0
10
-956.31216432179144
20
162.1283864444483
10
-996.31216432179144
20
162.1283864444483
10
-996.31216432179144
20
152.1283864444483
10
-956.31216432179144
20
152.1283864444483
0
LWPOLYLINE
5
531
100
AcDbEntity
8
0
100
AcDbPolyline
90
8
70
1
43
0.0
10
-1001.6121643217913
20
212.26972198486527
10
-996.61216432179128
20
212.26972198486527
10
-996.61216432179174
20
242.26972198486538
42
0.99999999999999989
10
-1022.6121643217916
20
242.26972198486538
10
-1022.6121643217916
20
212.26972198486527
10
-1017.6121643217916
20
212.26972198486527
10
-1017.6121643217921
20
234.26972198486538
42
-0.99999999999999989
10
-1001.6121643217913
20
234.26972198486516
0
CIRCLE
5
532
100
AcDbEntity
8
0
100
AcDbCircle
10
-943.01216432179115
20
234.2697219848651
30
0
40
2.8999999999999999
210
1.1765606933715747e-68
220
-0
230
1
0
CIRCLE
5
533
100
AcDbEntity
8
0
100
AcDbCircle
10
-1009.6121643217917
20
234.26972198486527
30
0
40
2.8999999999999999
210
1.1765606933715747e-68
220
-0
230
1
0
LWPOLYLINE
5
534
100
AcDbEntity
8
0
100
AcDbPolyline
90
4
70
1
43
0.0
10
-1003.6121643217917
20
212.26972198486527
10
-1003.6121643217917
20
226.26972198486527
10
-1015.6121643217916
20
226.26972198486527
10
-1015.6121643217919
20
212.26972198486527
0
CIRCLE
5
535
100
AcDbEntity
8
0
100
AcDbCircle
10
-943.01216432179115
20
36.228386444455296
30
0
40
2.8999999999999999
210
1.1765606933715747e-68
220
-0
230
1
0
LWPOLYLINE
5
536
100
AcDbEntity
8
0
100
AcDbPolyline
90
4
70
1
43
0.0
10
-1003.6121643217916
20
44.228386444454273
10
-1003.6121643217916
20
58.228386444454294
10
-1015.6121643217916
20
58.228386444454294
10
-1015.6121643217919
20
44.228386444454273
0
CIRCLE
5
537
100
AcDbEntity
8
0
100
AcDbCircle
10
-1009.6121643217917
20
36.228386444454301
30
0
40
2.8999999999999999
210
1.1765606933715747e-68
220
-0
230
1
0
ENDSEC
0
SECTION
2
OBJECTS
0
DICTIONARY
5
C
100
AcDbDictionary
3
ACAD_GROUP
350
D
3
ACAD_MLINESTYLE
350
17
0
DICTIONARY
5
D
100
AcDbDictionary
0
DICTIONARY
5
1A
330
C
100
AcDbDictionary
0
DICTIONARY
5
17
100
AcDbDictionary
0
ENDSEC
0
EOF
