G04 EAGLE Gerber RS-274X export*
G75*
%MOMM*%
%FSLAX34Y34*%
%LPD*%
%IN*%
%IPPOS*%
%AMOC8*
5,1,8,0,0,1.08239X$1,22.5*%
G01*
G04 Define Apertures*
%ADD10C,0.254000*%
D10*
X4674Y197789D02*
X4902Y37569D01*
X5016Y34955D01*
X5358Y32360D01*
X5924Y29805D01*
X6711Y27309D01*
X7713Y24891D01*
X8921Y22569D01*
X10328Y20362D01*
X11921Y18286D01*
X13689Y16356D01*
X15619Y14588D01*
X17695Y12995D01*
X19902Y11588D01*
X22224Y10380D01*
X24642Y9378D01*
X27138Y8591D01*
X29693Y8025D01*
X32288Y7683D01*
X34902Y7569D01*
X441046Y7569D01*
X443661Y7683D01*
X446256Y8025D01*
X448811Y8591D01*
X451307Y9378D01*
X453725Y10380D01*
X456046Y11588D01*
X458253Y12995D01*
X460330Y14588D01*
X462259Y16356D01*
X464028Y18286D01*
X465621Y20362D01*
X467027Y22569D01*
X468235Y24891D01*
X469237Y27309D01*
X470024Y29805D01*
X470590Y32360D01*
X470932Y34955D01*
X471046Y37569D01*
X470818Y197789D01*
X470703Y200404D01*
X470362Y202999D01*
X469795Y205554D01*
X469008Y208050D01*
X468007Y210468D01*
X466798Y212789D01*
X465392Y214996D01*
X463799Y217073D01*
X462031Y219002D01*
X460101Y220771D01*
X458025Y222364D01*
X455818Y223770D01*
X453496Y224978D01*
X451078Y225980D01*
X448582Y226767D01*
X446027Y227333D01*
X443432Y227675D01*
X440818Y227789D01*
X34674Y227789D01*
X32059Y227675D01*
X29464Y227333D01*
X26909Y226767D01*
X24413Y225980D01*
X21995Y224978D01*
X19674Y223770D01*
X17466Y222364D01*
X15390Y220771D01*
X13460Y219002D01*
X11692Y217073D01*
X10099Y214996D01*
X8693Y212789D01*
X7484Y210468D01*
X6483Y208050D01*
X5696Y205554D01*
X5129Y202999D01*
X4788Y200404D01*
X4674Y197789D01*
M02*
