G04 EAGLE Gerber RS-274X export*
G75*
%MOMM*%
%FSLAX34Y34*%
%LPD*%
%INSolderpaste Top*%
%IPPOS*%
%AMOC8*
5,1,8,0,0,1.08239X$1,22.5*%
G01*
G04 Define Apertures*
%ADD10R,0.227331X1.500000*%
%ADD11R,2.540000X1.270000*%
%ADD12R,2.500000X0.350000*%
%ADD13R,2.500000X2.000000*%
%ADD14R,1.900000X2.150000*%
%ADD15R,1.300000X1.200000*%
%ADD16R,1.350000X0.228600*%
%ADD17R,1.350000X0.243841*%
%ADD18R,1.270000X1.905000*%
%ADD19R,1.905000X1.270000*%
%ADD20R,1.000000X1.200000*%
D10*
X293812Y183200D03*
X287312Y183200D03*
X280812Y183200D03*
X274312Y183200D03*
X267812Y183200D03*
X261312Y183200D03*
X254812Y183200D03*
X248312Y183200D03*
X241812Y183200D03*
X235312Y183200D03*
X228812Y183200D03*
X222312Y183200D03*
X215812Y183200D03*
X209312Y183200D03*
X209312Y110700D03*
X215812Y110700D03*
X222312Y110700D03*
X228812Y110700D03*
X235312Y110700D03*
X241812Y110700D03*
X248312Y110700D03*
X254812Y110700D03*
X261312Y110700D03*
X267812Y110700D03*
X274312Y110700D03*
X280812Y110700D03*
X287312Y110700D03*
X293812Y110700D03*
D11*
X416571Y55668D03*
X416571Y81068D03*
X416571Y106468D03*
X416571Y131868D03*
X416571Y157268D03*
X416571Y182668D03*
D12*
X89544Y122575D03*
X89544Y130575D03*
X89544Y106575D03*
X89544Y114575D03*
D13*
X34544Y77575D03*
X34544Y167575D03*
X89544Y77575D03*
X89544Y167575D03*
D12*
X89544Y138575D03*
D14*
X20270Y144325D03*
X20270Y100825D03*
D15*
X50770Y147575D03*
X50770Y97575D03*
D16*
X47270Y122575D03*
X47270Y129075D03*
D17*
X47270Y135575D03*
D16*
X47270Y116075D03*
D17*
X47270Y109575D03*
D18*
X181204Y84277D03*
X214224Y84277D03*
D19*
X166218Y107899D03*
X166218Y140919D03*
D18*
X233836Y208104D03*
X266856Y208104D03*
D19*
X116688Y107645D03*
X116688Y140665D03*
X142850Y107642D03*
X142850Y140662D03*
D18*
X313792Y89611D03*
X280772Y89611D03*
X313792Y66497D03*
X280772Y66497D03*
D19*
X344780Y100533D03*
X344780Y133553D03*
X371729Y100228D03*
X371729Y133248D03*
D20*
X235306Y59100D03*
X260306Y59100D03*
X210306Y59100D03*
M02*
