0
SECTION
2
HEADER
9
$INSUNITS
70
4
9
$ACADVER
1
AC1014
9
$HANDSEED
5
FFFF
0
ENDSEC
0
SECTION
2
TABLES
0
TABLE
2
VPORT
5
8
100
AcDbSymbolTable
0
ENDTAB
0
TABLE
2
LTYPE
5
5
100
AcDbSymbolTable
0
LTYPE
5
14
100
AcDbSymbolTableRecord
100
AcDbLinetypeTableRecord
2
BYBLOCK
70
0
0
LTYPE
5
15
100
AcDbSymbolTableRecord
100
AcDbLinetypeTableRecord
2
BYLAYER
70
0
0
ENDTAB
0
TABLE
2
LAYER
5
2
100
AcDbSymbolTable
70
2
0
LAYER
5
50
100
AcDbSymbolTableRecord
100
AcDbLayerTableRecord
2
0
70
0
6
CONTINUOUS
0
ENDTAB
0
TABLE
2
STYLE
5
3
100
AcDbSymbolTable
70
1
0
STYLE
5
11
100
AcDbSymbolTableRecord
100
AcDbTextStyleTableRecord
2
STANDARD
70
0
0
ENDTAB
0
TABLE
2
VIEW
5
6
100
AcDbSymbolTable
70
0
0
ENDTAB
0
TABLE
2
UCS
5
7
100
AcDbSymbolTable
70
0
0
ENDTAB
0
TABLE
2
APPID
5
9
100
AcDbSymbolTable
70
2
0
APPID
5
12
100
AcDbSymbolTableRecord
100
AcDbRegAppTableRecord
2
ACAD
70
0
0
ENDTAB
0
TABLE
2
DIMSTYLE
5
A
100
AcDbSymbolTable
70
1
0
ENDTAB
0
TABLE
2
BLOCK_RECORD
5
1
100
AcDbSymbolTable
70
1
0
BLOCK_RECORD
5
1F
100
AcDbSymbolTableRecord
100
AcDbBlockTableRecord
2
*MODEL_SPACE
0
BLOCK_RECORD
5
1B
100
AcDbSymbolTableRecord
100
AcDbBlockTableRecord
2
*PAPER_SPACE
0
ENDTAB
0
ENDSEC
0
SECTION
2
BLOCKS
0
BLOCK
5
20
100
AcDbEntity
100
AcDbBlockBegin
2
*MODEL_SPACE
0
ENDBLK
5
21
100
AcDbEntity
100
AcDbBlockEnd
0
BLOCK
5
1C
100
AcDbEntity
100
AcDbBlockBegin
2
*PAPER_SPACE
0
ENDBLK
5
1D
100
AcDbEntity
100
AcDbBlockEnd
0
ENDSEC
0
SECTION
2
ENTITIES
0
LINE
5
100
100
AcDbEntity
8
0
100
AcDbLine
10
-524.45074797317307
20
288.6738196493389
30
0
11
-391.04197306759835
21
391.04197306759539
31
0
0
LINE
5
101
100
AcDbEntity
8
0
100
AcDbLine
10
-524.45074797317352
20
288.67381964933884
30
0
11
-574.96589571525749
21
166.71946486511848
31
0
0
LINE
5
102
100
AcDbEntity
8
0
100
AcDbLine
10
-574.96589571525749
20
166.71946486511848
30
0
11
-553.01686176933015
21
2.8066438062523957e-12
31
0
0
LINE
5
103
100
AcDbEntity
8
0
100
AcDbLine
10
-574.9658957152576
20
-166.71946486511771
30
0
11
-553.01686176933003
21
-1.9539925233402755e-12
31
0
0
LINE
5
104
100
AcDbEntity
8
0
100
AcDbLine
10
-574.96589571525783
20
-166.71946486511803
30
0
11
-524.45074797317352
21
-288.67381964933821
31
0
0
LINE
5
105
100
AcDbEntity
8
0
100
AcDbLine
10
-524.45074797317352
20
-288.67381964933821
30
0
11
-391.04197306759886
21
-391.04197306759488
31
0
0
LINE
5
106
100
AcDbEntity
8
0
100
AcDbLine
10
-288.67381964933878
20
-524.45074797317307
30
0
11
-391.04197306759534
21
-391.04197306759841
31
0
0
LINE
5
107
100
AcDbEntity
8
0
100
AcDbLine
10
-288.67381964933872
20
-524.45074797317352
30
0
11
-166.71946486511837
21
-574.96589571525749
31
0
0
LINE
5
108
100
AcDbEntity
8
0
100
AcDbLine
10
-166.71946486511837
20
-574.96589571525749
30
0
11
-2.7000623958883807e-12
21
-553.01686176933015
31
0
0
LINE
5
109
100
AcDbEntity
8
0
100
AcDbLine
10
166.71946486511789
20
-574.96589571525772
30
0
11
2.0961010704922955e-12
21
-553.01686176933003
31
0
0
LINE
5
110
100
AcDbEntity
8
0
100
AcDbLine
10
166.71946486511817
20
-574.96589571525783
30
0
11
288.67381964933833
21
-524.45074797317352
31
0
0
LINE
5
111
100
AcDbEntity
8
0
100
AcDbLine
10
288.67381964933833
20
-524.45074797317352
30
0
11
391.04197306759499
21
-391.0419730675988
31
0
0
LINE
5
112
100
AcDbEntity
8
0
100
AcDbLine
10
524.45074797317307
20
-288.67381964933884
30
0
11
391.04197306759841
21
-391.04197306759534
31
0
0
LINE
5
113
100
AcDbEntity
8
0
100
AcDbLine
10
524.45074797317352
20
-288.67381964933878
30
0
11
574.96589571525749
21
-166.71946486511843
31
0
0
LINE
5
114
100
AcDbEntity
8
0
100
AcDbLine
10
574.96589571525749
20
-166.71946486511843
30
0
11
553.01686176933015
21
-2.7355895326763857e-12
31
0
0
LINE
5
115
100
AcDbEntity
8
0
100
AcDbLine
10
574.96589571525772
20
166.71946486511783
30
0
11
553.01686176933003
21
2.0961010704922955e-12
31
0
0
LINE
5
116
100
AcDbEntity
8
0
100
AcDbLine
10
574.96589571525783
20
166.71946486511814
30
0
11
524.45074797317352
21
288.67381964933827
31
0
0
LINE
5
117
100
AcDbEntity
8
0
100
AcDbLine
10
524.45074797317352
20
288.67381964933827
30
0
11
391.0419730675988
21
391.04197306759494
31
0
0
LINE
5
118
100
AcDbEntity
8
0
100
AcDbLine
10
288.6738196493389
20
524.45074797317307
30
0
11
391.04197306759539
21
391.04197306759835
31
0
0
LINE
5
119
100
AcDbEntity
8
0
100
AcDbLine
10
288.67381964933878
20
524.45074797317352
30
0
11
166.71946486511845
21
574.96589571525749
31
0
0
LINE
5
120
100
AcDbEntity
8
0
100
AcDbLine
10
166.71946486511845
20
574.96589571525749
30
0
11
2.7711166694643907e-12
21
553.01686176933015
31
0
0
LINE
5
121
100
AcDbEntity
8
0
100
AcDbLine
10
-166.7194648651178
20
574.9658957152576
30
0
11
-2.0250467969162855e-12
21
553.01686176933003
31
0
0
LINE
5
122
100
AcDbEntity
8
0
100
AcDbLine
10
-166.71946486511811
20
574.96589571525783
30
0
11
-288.67381964933827
21
524.45074797317363
31
0
0
LINE
5
123
100
AcDbEntity
8
0
100
AcDbLine
10
-288.67381964933827
20
524.45074797317363
30
0
11
-391.04197306759494
21
391.04197306759886
31
0
0
ELLIPSE
5
124
100
AcDbEntity
8
0
100
AcDbEllipse
10
-317.4946615920191
20
-766.49991799648762
30
0
11
260.22473400828585
21
628.23808210766913
31
0.0
40
0.64999999999999614
41
-1.0089754437417189
42
1.0089754437417668
0
LINE
5
125
100
AcDbEntity
8
0
100
AcDbLine
10
2.369663465278155e-12
20
-170
30
0
11
2.0961010704922955e-12
21
-553.01686176933003
31
0
0
LINE
5
126
100
AcDbEntity
8
0
100
AcDbLine
10
-391.04197306759886
20
-391.04197306759488
30
0
11
-120.20815280171141
21
-120.20815280171476
31
0
0
ELLIPSE
5
127
100
AcDbEntity
8
0
100
AcDbEllipse
10
317.49466159200415
20
-766.49991799649388
30
0
11
-260.22473400823924
21
628.23808210768857
31
0.0
40
0.64999999999999591
41
-1.0089754437417187
42
1.0089754437417664
0
LINE
5
128
100
AcDbEntity
8
0
100
AcDbLine
10
-2.7954915035527176e-12
20
-553.01686176933015
30
0
11
2.3742639798651766e-12
21
-170
31
0
0
LINE
5
129
100
AcDbEntity
8
0
100
AcDbLine
10
120.20815280171477
20
-120.20815280171141
30
0
11
391.04197306759835
21
-391.04197306759545
31
0
0
ELLIPSE
5
130
100
AcDbEntity
8
0
100
AcDbEllipse
10
766.49991799648762
20
-317.49466159201916
30
0
11
-628.23808210766902
21
260.22473400828602
31
0.0
40
0.64999999999999625
41
-1.0089754437417182
42
1.0089754437417664
0
LINE
5
131
100
AcDbEntity
8
0
100
AcDbLine
10
391.04197306759488
20
-391.04197306759886
30
0
11
120.20815280171476
21
-120.20815280171141
31
0
0
LINE
5
132
100
AcDbEntity
8
0
100
AcDbLine
10
170
20
2.3592539674854029e-12
30
0
11
553.01686176933003
21
2.0622385540102793e-12
31
0
0
ELLIPSE
5
133
100
AcDbEntity
8
0
100
AcDbEllipse
10
766.49991799649365
20
317.49466159200409
30
0
11
-628.23808210768857
21
-260.22473400823924
31
0.0
40
0.64999999999999591
41
-1.0089754437417189
42
1.0089754437417668
0
LINE
5
134
100
AcDbEntity
8
0
100
AcDbLine
10
553.01686176932992
20
-2.8261901061998303e-12
30
0
11
170
21
2.3553901884465489e-12
31
0
0
LINE
5
135
100
AcDbEntity
8
0
100
AcDbLine
10
120.20815280171141
20
120.20815280171476
30
0
11
391.04197306759545
21
391.04197306759829
31
0
0
ELLIPSE
5
136
100
AcDbEntity
8
0
100
AcDbEllipse
10
317.49466159201916
20
766.49991799648762
30
0
11
-260.22473400828585
21
-628.23808210766867
31
0.0
40
0.64999999999999647
41
-1.0089754437417184
42
1.008975443741766
0
LINE
5
137
100
AcDbEntity
8
0
100
AcDbLine
10
391.04197306759892
20
391.04197306759488
30
0
11
120.20815280171142
21
120.20815280171475
31
0
0
LINE
5
138
100
AcDbEntity
8
0
100
AcDbLine
10
-2.3488444696926501e-12
20
170
30
0
11
-2.0283760375282631e-12
21
553.01686176933003
31
0
0
ELLIPSE
5
139
100
AcDbEntity
8
0
100
AcDbEllipse
10
-317.49466159200404
20
766.49991799649365
30
0
11
260.22473400823918
21
-628.23808210768846
31
0.0
40
0.64999999999999614
41
-1.0089754437417189
42
1.0089754437417664
0
LINE
5
140
100
AcDbEntity
8
0
100
AcDbLine
10
2.8875873114940562e-12
20
553.01686176933015
30
0
11
-2.3365163970279212e-12
21
170.00000000000003
31
0
0
LINE
5
141
100
AcDbEntity
8
0
100
AcDbLine
10
-120.20815280171476
20
120.20815280171142
30
0
11
-391.04197306759829
21
391.04197306759545
31
0
0
ELLIPSE
5
142
100
AcDbEntity
8
0
100
AcDbEllipse
10
-766.49991799648751
20
317.49466159201921
30
0
11
628.23808210766902
21
-260.22473400828608
31
0.0
40
0.64999999999999625
41
-1.0089754437417184
42
1.0089754437417664
0
LINE
5
143
100
AcDbEntity
8
0
100
AcDbLine
10
-391.04197306759488
20
391.04197306759892
30
0
11
-120.20815280171475
21
120.20815280171142
31
0
0
LINE
5
144
100
AcDbEntity
8
0
100
AcDbLine
10
-170
20
-2.3384349718998973e-12
30
0
11
-553.01686176933003
21
-1.9945135210462469e-12
31
0
0
ELLIPSE
5
145
100
AcDbEntity
8
0
100
AcDbEllipse
10
-766.49991799649331
20
-317.49466159200392
30
0
11
628.2380821076888
21
260.22473400823924
31
0.0
40
0.6499999999999958
41
-1.0089754437417193
42
1.0089754437417677
0
LINE
5
146
100
AcDbEntity
8
0
100
AcDbLine
10
-553.01686176933015
20
2.9182859141411689e-12
30
0
11
-170
21
-2.3365163970279212e-12
31
0
0
LINE
5
147
100
AcDbEntity
8
0
100
AcDbLine
10
-120.20815280171142
20
-120.20815280171475
30
0
11
-391.04197306759545
21
-391.04197306759824
31
0
0
ENDSEC
0
SECTION
2
OBJECTS
0
DICTIONARY
5
C
100
AcDbDictionary
3
ACAD_GROUP
350
D
3
ACAD_MLINESTYLE
350
17
0
DICTIONARY
5
D
100
AcDbDictionary
0
DICTIONARY
5
1A
330
C
100
AcDbDictionary
0
DICTIONARY
5
17
100
AcDbDictionary
0
ENDSEC
0
EOF
