0
SECTION
2
HEADER
9
$INSUNITS
70
4
9
$ACADVER
1
AC1014
9
$HANDSEED
5
FFFF
0
ENDSEC
0
SECTION
2
TABLES
0
TABLE
2
VPORT
5
8
100
AcDbSymbolTable
0
ENDTAB
0
TABLE
2
LTYPE
5
5
100
AcDbSymbolTable
0
LTYPE
5
14
100
AcDbSymbolTableRecord
100
AcDbLinetypeTableRecord
2
BYBLOCK
70
0
0
LTYPE
5
15
100
AcDbSymbolTableRecord
100
AcDbLinetypeTableRecord
2
BYLAYER
70
0
0
ENDTAB
0
TABLE
2
LAYER
5
2
100
AcDbSymbolTable
70
2
0
LAYER
5
50
100
AcDbSymbolTableRecord
100
AcDbLayerTableRecord
2
0
70
0
6
CONTINUOUS
0
ENDTAB
0
TABLE
2
STYLE
5
3
100
AcDbSymbolTable
70
1
0
STYLE
5
11
100
AcDbSymbolTableRecord
100
AcDbTextStyleTableRecord
2
STANDARD
70
0
0
ENDTAB
0
TABLE
2
VIEW
5
6
100
AcDbSymbolTable
70
0
0
ENDTAB
0
TABLE
2
UCS
5
7
100
AcDbSymbolTable
70
0
0
ENDTAB
0
TABLE
2
APPID
5
9
100
AcDbSymbolTable
70
2
0
APPID
5
12
100
AcDbSymbolTableRecord
100
AcDbRegAppTableRecord
2
ACAD
70
0
0
ENDTAB
0
TABLE
2
DIMSTYLE
5
A
100
AcDbSymbolTable
70
1
0
ENDTAB
0
TABLE
2
BLOCK_RECORD
5
1
100
AcDbSymbolTable
70
1
0
BLOCK_RECORD
5
1F
100
AcDbSymbolTableRecord
100
AcDbBlockTableRecord
2
*MODEL_SPACE
0
BLOCK_RECORD
5
1B
100
AcDbSymbolTableRecord
100
AcDbBlockTableRecord
2
*PAPER_SPACE
0
ENDTAB
0
ENDSEC
0
SECTION
2
BLOCKS
0
BLOCK
5
20
100
AcDbEntity
100
AcDbBlockBegin
2
*MODEL_SPACE
0
ENDBLK
5
21
100
AcDbEntity
100
AcDbBlockEnd
0
BLOCK
5
1C
100
AcDbEntity
100
AcDbBlockBegin
2
*PAPER_SPACE
0
ENDBLK
5
1D
100
AcDbEntity
100
AcDbBlockEnd
0
ENDSEC
0
SECTION
2
ENTITIES
0
LINE
5
100
100
AcDbEntity
8
0
100
AcDbLine
10
-269.93788498619222
20
148.58211305480654
30
0
11
-201.2716037847926
21
201.27160378479272
31
0
0
LINE
5
101
100
AcDbEntity
8
0
100
AcDbLine
10
-269.93788498619233
20
148.5821130548066
30
0
11
-295.93832867697074
21
85.811489268811272
31
0
0
LINE
5
102
100
AcDbEntity
8
0
100
AcDbLine
10
-295.93832867697074
20
85.811489268811272
30
0
11
-284.64103179303777
21
3.0198066269804258e-13
31
0
0
LINE
5
103
100
AcDbEntity
8
0
100
AcDbLine
10
-295.9383286769708
20
-85.811489268810931
30
0
11
-284.64103179303777
21
1.0658141036401503e-13
31
0
0
LINE
5
104
100
AcDbEntity
8
0
100
AcDbLine
10
-295.93832867697085
20
-85.811489268810902
30
0
11
-269.93788498619244
21
-148.5821130548062
31
0
0
LINE
5
105
100
AcDbEntity
8
0
100
AcDbLine
10
-269.93788498619244
20
-148.5821130548062
30
0
11
-201.27160378479289
21
-201.27160378479238
31
0
0
LINE
5
106
100
AcDbEntity
8
0
100
AcDbLine
10
-148.58211305480648
20
-269.93788498619233
30
0
11
-201.27160378479266
21
-201.27160378479263
31
0
0
LINE
5
107
100
AcDbEntity
8
0
100
AcDbLine
10
-148.58211305480651
20
-269.93788498619233
30
0
11
-85.811489268811243
21
-295.93832867697074
31
0
0
LINE
5
108
100
AcDbEntity
8
0
100
AcDbLine
10
-85.811489268811243
20
-295.93832867697074
30
0
11
-2.4868995751603507e-13
21
-284.64103179303771
31
0
0
LINE
5
109
100
AcDbEntity
8
0
100
AcDbLine
10
85.811489268811016
20
-295.93832867697085
30
0
11
-3.5527136788005009e-14
21
-284.64103179303777
31
0
0
LINE
5
110
100
AcDbEntity
8
0
100
AcDbLine
10
85.811489268810988
20
-295.93832867697085
30
0
11
148.58211305480631
21
-269.93788498619244
31
0
0
LINE
5
111
100
AcDbEntity
8
0
100
AcDbLine
10
148.58211305480631
20
-269.93788498619244
30
0
11
201.27160378479246
21
-201.27160378479289
31
0
0
LINE
5
112
100
AcDbEntity
8
0
100
AcDbLine
10
269.93788498619227
20
-148.58211305480648
30
0
11
201.27160378479263
21
-201.27160378479266
31
0
0
LINE
5
113
100
AcDbEntity
8
0
100
AcDbLine
10
269.93788498619233
20
-148.58211305480654
30
0
11
295.93832867697074
21
-85.811489268811258
31
0
0
LINE
5
114
100
AcDbEntity
8
0
100
AcDbLine
10
295.93832867697074
20
-85.811489268811258
30
0
11
284.64103179303777
21
-2.6645352591003757e-13
31
0
0
LINE
5
115
100
AcDbEntity
8
0
100
AcDbLine
10
295.9383286769708
20
85.811489268810988
30
0
11
284.64103179303777
21
-7.1054273576010019e-14
31
0
0
LINE
5
116
100
AcDbEntity
8
0
100
AcDbLine
10
295.93832867697085
20
85.811489268810959
30
0
11
269.93788498619244
21
148.58211305480626
31
0
0
LINE
5
117
100
AcDbEntity
8
0
100
AcDbLine
10
269.93788498619244
20
148.58211305480626
30
0
11
201.27160378479289
21
201.27160378479243
31
0
0
LINE
5
118
100
AcDbEntity
8
0
100
AcDbLine
10
148.58211305480651
20
269.93788498619222
30
0
11
201.27160378479272
21
201.2716037847926
31
0
0
LINE
5
119
100
AcDbEntity
8
0
100
AcDbLine
10
148.58211305480657
20
269.93788498619233
30
0
11
85.811489268811272
21
295.93832867697074
31
0
0
LINE
5
120
100
AcDbEntity
8
0
100
AcDbLine
10
85.811489268811272
20
295.93832867697074
30
0
11
2.8421709430404007e-13
21
284.64103179303777
31
0
0
LINE
5
121
100
AcDbEntity
8
0
100
AcDbLine
10
-85.811489268810973
20
295.9383286769708
30
0
11
8.8817841970012523e-14
21
284.64103179303777
31
0
0
LINE
5
122
100
AcDbEntity
8
0
100
AcDbLine
10
-85.811489268810959
20
295.93832867697097
30
0
11
-148.58211305480626
21
269.93788498619244
31
0
0
LINE
5
123
100
AcDbEntity
8
0
100
AcDbLine
10
-148.58211305480626
20
269.93788498619244
30
0
11
-201.27160378479243
21
201.27160378479289
31
0
0
ELLIPSE
5
124
100
AcDbEntity
8
0
100
AcDbEllipse
10
-163.41636993705339
20
-394.52201661581114
30
0
11
133.93920132777598
21
323.35783637893167
31
0.0
40
0.65000000000003599
41
-1.0089754437417886
42
1.0089754437417957
0
LINE
5
125
100
AcDbEntity
8
0
100
AcDbLine
10
1.2093938359091312e-13
20
-87.5
30
0
11
-3.5527136788005009e-14
21
-284.64103179303777
31
0
0
LINE
5
126
100
AcDbEntity
8
0
100
AcDbLine
10
-201.27160378479289
20
-201.27160378479238
30
0
11
-61.87184335382284
21
-61.871843353822982
31
0
0
ELLIPSE
5
127
100
AcDbEntity
8
0
100
AcDbEllipse
10
163.41636993705185
20
-394.52201661581176
30
0
11
-133.93920132777197
21
323.3578363789332
31
0.0
40
0.65000000000003622
41
-1.008975443741789
42
1.0089754437417962
0
LINE
5
128
100
AcDbEntity
8
0
100
AcDbLine
10
-3.5551690565590319e-13
20
-284.64103179303771
30
0
11
1.0074871437453862e-13
21
-87.5
31
0
0
LINE
5
129
100
AcDbEntity
8
0
100
AcDbLine
10
61.871843353822989
20
-61.871843353822825
30
0
11
201.27160378479266
21
-201.27160378479272
31
0
0
ELLIPSE
5
130
100
AcDbEntity
8
0
100
AcDbEllipse
10
394.52201661581114
20
-163.41636993705345
30
0
11
-323.35783637893149
21
133.93920132777598
31
0.0
40
0.65000000000003622
41
-1.0089754437417886
42
1.0089754437417957
0
LINE
5
131
100
AcDbEntity
8
0
100
AcDbLine
10
201.27160378479238
20
-201.27160378479289
30
0
11
61.871843353822982
21
-61.87184335382284
31
0
0
LINE
5
132
100
AcDbEntity
8
0
100
AcDbLine
10
87.5
20
1.1558155384464341e-13
30
0
11
284.64103179303777
21
-5.2956373212572201e-14
31
0
0
ELLIPSE
5
133
100
AcDbEntity
8
0
100
AcDbEllipse
10
394.52201661581176
20
163.41636993705185
30
0
11
-323.3578363789332
21
-133.93920132777194
31
0.0
40
0.65000000000003622
41
-1.0089754437417886
42
1.0089754437417962
0
LINE
5
134
100
AcDbEntity
8
0
100
AcDbLine
10
284.64103179303771
20
-3.7131765701838772e-13
30
0
11
87.5
21
9.1034262909068484e-14
31
0
0
LINE
5
135
100
AcDbEntity
8
0
100
AcDbLine
10
61.871843353822825
20
61.871843353822989
30
0
11
201.27160378479272
21
201.27160378479263
31
0
0
ELLIPSE
5
136
100
AcDbEntity
8
0
100
AcDbEllipse
10
163.41636993705347
20
394.52201661581108
30
0
11
-133.93920132777606
21
-323.35783637893167
31
0.0
40
0.65000000000003588
41
-1.008975443741789
42
1.0089754437417966
0
LINE
5
137
100
AcDbEntity
8
0
100
AcDbLine
10
201.27160378479294
20
201.27160378479235
30
0
11
61.87184335382284
21
61.871843353822968
31
0
0
LINE
5
138
100
AcDbEntity
8
0
100
AcDbLine
10
-1.1022372409837376e-13
20
87.5
30
0
11
7.0385609637139393e-14
21
284.64103179303777
31
0
0
ELLIPSE
5
139
100
AcDbEntity
8
0
100
AcDbEllipse
10
-163.4163699370518
20
394.52201661581182
30
0
11
133.93920132777194
21
-323.35783637893326
31
0.0
40
0.65000000000003599
41
-1.008975443741789
42
1.0089754437417962
0
LINE
5
140
100
AcDbEntity
8
0
100
AcDbLine
10
4.0291915974335698e-13
20
284.64103179303771
30
0
11
-8.1319811443598364e-14
21
87.5
31
0
0
LINE
5
141
100
AcDbEntity
8
0
100
AcDbLine
10
-61.871843353822982
20
61.87184335382284
30
0
11
-201.27160378479263
21
201.27160378479272
31
0
0
ELLIPSE
5
142
100
AcDbEntity
8
0
100
AcDbEllipse
10
-394.52201661581108
20
163.41636993705353
30
0
11
323.35783637893167
21
-133.93920132777609
31
0.0
40
0.65000000000003588
41
-1.0089754437417886
42
1.0089754437417962
0
LINE
5
143
100
AcDbEntity
8
0
100
AcDbLine
10
-201.27160378479235
20
201.27160378479294
30
0
11
-61.871843353822968
21
61.87184335382284
31
0
0
LINE
5
144
100
AcDbEntity
8
0
100
AcDbLine
10
-87.5
20
-1.0486589435210407e-13
30
0
11
-284.64103179303777
21
8.7814846061706586e-14
31
0
0
ELLIPSE
5
145
100
AcDbEntity
8
0
100
AcDbEllipse
10
-394.52201661581171
20
-163.41636993705177
30
0
11
323.3578363789332
21
133.93920132777188
31
0.0
40
0.65000000000003622
41
-1.0089754437417886
42
1.0089754437417962
0
LINE
5
146
100
AcDbEntity
8
0
100
AcDbLine
10
-284.64103179303771
20
4.3452066246832614e-13
30
0
11
-87.5
21
-7.6462585710863279e-14
31
0
0
LINE
5
147
100
AcDbEntity
8
0
100
AcDbLine
10
-61.87184335382284
20
-61.871843353822982
30
0
11
-201.27160378479272
21
-201.2716037847926
31
0
0
ENDSEC
0
SECTION
2
OBJECTS
0
DICTIONARY
5
C
100
AcDbDictionary
3
ACAD_GROUP
350
D
3
ACAD_MLINESTYLE
350
17
0
DICTIONARY
5
D
100
AcDbDictionary
0
DICTIONARY
5
1A
330
C
100
AcDbDictionary
0
DICTIONARY
5
17
100
AcDbDictionary
0
ENDSEC
0
EOF
