0
SECTION
2
HEADER
9
$INSUNITS
70
4
9
$ACADVER
1
AC1014
9
$HANDSEED
5
FFFF
0
ENDSEC
0
SECTION
2
TABLES
0
TABLE
2
VPORT
5
8
100
AcDbSymbolTable
0
ENDTAB
0
TABLE
2
LTYPE
5
5
100
AcDbSymbolTable
0
LTYPE
5
14
100
AcDbSymbolTableRecord
100
AcDbLinetypeTableRecord
2
BYBLOCK
70
0
0
LTYPE
5
15
100
AcDbSymbolTableRecord
100
AcDbLinetypeTableRecord
2
BYLAYER
70
0
0
ENDTAB
0
TABLE
2
LAYER
5
2
100
AcDbSymbolTable
70
2
0
LAYER
5
50
100
AcDbSymbolTableRecord
100
AcDbLayerTableRecord
2
0
70
0
6
CONTINUOUS
0
ENDTAB
0
TABLE
2
STYLE
5
3
100
AcDbSymbolTable
70
1
0
STYLE
5
11
100
AcDbSymbolTableRecord
100
AcDbTextStyleTableRecord
2
STANDARD
70
0
0
ENDTAB
0
TABLE
2
VIEW
5
6
100
AcDbSymbolTable
70
0
0
ENDTAB
0
TABLE
2
UCS
5
7
100
AcDbSymbolTable
70
0
0
ENDTAB
0
TABLE
2
APPID
5
9
100
AcDbSymbolTable
70
2
0
APPID
5
12
100
AcDbSymbolTableRecord
100
AcDbRegAppTableRecord
2
ACAD
70
0
0
ENDTAB
0
TABLE
2
DIMSTYLE
5
A
100
AcDbSymbolTable
70
1
0
ENDTAB
0
TABLE
2
BLOCK_RECORD
5
1
100
AcDbSymbolTable
70
1
0
BLOCK_RECORD
5
1F
100
AcDbSymbolTableRecord
100
AcDbBlockTableRecord
2
*MODEL_SPACE
0
BLOCK_RECORD
5
1B
100
AcDbSymbolTableRecord
100
AcDbBlockTableRecord
2
*PAPER_SPACE
0
ENDTAB
0
ENDSEC
0
SECTION
2
BLOCKS
0
BLOCK
5
20
100
AcDbEntity
100
AcDbBlockBegin
2
*MODEL_SPACE
0
ENDBLK
5
21
100
AcDbEntity
100
AcDbBlockEnd
0
BLOCK
5
1C
100
AcDbEntity
100
AcDbBlockBegin
2
*PAPER_SPACE
0
ENDBLK
5
1D
100
AcDbEntity
100
AcDbBlockEnd
0
ENDSEC
0
SECTION
2
ENTITIES
0
LINE
5
100
100
AcDbEntity
8
0
100
AcDbLine
10
-286.82421425677876
20
140.47898203296387
30
0
11
-302.14898771914613
21
103.48170609977794
31
0
0
LINE
5
101
100
AcDbEntity
8
0
100
AcDbLine
10
-302.14898771914613
20
103.48170609977794
30
0
11
-288.52536265647029
21
-1.4210854715202004e-13
31
0
0
LINE
5
102
100
AcDbEntity
8
0
100
AcDbLine
10
-302.14898771914602
20
-103.48170609977805
30
0
11
-288.52536265647029
21
5.3290705182007514e-14
31
0
0
LINE
5
103
100
AcDbEntity
8
0
100
AcDbLine
10
-302.14898771916342
20
-103.48170609977957
30
0
11
-286.82421425676546
21
-140.47898203295276
31
0
0
LINE
5
104
100
AcDbEntity
8
0
100
AcDbLine
10
-286.82421425676546
20
-140.47898203295276
30
0
11
-204.01824047869795
21
-204.01824047869809
31
0
0
LINE
5
105
100
AcDbEntity
8
0
100
AcDbLine
10
-140.47898203295259
20
-286.82421425676546
30
0
11
-204.01824047869803
21
-204.01824047869803
31
0
0
LINE
5
106
100
AcDbEntity
8
0
100
AcDbLine
10
-140.47898203296381
20
-286.82421425677882
30
0
11
-103.48170609977791
21
-302.14898771914619
31
0
0
LINE
5
107
100
AcDbEntity
8
0
100
AcDbLine
10
-103.48170609977791
20
-302.14898771914619
30
0
11
1.9539925233402755e-13
21
-288.52536265647029
31
0
0
LINE
5
108
100
AcDbEntity
8
0
100
AcDbLine
10
103.48170609977814
20
-302.14898771914602
30
0
11
3.5527136788005009e-14
21
-288.52536265647035
31
0
0
LINE
5
109
100
AcDbEntity
8
0
100
AcDbLine
10
103.48170609977967
20
-302.14898771916342
30
0
11
140.47898203295287
21
-286.82421425676546
31
0
0
LINE
5
110
100
AcDbEntity
8
0
100
AcDbLine
10
140.47898203295287
20
-286.82421425676546
30
0
11
204.01824047869815
21
-204.01824047869795
31
0
0
LINE
5
111
100
AcDbEntity
8
0
100
AcDbLine
10
286.82421425676546
20
-140.47898203295262
30
0
11
204.01824047869803
21
-204.01824047869806
31
0
0
LINE
5
112
100
AcDbEntity
8
0
100
AcDbLine
10
286.82421425677882
20
-140.47898203296378
30
0
11
302.14898771914619
21
-103.48170609977791
31
0
0
LINE
5
113
100
AcDbEntity
8
0
100
AcDbLine
10
302.14898771914619
20
-103.48170609977791
30
0
11
288.52536265647029
21
1.7763568394002505e-13
31
0
0
LINE
5
114
100
AcDbEntity
8
0
100
AcDbLine
10
302.14898771914602
20
103.48170609977808
30
0
11
288.52536265647029
21
1.7763568394002505e-14
31
0
0
LINE
5
115
100
AcDbEntity
8
0
100
AcDbLine
10
302.14898771916342
20
103.48170609977963
30
0
11
286.8242142567654
21
140.47898203295284
31
0
0
LINE
5
116
100
AcDbEntity
8
0
100
AcDbLine
10
286.8242142567654
20
140.47898203295284
30
0
11
204.01824047869795
21
204.01824047869815
31
0
0
LINE
5
117
100
AcDbEntity
8
0
100
AcDbLine
10
140.47898203295264
20
286.82421425676546
30
0
11
204.01824047869806
21
204.01824047869806
31
0
0
LINE
5
118
100
AcDbEntity
8
0
100
AcDbLine
10
140.47898203296384
20
286.82421425677882
30
0
11
103.48170609977794
21
302.14898771914619
31
0
0
LINE
5
119
100
AcDbEntity
8
0
100
AcDbLine
10
103.48170609977794
20
302.14898771914619
30
0
11
-1.5987211554602254e-13
21
288.52536265647029
31
0
0
LINE
5
120
100
AcDbEntity
8
0
100
AcDbLine
10
-103.48170609977808
20
302.14898771914602
30
0
11
1.7763568394002505e-14
21
288.52536265647029
31
0
0
LINE
5
121
100
AcDbEntity
8
0
100
AcDbLine
10
-103.48170609977963
20
302.14898771916347
30
0
11
-140.47898203295279
21
286.82421425676546
31
0
0
LINE
5
122
100
AcDbEntity
8
0
100
AcDbLine
10
-140.47898203295279
20
286.82421425676546
30
0
11
-204.01824047869815
21
204.01824047869795
31
0
0
LINE
5
123
100
AcDbEntity
8
0
100
AcDbLine
10
-286.82421425676534
20
140.47898203295267
30
0
11
-204.01824047869806
21
204.01824047869806
31
0
0
ARC
5
124
100
AcDbEntity
8
0
100
AcDbCircle
10
-133.21889392968973
20
-321.61886048940005
30
0
40
237.50000000000011
210
0
220
-0
230
1
100
AcDbArc
50
4.7022939930190715
51
130.29770600697674
0
ARC
5
125
100
AcDbEntity
8
0
100
AcDbCircle
10
-321.61886048939971
20
-133.21889392968987
30
0
40
237.49999999999983
210
-0
220
0
230
1
100
AcDbArc
50
-40.297706006976739
51
85.297706006976782
0
LINE
5
126
100
AcDbEntity
8
0
100
AcDbLine
10
-204.01824047869803
20
-204.01824047869803
30
0
11
-88.388347648318373
21
-88.388347648318472
31
0
0
ARC
5
127
100
AcDbEntity
8
0
100
AcDbCircle
10
133.21889392968995
20
-321.61886048939994
30
0
40
237.50000000000006
210
0
220
-0
230
1
100
AcDbArc
50
49.702293993019104
51
175.2977060069768
0
LINE
5
128
100
AcDbEntity
8
0
100
AcDbLine
10
1.6016375040476832e-14
20
-288.52536265647029
30
0
11
9.0205620750793969e-14
21
-125
31
0
0
ARC
5
129
100
AcDbEntity
8
0
100
AcDbCircle
10
-133.21889392968956
20
-321.61886048939971
30
0
40
237.49999999999983
210
0
220
-0
230
1
100
AcDbArc
50
4.7022939930231846
51
130.29770600697682
0
ARC
5
130
100
AcDbEntity
8
0
100
AcDbCircle
10
321.61886048940005
20
-133.21889392968973
30
0
40
237.50000000000006
210
0
220
0
230
1
100
AcDbArc
50
94.702293993019111
51
220.29770600697674
0
LINE
5
131
100
AcDbEntity
8
0
100
AcDbLine
10
204.01824047869803
20
-204.01824047869803
30
0
11
88.388347648318472
21
-88.388347648318373
31
0
0
ARC
5
132
100
AcDbEntity
8
0
100
AcDbCircle
10
133.21889392968981
20
-321.61886048939971
30
0
40
237.49999999999986
210
0
220
-0
230
1
100
AcDbArc
50
49.702293993023261
51
175.2977060069768
0
ARC
5
133
100
AcDbEntity
8
0
100
AcDbCircle
10
321.61886048939994
20
133.21889392968995
30
0
40
237.50000000000006
210
0
220
0
230
1
100
AcDbArc
50
139.70229399301911
51
265.29770600697674
0
LINE
5
134
100
AcDbEntity
8
0
100
AcDbLine
10
288.52536265647029
20
-1.6016375040476826e-14
30
0
11
125
21
7.6327832942979512e-14
31
0
0
ARC
5
135
100
AcDbEntity
8
0
100
AcDbCircle
10
321.61886048939959
20
-133.21889392968959
30
0
40
237.49999999999983
210
0
220
0
230
1
100
AcDbArc
50
94.702293993023218
51
220.2977060069768
0
ARC
5
136
100
AcDbEntity
8
0
100
AcDbCircle
10
133.21889392968978
20
321.61886048940005
30
0
40
237.50000000000011
210
0
220
0
230
1
100
AcDbArc
50
184.70229399301908
51
310.29770600697674
0
LINE
5
137
100
AcDbEntity
8
0
100
AcDbLine
10
204.01824047869806
20
204.01824047869798
30
0
11
88.388347648318387
21
88.388347648318458
31
0
0
ARC
5
138
100
AcDbEntity
8
0
100
AcDbCircle
10
321.61886048939959
20
133.21889392968981
30
0
40
237.49999999999983
210
0
220
0
230
1
100
AcDbArc
50
139.70229399302323
51
265.2977060069768
0
ARC
5
139
100
AcDbEntity
8
0
100
AcDbCircle
10
-133.21889392968993
20
321.61886048939994
30
0
40
237.50000000000003
210
0
220
0
230
1
100
AcDbArc
50
229.70229399301911
51
355.29770600697674
0
LINE
5
140
100
AcDbEntity
8
0
100
AcDbLine
10
4.8049125121430483e-14
20
288.52536265647029
30
0
11
-6.2450045135165055e-14
21
125
31
0
0
ARC
5
141
100
AcDbEntity
8
0
100
AcDbCircle
10
133.21889392968961
20
321.61886048939976
30
0
40
237.49999999999983
210
0
220
0
230
1
100
AcDbArc
50
184.70229399302326
51
310.2977060069768
0
ARC
5
142
100
AcDbEntity
8
0
100
AcDbCircle
10
-321.61886048940005
20
133.21889392968978
30
0
40
237.50000000000011
210
0
220
0
230
1
100
AcDbArc
50
-85.297706006980917
51
40.297706006976739
0
LINE
5
143
100
AcDbEntity
8
0
100
AcDbLine
10
-204.01824047869798
20
204.01824047869806
30
0
11
-88.388347648318458
21
88.388347648318387
31
0
0
ARC
5
144
100
AcDbEntity
8
0
100
AcDbCircle
10
-133.21889392968978
20
321.61886048939959
30
0
40
237.49999999999974
210
0
220
0
230
1
100
AcDbArc
50
229.70229399302326
51
355.2977060069768
0
ARC
5
145
100
AcDbEntity
8
0
100
AcDbCircle
10
-321.61886048939994
20
-133.21889392968987
30
0
40
237.50000000000006
210
0
220
0
230
1
100
AcDbArc
50
-40.29770600698091
51
85.297706006976739
0
LINE
5
146
100
AcDbEntity
8
0
100
AcDbLine
10
-288.52536265647024
20
8.0081875202384166e-14
30
0
11
-125
21
-4.8572257327350586e-14
31
0
0
ARC
5
147
100
AcDbEntity
8
0
100
AcDbCircle
10
-321.61886048939959
20
133.21889392968961
30
0
40
237.49999999999974
210
0
220
0
230
1
100
AcDbArc
50
-85.297706006976782
51
40.297706006976803
0
ENDSEC
0
SECTION
2
OBJECTS
0
DICTIONARY
5
C
100
AcDbDictionary
3
ACAD_GROUP
350
D
3
ACAD_MLINESTYLE
350
17
0
DICTIONARY
5
D
100
AcDbDictionary
0
DICTIONARY
5
1A
330
C
100
AcDbDictionary
0
DICTIONARY
5
17
100
AcDbDictionary
0
ENDSEC
0
EOF
