<?xml version="1.0" encoding="UTF-8" standalone="no"?>
<svg
   viewBox="0 0 978.87736 1083.2677"
   width="978.87738"
   height="1083.2677"
   version="1.1"
   id="svg140"
   sodipodi:docname="acleric_trial.svg"
   inkscape:version="1.2 (dc2aedaf03, 2022-05-15)"
   xmlns:inkscape="http://www.inkscape.org/namespaces/inkscape"
   xmlns:sodipodi="http://sodipodi.sourceforge.net/DTD/sodipodi-0.dtd"
   xmlns="http://www.w3.org/2000/svg"
   xmlns:svg="http://www.w3.org/2000/svg">
  <sodipodi:namedview
     id="namedview142"
     pagecolor="#ffffff"
     bordercolor="#000000"
     borderopacity="0.25"
     inkscape:showpageshadow="2"
     inkscape:pageopacity="0.0"
     inkscape:pagecheckerboard="0"
     inkscape:deskcolor="#d1d1d1"
     showgrid="false"
     inkscape:zoom="0.71624581"
     inkscape:cx="484.47055"
     inkscape:cy="753.23303"
     inkscape:window-width="1920"
     inkscape:window-height="991"
     inkscape:window-x="-9"
     inkscape:window-y="-9"
     inkscape:window-maximized="1"
     inkscape:current-layer="g138" />
  <desc
     id="desc2">acleric_trial.dxf - scale = 1.000000, origin = (0.000000, 0.000000), method = manual</desc>
  <defs
     id="defs16">
    <marker
       id="DistanceX"
       orient="auto"
       refX="0"
       refY="0"
       style="overflow:visible">
      <path
         d="M 3,-3 -3,3 M 0,-5 V 5"
         style="stroke:#000000;stroke-width:0.5"
         id="path4" />
    </marker>
    <pattern
       id="Hatch"
       patternUnits="userSpaceOnUse"
       width="8"
       height="8"
       x="0"
       y="0">
      <path
         d="M8 4 l-4,4"
         stroke="#000000"
         stroke-width="0.25"
         linecap="square"
         id="path7" />
      <path
         d="M6 2 l-4,4"
         stroke="#000000"
         stroke-width="0.25"
         linecap="square"
         id="path9" />
      <path
         d="M4 0 l-4,4"
         stroke="#000000"
         stroke-width="0.25"
         linecap="square"
         id="path11" />
    </pattern>
    <symbol
       id="*MODEL_SPACE" />
    <symbol
       id="*PAPER_SPACE" />
  </defs>
  <g
     inkscape:groupmode="layer"
     inkscape:label="0"
     id="g138"
     transform="translate(-1265.3391,-1164.9173)">
    <g
       id="g1000">
      <path
         d="m 2220.0944,2115.4016 v 75.5905 h 9.4488 v -75.5905 z"
         style="fill:none;stroke:#ff0000;stroke-opacity:1;stroke-width:0.37795276;stroke-dasharray:none"
         id="path18" />
      <path
         d="m 2220.0944,1945.3228 v 75.5906 h 9.4488 v -75.5906 z"
         style="fill:none;stroke:#ff0000;stroke-opacity:1;stroke-width:0.37795276;stroke-dasharray:none"
         id="path20" />
      <path
         d="m 2220.0944,1775.2441 v 75.5905 h 9.4488 v -75.5905 z"
         style="fill:none;stroke:#ff0000;stroke-opacity:1;stroke-width:0.37795276;stroke-dasharray:none"
         id="path22" />
      <path
         d="m 2232.3778,2247.6851 h -15.1181 -419.5275 -15.1181 a 11.338583,11.338583 0 0 1 -11.3386,-11.3386 v -506.4567 a 11.338583,11.338583 0 0 1 11.3386,-11.3386 h 15.1181 419.5275 15.1181 a 11.338583,11.338583 0 0 1 11.3386,11.3386 v 506.4567 a 11.338583,11.338583 0 0 1 -11.3386,11.3386 z"
         style="fill:none;stroke:#ff0000;stroke-opacity:1;stroke-width:0.37795276;stroke-dasharray:none"
         id="path24" />
      <path
         d="m 1785.4487,1945.3228 v 75.5906 h 9.4488 v -75.5906 z"
         style="fill:none;stroke:#ff0000;stroke-opacity:1;stroke-width:0.37795276;stroke-dasharray:none"
         id="path26" />
      <path
         d="m 1785.4487,1775.2441 v 75.5905 h 9.4488 v -75.5905 z"
         style="fill:none;stroke:#ff0000;stroke-opacity:1;stroke-width:0.37795276;stroke-dasharray:none"
         id="path28" />
      <path
         d="m 1820.4094,2233.5118 h 75.5905 v -4.7244 -4.7244 h -75.5906 l 10e-5,4.7244 z"
         style="fill:none;stroke:#ff0000;stroke-opacity:1;stroke-width:0.37795276;stroke-dasharray:none"
         id="path30" />
      <path
         d="m 2194.5826,1732.7244 h -75.5906 v 4.7244 4.7244 h 75.5906 v -4.7244 z"
         style="fill:none;stroke:#ff0000;stroke-opacity:1;stroke-width:0.37795276;stroke-dasharray:none"
         id="path32" />
      <path
         d="m 2045.2912,1737.4488 v -4.7244 h -75.5905 v 4.7244 4.7244 h 75.5905 z"
         style="fill:none;stroke:#ff0000;stroke-opacity:1;stroke-width:0.37795276;stroke-dasharray:none"
         id="path34" />
      <path
         d="m 2194.5826,2224.063 h -75.5906 v 4.7244 4.7244 h 75.5906 v -4.7244 z"
         style="fill:none;stroke:#ff0000;stroke-opacity:1;stroke-width:0.37795276;stroke-dasharray:none"
         id="path36" />
      <path
         d="m 1895.9999,1737.4488 v -4.7244 h -75.5905 l -10e-5,4.7244 v 4.7244 h 75.5906 z"
         style="fill:none;stroke:#ff0000;stroke-opacity:1;stroke-width:0.37795276;stroke-dasharray:none"
         id="path38" />
      <path
         d="m 1969.7007,2228.7874 v 4.7244 h 75.5905 v -4.7244 -4.7244 h -75.5905 z"
         style="fill:none;stroke:#ff0000;stroke-opacity:1;stroke-width:0.37795276;stroke-dasharray:none"
         id="path40" />
      <path
         d="m 1846.5518,2023.6762 a 5.6693,5.6693 0 0 0 -11.3386,0 5.6693,5.6693 0 0 0 11.3386,0 z"
         style="fill:none;stroke:#ff0000;stroke-opacity:1;stroke-width:0.37795276;stroke-dasharray:none"
         id="path42" />
      <path
         d="m 1846.5518,2157.4715 a 5.6693,5.6693 0 0 0 -11.3386,0 5.6693,5.6693 0 0 0 11.3386,0 z"
         style="fill:none;stroke:#ff0000;stroke-opacity:1;stroke-width:0.37795276;stroke-dasharray:none"
         id="path44" />
      <path
         d="m 1900.9573,2023.6762 a 5.6692915,5.6692915 0 0 0 -11.3385,0 5.6692915,5.6692915 0 0 0 11.3385,0 z"
         style="fill:none;stroke:#ff0000;stroke-opacity:1;stroke-width:0.37795276;stroke-dasharray:none"
         id="path46" />
      <path
         d="m 1900.9573,2157.4715 a 5.6692915,5.6692915 0 0 0 -11.3385,0 5.6692915,5.6692915 0 0 0 11.3385,0 z"
         style="fill:none;stroke:#ff0000;stroke-opacity:1;stroke-width:0.37795276;stroke-dasharray:none"
         id="path48" />
      <path
         d="m 1846.9038,2184.5149 a 6.04725,6.04725 0 0 0 -12.0945,0 6.04725,6.04725 0 0 0 12.0945,0 z"
         style="fill:none;stroke:#ff0000;stroke-opacity:1;stroke-width:0.37795276;stroke-dasharray:none"
         id="path50" />
      <path
         d="m 2183.8895,2184.5149 a 6.04725,6.04725 0 0 0 -12.0945,0 6.04725,6.04725 0 0 0 12.0945,0 z"
         style="fill:none;stroke:#ff0000;stroke-opacity:1;stroke-width:0.37795276;stroke-dasharray:none"
         id="path52" />
      <path
         d="m 1846.9038,1791.8765 a 6.04725,6.04725 0 0 0 -12.0945,0 6.04725,6.04725 0 0 0 12.0945,0 z"
         style="fill:none;stroke:#ff0000;stroke-opacity:1;stroke-width:0.37795276;stroke-dasharray:none"
         id="path54" />
      <path
         d="m 2183.8895,1791.8765 a 6.04725,6.04725 0 0 0 -12.0945,0 6.04725,6.04725 0 0 0 12.0945,0 z"
         style="fill:none;stroke:#ff0000;stroke-opacity:1;stroke-width:0.37795276;stroke-dasharray:none"
         id="path56" />
      <path
         d="m 1889.3424,2135.9084 h 10.2047 v -41.5748 h -10.2047 z"
         style="fill:none;stroke:#ff0000;stroke-opacity:1;stroke-width:0.37795276;stroke-dasharray:none"
         id="path58" />
      <path
         d="m 1785.4487,2190.9921 h 9.4488 v -75.5905 h -9.4488 z"
         style="fill:none;stroke:#ff0000;stroke-opacity:1;stroke-width:0.37795276;stroke-dasharray:none"
         id="path60" />
    </g>
    <g
       id="g976">
      <path
         d="m 1969.7007,1680.378 h 75.5905 v -9.4489 h -75.5905 z"
         style="fill:none;stroke:#ff0000;stroke-opacity:1;stroke-width:0.37795276;stroke-dasharray:none"
         id="path62" />
      <path
         d="m 2194.5826,1680.378 v -9.4489 h -75.5906 v 9.4489 z"
         style="fill:none;stroke:#ff0000;stroke-opacity:1;stroke-width:0.37795276;stroke-dasharray:none"
         id="path64" />
      <path
         d="m 1895.9999,1680.378 v -9.4489 h -75.5905 v 9.4489 z"
         style="fill:none;stroke:#ff0000;stroke-opacity:1;stroke-width:0.37795276;stroke-dasharray:none"
         id="path66" />
      <path
         d="m 2220.0944,1562.2677 v 75.5906 h 9.4488 v -75.5906 z"
         style="fill:none;stroke:#ff0000;stroke-opacity:1;stroke-width:0.37795276;stroke-dasharray:none"
         id="path68" />
      <path
         d="m 2220.0944,1392.189 v 75.5905 h 9.4488 v -75.5905 z"
         style="fill:none;stroke:#ff0000;stroke-opacity:1;stroke-width:0.37795276;stroke-dasharray:none"
         id="path70" />
      <path
         d="m 2220.0944,1222.1102 v 75.5906 h 9.4488 v -75.5906 z"
         style="fill:none;stroke:#ff0000;stroke-opacity:1;stroke-width:0.37795276;stroke-dasharray:none"
         id="path72" />
      <path
         d="m 2045.2912,1179.5906 h -75.5905 v 9.4488 h 75.5905 z"
         style="fill:none;stroke:#ff0000;stroke-opacity:1;stroke-width:0.37795276;stroke-dasharray:none"
         id="path74" />
      <path
         d="m 2194.5826,1179.5906 h -75.5906 v 9.4488 h 75.5906 z"
         style="fill:none;stroke:#ff0000;stroke-opacity:1;stroke-width:0.37795276;stroke-dasharray:none"
         id="path76" />
      <path
         d="m 1820.4094,1179.5906 v 9.4488 h 75.5905 v -9.4488 z"
         style="fill:none;stroke:#ff0000;stroke-opacity:1;stroke-width:0.37795276;stroke-dasharray:none"
         id="path78" />
      <path
         d="m 1794.8975,1297.7008 v -75.5906 h -9.4488 v 75.5906 z"
         style="fill:none;stroke:#ff0000;stroke-opacity:1;stroke-width:0.37795276;stroke-dasharray:none"
         id="path80" />
      <path
         d="m 1794.8975,1467.7795 v -75.5905 h -9.4488 v 75.5905 z"
         style="fill:none;stroke:#ff0000;stroke-opacity:1;stroke-width:0.37795276;stroke-dasharray:none"
         id="path82" />
      <path
         d="m 1785.4487,1637.8583 h 9.4488 v -75.5906 h -9.4488 z"
         style="fill:none;stroke:#ff0000;stroke-opacity:1;stroke-width:0.37795276;stroke-dasharray:none"
         id="path84" />
      <path
         d="m 2232.3779,1694.5512 h -449.7638 a 11.338583,11.338583 0 0 1 -11.3386,-11.3386 v -506.4567 a 11.338583,11.338583 0 0 1 11.3386,-11.3386 h 449.7638 a 11.338583,11.338583 0 0 1 11.3385,11.3386 v 506.4567 a 11.338583,11.338583 0 0 1 -11.3385,11.3386 z"
         style="fill:none;stroke:#ff0000;stroke-opacity:1;stroke-width:0.37795276;stroke-dasharray:none"
         id="path86" />
    </g>
    <g
       id="g1059">
      <path
         d="m 1528.0062,2247.685 v -56.6929 h -9.4488 v -75.5906 h 9.4488 v -94.4882 h -9.4488 v -75.5905 h 9.4488 v -94.4882 h -9.4488 v -75.5906 h 9.4488 v -56.6929 h 211.7104 v 56.6929 h 7.5589 v 75.5906 h -7.5589 v 94.4882 h 7.5589 v 75.5905 h -7.5589 v 94.4882 h 7.5589 v 75.5906 h -7.5589 v 56.6929 z"
         style="fill:none;stroke:#ff0000;stroke-opacity:1;stroke-width:0.37795276;stroke-dasharray:none"
         id="path88" />
      <path
         d="m 1596.0661,1742.1732 h 75.5906 v -9.4489 h -75.5906 z"
         style="fill:none;stroke:#ff0000;stroke-opacity:1;stroke-width:0.37795276;stroke-dasharray:none"
         id="path90" />
      <path
         d="m 1596.0661,2224.0629 v 9.4489 h 75.5906 v -9.4489 z"
         style="fill:none;stroke:#ff0000;stroke-opacity:1;stroke-width:0.37795276;stroke-dasharray:none"
         id="path92" />
    </g>
    <g
       id="g961">
      <path
         d="m 1606.9672,1215.455 v -9.9024 h -29.0646 v 9.9024 z"
         style="fill:none;stroke:#ff0000;stroke-opacity:1;stroke-width:0.37795276;stroke-dasharray:none"
         id="path94" />
      <path
         d="m 1671.6567,1189.0394 v -9.4489 h -75.5906 v 9.4489 z"
         style="fill:none;stroke:#ff0000;stroke-opacity:1;stroke-width:0.37795276;stroke-dasharray:none"
         id="path96" />
      <path
         d="m 1596.0661,1670.9291 v 9.4489 h 75.5906 v -9.4489 z"
         style="fill:none;stroke:#ff0000;stroke-opacity:1;stroke-width:0.37795276;stroke-dasharray:none"
         id="path98" />
      <path
         d="m 1611.9814,1614.2362 a 5.6693,5.6693 0 0 0 -11.3386,0 5.6693,5.6693 0 0 0 11.3386,0 z"
         style="fill:none;stroke:#ff0000;stroke-opacity:1;stroke-width:0.37795276;stroke-dasharray:none"
         id="path100" />
      <path
         d="m 1611.9814,1245.7323 a 5.6693,5.6693 0 0 0 -11.3386,0 5.6693,5.6693 0 0 0 11.3386,0 z"
         style="fill:none;stroke:#ff0000;stroke-opacity:1;stroke-width:0.37795276;stroke-dasharray:none"
         id="path102" />
      <path
         d="m 1594.9736,1614.2362 a 5.6693,5.6693 0 0 0 -11.3386,0 5.6693,5.6693 0 0 0 11.3386,0 z"
         style="fill:none;stroke:#ff0000;stroke-opacity:1;stroke-width:0.37795276;stroke-dasharray:none"
         id="path104" />
      <path
         d="m 1577.9661,1245.7323 a 5.6693,5.6693 0 0 0 -11.3386,0 5.6693,5.6693 0 0 0 11.3386,0 z"
         style="fill:none;stroke:#ff0000;stroke-opacity:1;stroke-width:0.37795276;stroke-dasharray:none"
         id="path106" />
      <path
         d="m 1594.9736,1245.7323 a 5.6693,5.6693 0 0 0 -11.3386,0 5.6693,5.6693 0 0 0 11.3386,0 z"
         style="fill:none;stroke:#ff0000;stroke-opacity:1;stroke-width:0.37795276;stroke-dasharray:none"
         id="path108" />
      <path
         d="m 1577.9661,1614.2362 a 5.6693,5.6693 0 0 0 -11.3386,0 5.6693,5.6693 0 0 0 11.3386,0 z"
         style="fill:none;stroke:#ff0000;stroke-opacity:1;stroke-width:0.37795276;stroke-dasharray:none"
         id="path110" />
      <path
         d="m 1600.6428,1498.0157 a 11.338583,11.338583 0 0 0 -22.6771,0 11.338583,11.338583 0 0 0 22.6771,0 z"
         style="fill:none;stroke:#ff0000;stroke-opacity:1;stroke-width:0.37795276;stroke-dasharray:none"
         id="path112" />
      <path
         d="m 1600.6428,1316.5984 a 11.338583,11.338583 0 0 0 -22.6771,0 11.338583,11.338583 0 0 0 22.6771,0 z"
         style="fill:none;stroke:#ff0000;stroke-opacity:1;stroke-width:0.37795276;stroke-dasharray:none"
         id="path114" />
      <path
         d="m 1600.6428,1361.9528 a 11.338583,11.338583 0 0 0 -22.6771,0 11.338583,11.338583 0 0 0 22.6771,0 z"
         style="fill:none;stroke:#ff0000;stroke-opacity:1;stroke-width:0.37795276;stroke-dasharray:none"
         id="path116" />
      <path
         d="m 1600.6428,1543.3701 a 11.338583,11.338583 0 0 0 -22.6771,0 11.338583,11.338583 0 0 0 22.6771,0 z"
         style="fill:none;stroke:#ff0000;stroke-opacity:1;stroke-width:0.37795276;stroke-dasharray:none"
         id="path118" />
      <path
         d="m 1600.6428,1452.6614 a 11.338583,11.338583 0 0 0 -22.6771,0 11.338583,11.338583 0 0 0 22.6771,0 z"
         style="fill:none;stroke:#ff0000;stroke-opacity:1;stroke-width:0.37795276;stroke-dasharray:none"
         id="path120" />
      <path
         d="m 1600.6428,1271.2441 a 11.338583,11.338583 0 0 0 -22.6771,0 11.338583,11.338583 0 0 0 22.6771,0 z"
         style="fill:none;stroke:#ff0000;stroke-opacity:1;stroke-width:0.37795276;stroke-dasharray:none"
         id="path122" />
      <path
         d="m 1600.6428,1407.3071 a 11.338583,11.338583 0 0 0 -22.6771,0 11.338583,11.338583 0 0 0 22.6771,0 z"
         style="fill:none;stroke:#ff0000;stroke-opacity:1;stroke-width:0.37795276;stroke-dasharray:none"
         id="path124" />
      <path
         d="m 1600.6428,1588.7244 a 11.338583,11.338583 0 0 0 -22.6771,0 11.338583,11.338583 0 0 0 22.6771,0 z"
         style="fill:none;stroke:#ff0000;stroke-opacity:1;stroke-width:0.37795276;stroke-dasharray:none"
         id="path126" />
      <path
         d="m 1528.0062,1694.5512 v -56.6929 h -9.4488 v -75.5906 h 9.4488 v -94.4882 h -9.4488 v -75.5905 h 9.4488 v -94.4882 h -9.4488 v -75.5906 h 9.4488 v -56.6929 h 211.7104 v 56.6929 h 7.5589 v 75.5906 h -7.5589 v 94.4882 h 7.5589 v 75.5905 h -7.5589 v 94.4882 h 7.5589 v 75.5906 h -7.5589 v 56.6929 z"
         style="fill:none;stroke:#ff0000;stroke-opacity:1;stroke-width:0.37795276;stroke-dasharray:none"
         id="path128" />
    </g>
    <g
       id="g941">
      <path
         d="m 1348.0761,1455.6244 a 11.3386,11.3386 0 0 0 -22.6772,0 11.3386,11.3386 0 0 0 22.6772,0 z"
         style="fill:none;stroke:#ff0000;stroke-opacity:1;stroke-width:0.37795276;stroke-dasharray:none"
         id="path130" />
      <path
         d="m 1348.0761,1401.978 a 11.3386,11.3386 0 0 0 -22.6772,0 11.3386,11.3386 0 0 0 22.6772,0 z"
         style="fill:none;stroke:#ff0000;stroke-opacity:1;stroke-width:0.37795276;stroke-dasharray:none"
         id="path132" />
      <path
         d="m 1343.3478,1600.063 h -68.0599 v -22.6772 h -9.4488 v -75.5905 h 9.4488 v -73.7008 h -9.4488 v -75.5906 h 9.4488 v -73.7008 h -9.4488 v -75.5905 h 9.4488 v -22.6772 h 68.0599 v -15.1181 h 75.5906 v 15.1181 h 68.0599 v 22.6772 h 7.5589 v 75.5905 h -7.5589 v 73.7008 h 7.5589 v 75.5906 h -7.5589 v 73.7008 h 7.5589 v 75.5905 h -7.5589 v 22.6772 h -68.0599 v 15.1181 h -75.5906 z"
         style="fill:none;stroke:#ff0000;stroke-opacity:1;stroke-width:0.37795276;stroke-dasharray:none"
         id="path134" />
    </g>
    <path
       d="m 1486.9983,2073.8269 h -68.0599 v 15.1181 h -75.5906 v -15.1181 h -68.0599 v -22.6772 h -9.4488 v -75.5906 h 9.4488 v -73.7007 h -9.4488 v -75.5906 h 9.4488 v -73.7008 h -9.4488 v -75.5905 h 9.4488 v -22.6772 h 68.0599 v -15.1181 h 75.5906 v 15.1181 h 68.0599 v 22.6772 h 7.5589 v 75.5905 h -7.5589 v 73.7008 h 7.5589 v 75.5906 h -7.5589 v 73.7007 h 7.5589 v 75.5906 h -7.5589 z"
       style="fill:none;stroke:#ff0000;stroke-opacity:1;stroke-width:0.37795276;stroke-dasharray:none"
       id="path136" />
  </g>
</svg>
