0
SECTION
2
HEADER
9
$INSUNITS
70
4
9
$ACADVER
1
AC1014
9
$HANDSEED
5
FFFF
0
ENDSEC
0
SECTION
2
TABLES
0
TABLE
2
VPORT
5
8
100
AcDbSymbolTable
0
ENDTAB
0
TABLE
2
LTYPE
5
5
100
AcDbSymbolTable
0
LTYPE
5
14
100
AcDbSymbolTableRecord
100
AcDbLinetypeTableRecord
2
BYBLOCK
70
0
0
LTYPE
5
15
100
AcDbSymbolTableRecord
100
AcDbLinetypeTableRecord
2
BYLAYER
70
0
0
ENDTAB
0
TABLE
2
LAYER
5
2
100
AcDbSymbolTable
70
2
0
LAYER
5
50
100
AcDbSymbolTableRecord
100
AcDbLayerTableRecord
2
0
70
0
6
CONTINUOUS
0
ENDTAB
0
TABLE
2
STYLE
5
3
100
AcDbSymbolTable
70
1
0
STYLE
5
11
100
AcDbSymbolTableRecord
100
AcDbTextStyleTableRecord
2
STANDARD
70
0
0
ENDTAB
0
TABLE
2
VIEW
5
6
100
AcDbSymbolTable
70
0
0
ENDTAB
0
TABLE
2
UCS
5
7
100
AcDbSymbolTable
70
0
0
ENDTAB
0
TABLE
2
APPID
5
9
100
AcDbSymbolTable
70
2
0
APPID
5
12
100
AcDbSymbolTableRecord
100
AcDbRegAppTableRecord
2
ACAD
70
0
0
ENDTAB
0
TABLE
2
DIMSTYLE
5
A
100
AcDbSymbolTable
70
1
0
ENDTAB
0
TABLE
2
BLOCK_RECORD
5
1
100
AcDbSymbolTable
70
1
0
BLOCK_RECORD
5
1F
100
AcDbSymbolTableRecord
100
AcDbBlockTableRecord
2
*MODEL_SPACE
0
BLOCK_RECORD
5
1B
100
AcDbSymbolTableRecord
100
AcDbBlockTableRecord
2
*PAPER_SPACE
0
ENDTAB
0
ENDSEC
0
SECTION
2
BLOCKS
0
BLOCK
5
20
100
AcDbEntity
100
AcDbBlockBegin
2
*MODEL_SPACE
0
ENDBLK
5
21
100
AcDbEntity
100
AcDbBlockEnd
0
BLOCK
5
1C
100
AcDbEntity
100
AcDbBlockBegin
2
*PAPER_SPACE
0
ENDBLK
5
1D
100
AcDbEntity
100
AcDbBlockEnd
0
ENDSEC
0
SECTION
2
ENTITIES
0
LWPOLYLINE
5
100
100
AcDbEntity
8
0
100
AcDbPolyline
90
36
70
1
43
0.0
10
6.3499984741211239
20
66.687896728515611
10
9.949998474121136
20
66.687896728515597
10
9.94999847412112
20
56.687896728515604
10
6.3499984741211071
20
56.687896728515597
10
6.3499984741211097
20
41.687896728515597
10
9.9499984741211218
20
41.687896728515597
10
9.9499984741211236
20
31.687896728515597
10
6.3499984741211124
20
31.6878967285156
10
6.3499984741211168
20
16.687896728515597
10
9.9499984741211271
20
16.687896728515597
10
9.94999847412112
20
11.687896728515701
10
106.34999847412121
20
6.6878967285160567
10
106.34999847412118
20
16.68789672851549
10
109.94999847412112
20
16.687896728515486
10
109.94999847412112
20
31.68789672851549
10
106.34999847412118
20
31.687896728515497
10
106.34999847412118
20
41.687896728515511
10
109.94999847412112
20
41.687896728515511
10
109.94999847412112
20
56.687896728515518
10
106.34999847412118
20
56.687896728515518
10
106.34999847412119
20
66.687896728515526
10
109.94999847412112
20
66.687896728515511
10
109.94999847412116
20
81.687896728515526
10
106.34999847412121
20
81.687896728515511
10
106.34999847412124
20
91.687896728515526
10
109.94999847412117
20
91.687896728515526
10
109.9499984741212
20
106.68789672851553
10
106.34999847412126
20
106.68789672851553
10
106.34999847412111
20
116.68789672851534
10
9.9499984741211076
20
111.6878967285156
10
9.949998474121216
20
106.68789672851561
10
6.3499984741212021
20
106.68789672851561
10
6.3499984741211701
20
91.687896728515597
10
9.9499984741211822
20
91.687896728515597
10
9.9499984741211662
20
81.687896728515597
10
6.3499984741211541
20
81.687896728515611
0
LWPOLYLINE
5
101
100
AcDbEntity
8
0
100
AcDbPolyline
90
12
70
1
43
0.0
10
166.1377494033008
20
6.3499999046325684
10
180.53774940330086
20
6.3499999046325684
10
180.53774940330086
20
9.9499999046325698
10
185.95895751631818
20
9.9499999046325627
10
185.95895751631818
20
106.34999990463257
10
180.53774940330086
20
106.34999990463257
10
180.53774940330086
20
109.94999990463256
10
166.1377494033008
20
109.94999990463256
10
166.1377494033008
20
106.34999990463257
10
160.71654129028357
20
106.34999990463257
10
160.71654129028357
20
9.9499999046325698
10
166.1377494033008
20
9.9499999046325698
0
LWPOLYLINE
5
102
100
AcDbEntity
8
0
100
AcDbPolyline
90
12
70
1
43
0.0
10
197.7301604445606
20
6.3499999046325684
10
212.13016044456066
20
6.3499999046325684
10
212.13016044456066
20
9.9499999046325698
10
217.55136855757797
20
9.9499999046325627
10
217.55136855757797
20
106.34999990463257
10
212.13016044456066
20
106.34999990463257
10
212.13016044456066
20
109.94999990463256
10
197.7301604445606
20
109.94999990463256
10
197.7301604445606
20
106.34999990463257
10
192.30895233154337
20
106.34999990463257
10
192.30895233154337
20
9.9499999046325698
10
197.7301604445606
20
9.9499999046325698
0
LWPOLYLINE
5
103
100
AcDbEntity
8
0
100
AcDbPolyline
90
12
70
1
43
0.0
10
169.67025443870119
20
116.29999542236328
10
184.07025443870126
20
116.29999542236328
10
184.07025443870126
20
119.89999542236328
10
189.49146255171857
20
119.89999542236326
10
189.49146255171857
20
216.29999542236328
10
184.07025443870126
20
216.29999542236328
10
184.07025443870126
20
219.89999542236325
10
169.67025443870119
20
219.89999542236325
10
169.67025443870119
20
216.29999542236328
10
164.24904632568396
20
216.29999542236328
10
164.24904632568396
20
119.89999542236328
10
169.67025443870119
20
119.89999542236328
0
LWPOLYLINE
5
104
100
AcDbEntity
8
0
100
AcDbPolyline
90
4
70
1
43
0.0
10
136.277868574443
20
122.44978332519443
10
136.277868574443
20
125.44978332519446
10
150.67786857444307
20
125.44978332519446
10
150.67786857444304
20
122.44978332519443
0
LWPOLYLINE
5
105
100
AcDbEntity
8
0
100
AcDbPolyline
90
4
70
1
43
0.0
10
136.277868574443
20
135.11644999186134
10
136.277868574443
20
138.11644999186134
10
150.67786857444307
20
138.11644999186132
10
150.67786857444304
20
135.11644999186134
0
LWPOLYLINE
5
106
100
AcDbEntity
8
0
100
AcDbPolyline
90
4
70
1
43
0.0
10
136.27786857444303
20
147.78311665852823
10
136.27786857444303
20
150.78311665852823
10
150.67786857444307
20
150.78311665852823
10
150.67786857444304
20
147.78311665852826
0
LWPOLYLINE
5
107
100
AcDbEntity
8
0
100
AcDbPolyline
90
4
70
1
43
0.0
10
136.27786857444303
20
160.44978332519514
10
136.27786857444303
20
163.44978332519514
10
150.67786857444307
20
163.44978332519514
10
150.67786857444307
20
160.44978332519514
0
LWPOLYLINE
5
108
100
AcDbEntity
8
0
100
AcDbPolyline
90
4
70
1
43
0.0
10
136.27786857444303
20
173.11644999186203
10
136.27786857444303
20
176.11644999186205
10
150.67786857444307
20
176.11644999186205
10
150.67786857444307
20
173.11644999186203
0
LWPOLYLINE
5
109
100
AcDbEntity
8
0
100
AcDbPolyline
90
4
70
1
43
0.0
10
136.27786857444303
20
185.78311665852894
10
136.27786857444303
20
188.78311665852894
10
150.67786857444307
20
188.78311665852894
10
150.67786857444307
20
185.78311665852894
0
LWPOLYLINE
5
110
100
AcDbEntity
8
0
100
AcDbPolyline
90
4
70
1
43
0.0
10
136.27786857444303
20
198.44978332519585
10
136.27786857444303
20
201.44978332519585
10
150.67786857444307
20
201.44978332519585
10
150.67786857444307
20
198.44978332519585
0
CIRCLE
5
111
100
AcDbEntity
8
0
100
AcDbCircle
10
143.47786857444302
20
142.94978332519514
30
0
40
2.5
210
0
220
0
230
1
0
CIRCLE
5
112
100
AcDbEntity
8
0
100
AcDbCircle
10
143.47786857444305
20
193.61644999186177
30
0
40
2.5
210
0
220
0
230
1
0
CIRCLE
5
113
100
AcDbEntity
8
0
100
AcDbCircle
10
109.63629656740866
20
147.94978332519517
30
0
40
3.75
210
0
220
0
230
1
0
CIRCLE
5
114
100
AcDbEntity
8
0
100
AcDbCircle
10
109.63629656740871
20
185.28311665852846
30
0
40
3.75
210
0
220
0
230
1
0
CIRCLE
5
115
100
AcDbEntity
8
0
100
AcDbCircle
10
109.63629656740871
20
175.94978332519514
30
0
40
3.75
210
0
220
0
230
1
0
CIRCLE
5
116
100
AcDbEntity
8
0
100
AcDbCircle
10
109.63629656740866
20
138.61644999186183
30
0
40
3.75
210
0
220
0
230
1
0
CIRCLE
5
117
100
AcDbEntity
8
0
100
AcDbCircle
10
143.47786857444305
20
180.94978332519509
30
0
40
2.5
210
0
220
0
230
1
0
CIRCLE
5
118
100
AcDbEntity
8
0
100
AcDbCircle
10
143.47786857444302
20
130.28311665852846
30
0
40
2.5
210
0
220
0
230
1
0
CIRCLE
5
119
100
AcDbEntity
8
0
100
AcDbCircle
10
143.47786857444302
20
155.6164499918618
30
0
40
2.5
210
0
220
0
230
1
0
CIRCLE
5
120
100
AcDbEntity
8
0
100
AcDbCircle
10
143.47786857444305
20
206.28311665852846
30
0
40
2.4999999999999996
210
0
220
0
230
1
0
CIRCLE
5
121
100
AcDbEntity
8
0
100
AcDbCircle
10
109.63629656740869
20
157.28311665852851
30
0
40
3.75
210
0
220
0
230
1
0
CIRCLE
5
122
100
AcDbEntity
8
0
100
AcDbCircle
10
109.63629656740871
20
194.61644999186177
30
0
40
3.75
210
0
220
0
230
1
0
CIRCLE
5
123
100
AcDbEntity
8
0
100
AcDbCircle
10
109.63629656740871
20
166.6164499918618
30
0
40
3.75
210
0
220
0
230
1
0
CIRCLE
5
124
100
AcDbEntity
8
0
100
AcDbCircle
10
109.63629656740865
20
129.28311665852851
30
0
40
3.75
210
0
220
0
230
1
0
CIRCLE
5
125
100
AcDbEntity
8
0
100
AcDbCircle
10
143.47786857444305
20
168.28311665852846
30
0
40
2.5
210
0
220
0
230
1
0
CIRCLE
5
126
100
AcDbEntity
8
0
100
AcDbCircle
10
143.47786857444299
20
117.61644999186177
30
0
40
2.5
210
0
220
0
230
1
0
LWPOLYLINE
5
127
100
AcDbEntity
8
0
100
AcDbPolyline
90
4
70
1
43
0.0
10
130.55666046142576
20
141.94978332519531
10
127.55666046142576
20
141.94978332519531
10
127.55666046142576
20
156.94978332519531
10
130.55666046142576
20
156.94978332519531
0
LWPOLYLINE
5
128
100
AcDbEntity
8
0
100
AcDbPolyline
90
4
70
1
43
0.0
10
127.55666046142578
20
181.94978332519531
10
130.55666046142579
20
181.94978332519531
10
130.55666046142579
20
166.94978332519531
10
127.55666046142578
20
166.94978332519531
0
LWPOLYLINE
5
129
100
AcDbEntity
8
0
100
AcDbPolyline
90
4
70
1
43
0.0
10
127.55666046142578
20
206.94978332519528
10
130.55666046142579
20
206.94978332519528
10
130.55666046142579
20
191.94978332519531
10
127.55666046142578
20
191.94978332519531
0
LWPOLYLINE
5
130
100
AcDbEntity
8
0
100
AcDbPolyline
90
4
70
1
43
0.0
10
130.55666046142576
20
116.94978332519531
10
127.55666046142576
20
116.94978332519531
10
127.55666046142576
20
131.94978332519531
10
130.55666046142576
20
131.94978332519531
0
LWPOLYLINE
5
131
100
AcDbEntity
8
0
100
AcDbPolyline
90
6
70
1
43
0.0
10
127.25666046142577
20
111.94978332519533
10
154.25666046142609
20
111.94978332519533
42
0.072848324520686292
10
154.25666046142595
20
211.94978332519528
10
127.25666046142578
20
211.94978332519531
10
88.756660461425724
20
189.72179796139486
42
-0.052544701242658517
10
88.756660461425824
20
134.17776868899574
0
LWPOLYLINE
5
132
100
AcDbEntity
8
0
100
AcDbPolyline
90
4
70
1
43
0.0
10
37.07657928466795
20
204.68769836425798
10
37.07657928466795
20
219.68769836425798
10
40.07657928466795
20
219.68769836425798
10
40.07657928466795
20
204.68769836425798
0
LWPOLYLINE
5
133
100
AcDbEntity
8
0
100
AcDbPolyline
90
4
70
1
43
0.0
10
31.355371171650699
20
214.18769836425872
10
31.355371171650699
20
211.18769836425869
10
16.955371171650661
20
211.18769836425869
10
16.955371171650658
20
214.18769836425872
0
LWPOLYLINE
5
134
100
AcDbEntity
8
0
100
AcDbPolyline
90
4
70
1
43
0.0
10
31.355371171650702
20
201.52103169759184
10
31.355371171650702
20
198.52103169759181
10
16.955371171650661
20
198.52103169759178
10
16.955371171650661
20
201.52103169759181
0
LWPOLYLINE
5
135
100
AcDbEntity
8
0
100
AcDbPolyline
90
4
70
1
43
0.0
10
37.076579284667957
20
179.68769836425795
10
37.07657928466795
20
194.68769836425795
10
40.076579284667957
20
194.68769836425793
10
40.076579284667957
20
179.68769836425793
0
LWPOLYLINE
5
136
100
AcDbEntity
8
0
100
AcDbPolyline
90
4
70
1
43
0.0
10
31.35537117165071
20
188.85436503092492
10
31.35537117165071
20
185.85436503092492
10
16.955371171650665
20
185.8543650309249
10
16.955371171650661
20
188.85436503092492
0
LWPOLYLINE
5
137
100
AcDbEntity
8
0
100
AcDbPolyline
90
4
70
1
43
0.0
10
31.35537117165071
20
176.18769836425801
10
31.35537117165071
20
173.18769836425801
10
16.955371171650665
20
173.18769836425798
10
16.955371171650665
20
176.18769836425798
0
LWPOLYLINE
5
138
100
AcDbEntity
8
0
100
AcDbPolyline
90
4
70
1
43
0.0
10
37.076579284667964
20
154.68769836425793
10
37.076579284667957
20
169.68769836425793
10
40.076579284667972
20
169.68769836425793
10
40.076579284667957
20
154.68769836425795
0
LWPOLYLINE
5
139
100
AcDbEntity
8
0
100
AcDbPolyline
90
4
70
1
43
0.0
10
31.355371171650713
20
163.52103169759113
10
31.355371171650713
20
160.5210316975911
10
16.955371171650668
20
160.5210316975911
10
16.955371171650665
20
163.52103169759113
0
LWPOLYLINE
5
140
100
AcDbEntity
8
0
100
AcDbPolyline
90
4
70
1
43
0.0
10
31.355371171650713
20
150.85436503092421
10
31.355371171650713
20
147.85436503092421
10
16.955371171650672
20
147.85436503092421
10
16.955371171650672
20
150.85436503092421
0
LWPOLYLINE
5
141
100
AcDbEntity
8
0
100
AcDbPolyline
90
4
70
1
43
0.0
10
37.076579284667972
20
129.68769836425793
10
37.076579284667964
20
144.68769836425793
10
40.076579284667972
20
144.68769836425795
10
40.076579284667972
20
129.68769836425795
0
LWPOLYLINE
5
142
100
AcDbEntity
8
0
100
AcDbPolyline
90
4
70
1
43
0.0
10
31.355371171650717
20
138.1876983642573
10
31.355371171650717
20
135.1876983642573
10
16.955371171650672
20
135.1876983642573
10
16.955371171650675
20
138.1876983642573
0
LWPOLYLINE
5
143
100
AcDbEntity
8
0
100
AcDbPolyline
90
6
70
1
43
0.0
10
10.356663706567772
20
119.6876983642581
10
40.056663706567988
20
119.68769836425778
10
82.406663706567969
20
144.13848226443875
42
-0.052544701242656963
10
82.406663706567898
20
205.23691446407736
10
40.056663706567974
20
229.68769836425781
10
10.35666370656763
20
229.6876983642579
42
0.072848324520686
0
CIRCLE
5
144
100
AcDbEntity
8
0
100
AcDbCircle
10
57.996943178685065
20
207.35436503092467
30
0
40
3.7500000000000009
210
-0
220
0
230
1
0
CIRCLE
5
145
100
AcDbEntity
8
0
100
AcDbCircle
10
57.996943178685036
20
170.02103169759138
30
0
40
3.7500000000000009
210
-0
220
0
230
1
0
CIRCLE
5
146
100
AcDbEntity
8
0
100
AcDbCircle
10
57.996943178685036
20
142.02103169759138
30
0
40
3.7500000000000009
210
-0
220
0
230
1
0
CIRCLE
5
147
100
AcDbEntity
8
0
100
AcDbCircle
10
57.996943178685036
20
179.35436503092464
30
0
40
3.7500000000000009
210
-0
220
0
230
1
0
CIRCLE
5
148
100
AcDbEntity
8
0
100
AcDbCircle
10
57.996943178685058
20
198.02103169759133
30
0
40
3.7500000000000009
210
-0
220
0
230
1
0
CIRCLE
5
149
100
AcDbEntity
8
0
100
AcDbCircle
10
57.996943178685036
20
160.68769836425804
30
0
40
3.7500000000000009
210
-0
220
0
230
1
0
CIRCLE
5
150
100
AcDbEntity
8
0
100
AcDbCircle
10
57.996943178685036
20
151.3543650309247
30
0
40
3.7500000000000009
210
-0
220
0
230
1
0
CIRCLE
5
151
100
AcDbEntity
8
0
100
AcDbCircle
10
57.996943178685058
20
188.68769836425798
30
0
40
3.7500000000000009
210
-0
220
0
230
1
0
CIRCLE
5
152
100
AcDbEntity
8
0
100
AcDbCircle
10
24.155371171650692
20
193.68769836425801
30
0
40
2.5000000000000004
210
-0
220
0
230
1
0
CIRCLE
5
153
100
AcDbEntity
8
0
100
AcDbCircle
10
24.155371171650689
20
143.02103169759135
30
0
40
2.5000000000000004
210
-0
220
0
230
1
0
CIRCLE
5
154
100
AcDbEntity
8
0
100
AcDbCircle
10
24.155371171650685
20
155.68769836425804
30
0
40
2.5000000000000004
210
-0
220
0
230
1
0
CIRCLE
5
155
100
AcDbEntity
8
0
100
AcDbCircle
10
24.155371171650707
20
206.35436503092473
30
0
40
2.5000000000000004
210
-0
220
0
230
1
0
CIRCLE
5
156
100
AcDbEntity
8
0
100
AcDbCircle
10
24.155371171650689
20
181.02103169759133
30
0
40
2.5000000000000004
210
-0
220
0
230
1
0
CIRCLE
5
157
100
AcDbEntity
8
0
100
AcDbCircle
10
24.155371171650692
20
130.3543650309247
30
0
40
2.5
210
-0
220
0
230
1
0
CIRCLE
5
158
100
AcDbEntity
8
0
100
AcDbCircle
10
24.155371171650685
20
168.3543650309247
30
0
40
2.5000000000000004
210
-0
220
0
230
1
0
CIRCLE
5
159
100
AcDbEntity
8
0
100
AcDbCircle
10
24.155371171650721
20
219.02103169759135
30
0
40
2.5000000000000004
210
-0
220
0
230
1
0
LWPOLYLINE
5
160
100
AcDbEntity
8
0
100
AcDbPolyline
90
12
70
1
43
0.0
10
109.94999694824217
20
241.458897322002
10
109.94999694824217
20
255.85889732200204
10
106.34999694824216
20
255.85889732200204
10
106.34999694824218
20
261.28010543501938
10
9.9499969482421573
20
261.28010543501932
10
9.9499969482421591
20
255.85889732200201
10
6.3499969482421612
20
255.85889732200204
10
6.3499969482421648
20
241.458897322002
10
9.9499969482421573
20
241.458897322002
10
9.9499969482421591
20
236.03768920898472
10
106.34999694824216
20
236.03768920898474
10
106.34999694824218
20
241.458897322002
0
LWPOLYLINE
5
161
100
AcDbEntity
8
0
100
AcDbPolyline
90
12
70
1
43
0.0
10
219.89999389648435
20
231.6712004836231
10
219.89999389648435
20
246.07120048362316
10
216.29999389648435
20
246.07120048362316
10
216.29999389648435
20
251.4924085966405
10
119.89999389648433
20
251.49240859664044
10
119.89999389648433
20
246.0712004836231
10
116.29999389648434
20
246.07120048362316
10
116.29999389648434
20
231.6712004836231
10
119.89999389648433
20
231.6712004836231
10
119.89999389648433
20
226.24999237060581
10
216.29999389648435
20
226.24999237060587
10
216.29999389648435
20
231.6712004836231
0
LWPOLYLINE
5
162
100
AcDbEntity
8
0
100
AcDbPolyline
90
12
70
1
43
0.0
10
219.89999389648435
20
263.2636153395801
10
219.89999389648435
20
277.66361533958013
10
216.29999389648435
20
277.66361533958013
10
216.29999389648435
20
283.0848234525975
10
119.89999389648433
20
283.08482345259745
10
119.89999389648433
20
277.66361533958013
10
116.29999389648434
20
277.66361533958013
10
116.29999389648434
20
263.2636153395801
10
119.89999389648433
20
263.2636153395801
10
119.89999389648433
20
257.84240722656284
10
216.29999389648435
20
257.84240722656284
10
216.29999389648435
20
263.2636153395801
0
LWPOLYLINE
5
163
100
AcDbEntity
8
0
100
AcDbPolyline
90
12
70
1
43
0.0
10
109.94999694824217
20
273.05130454856447
10
109.94999694824217
20
287.45130454856456
10
106.34999694824216
20
287.45130454856456
10
106.34999694824218
20
292.87251266158188
10
9.9499969482421573
20
292.87251266158182
10
9.9499969482421591
20
287.45130454856451
10
6.3499969482421612
20
287.45130454856456
10
6.3499969482421648
20
273.05130454856447
10
9.9499969482421573
20
273.05130454856447
10
9.9499969482421591
20
267.63009643554722
10
106.34999694824216
20
267.63009643554722
10
106.34999694824218
20
273.05130454856447
0
ENDSEC
0
SECTION
2
OBJECTS
0
DICTIONARY
5
C
100
AcDbDictionary
3
ACAD_GROUP
350
D
3
ACAD_MLINESTYLE
350
17
0
DICTIONARY
5
D
100
AcDbDictionary
0
DICTIONARY
5
1A
330
C
100
AcDbDictionary
0
DICTIONARY
5
17
100
AcDbDictionary
0
ENDSEC
0
EOF
